<svg id="btn_receive" xmlns="http://www.w3.org/2000/svg" width="28" height="28" viewBox="0 0 28 28">
    <g id="Rectangle_343" data-name="Rectangle 343" fill="#fff" stroke="#707070" stroke-width="1" opacity="0">
        <rect width="28" height="28" stroke="none"/>
        <rect x="0.5" y="0.5" width="27" height="27" fill="none"/>
    </g>
    <g id="Group_1558" data-name="Group 1558" transform="translate(4 4)">
        <path id="Path_1886" data-name="Path 1886"
              d="M288.6,309.7l1.4,1.4a9.9,9.9,0,0,1-7.1,2.9,10,10,0,0,1,0-20,10.327,10.327,0,0,1,7.1,2.9l-1.4,1.4a7.928,7.928,0,0,0-5.7-2.3,8,8,0,0,0,0,16A8.555,8.555,0,0,0,288.6,309.7Z"
              transform="translate(-272.9 -294)" fill="#22214b"/>
        <path id="Path_1887" data-name="Path 1887" d="M276.7,300.7l-1.4-1.4-4,4a.967.967,0,0,0,0,1.4l4,4,1.4-1.4-2.3-2.3H285v-2H274.4Z" transform="translate(-266 -294)" fill="#22214b"/>
    </g>
</svg>
