<svg id="btn_print" xmlns="http://www.w3.org/2000/svg" width="20" height="20" viewBox="0 0 20 20">
    <path id="Path_1727" data-name="Path 1727"
          d="M708.4,195.889v2.667h1.8a1.788,1.788,0,0,1,1.8,1.778v9.778a.9.9,0,0,1-.9.889H694.9a.9.9,0,0,1-.9-.889v-9.778a1.789,1.789,0,0,1,1.8-1.778h1.8v-2.667a.881.881,0,0,1,.264-.628.9.9,0,0,1,.636-.26h9A.9.9,0,0,1,708.4,195.889Zm-1.8.889v1.778h-7.2v-1.778Zm3.6,3.556H695.8v8.889h2.7v-2.667a.9.9,0,0,1,.9-.889h7.2a.9.9,0,0,1,.9.889v2.667h2.7Zm-4.5,8.889v-1.778h-5.4v1.778Z"
          transform="translate(-693 -193)" fill="#22214b" fill-rule="evenodd"/>
</svg>
