<svg id="btn_date" xmlns="http://www.w3.org/2000/svg" width="20" height="20" viewBox="0 0 20 20">
    <path id="Path_1606" data-name="Path 1606"
          d="M171.222,623v1.778h3.556V623h1.778v1.778h3.556a.889.889,0,0,1,.889.889v12.444a.889.889,0,0,1-.889.889H165.889a.889.889,0,0,1-.889-.889V625.667a.889.889,0,0,1,.889-.889h3.556V623Zm8,8.889H166.777v5.333h12.444Zm-2.666,1.778a.889.889,0,1,1-.889.889A.889.889,0,0,1,176.556,633.667Zm-7.111-7.111h-2.667v3.556h12.444v-3.556h-2.667v1.778h-1.778v-1.778h-3.556v1.778h-1.778Z"
          transform="translate(-163 -621)" fill="#22214b"/>
</svg>
