<svg id="btn_file" xmlns="http://www.w3.org/2000/svg" width="21.667" height="21.667" viewBox="0 0 21.667 21.667">
    <g id="btn_file-2" data-name="btn_file" transform="matrix(0.996, 0.087, -0.087, 0.996, 1.742, 0)">
        <path id="Path_1726" data-name="Path 1726"
              d="M700.172,195.8a6.484,6.484,0,0,1,8.971,0,6.02,6.02,0,0,1,0,8.7l-6.408,6.213a4.631,4.631,0,0,1-6.407,0,4.3,4.3,0,0,1,0-6.213l6.407-6.214a2.78,2.78,0,0,1,3.845,0,2.581,2.581,0,0,1,0,3.728l-6.408,6.214-1.282-1.243,6.408-6.213a.861.861,0,0,0,0-1.243.927.927,0,0,0-1.282,0l-6.407,6.213a2.579,2.579,0,0,0,0,3.728,2.78,2.78,0,0,0,3.844,0l6.407-6.214a4.3,4.3,0,0,0,0-6.214,4.633,4.633,0,0,0-6.407,0l-5.126,4.971-1.282-1.242Z"
              transform="translate(-692.999 -193)" fill="#22214b" fill-rule="evenodd"/>
    </g>
</svg>
