<svg id="btn_edit" xmlns="http://www.w3.org/2000/svg" width="20" height="20" viewBox="0 0 20 20">
    <path id="Path_1470" data-name="Path 1470"
          d="M177.183,271.26l3.555,3.555a.888.888,0,0,1,0,1.257l-9.777,9.777a.885.885,0,0,1-.454.244l-4.444.889a.889.889,0,0,1-1.046-1.046l.889-4.444a.885.885,0,0,1,.244-.454l9.777-9.777A.888.888,0,0,1,177.183,271.26Zm-2.851,4.107L167.6,282.1l-.574,2.873,2.873-.574,6.736-6.736Zm2.223-2.222-.965.965,2.3,2.3.966-.964Z"
          transform="translate(-162.999 -269)" fill="#22214b"/>
</svg>
