<svg id="btn_set_h" xmlns="http://www.w3.org/2000/svg" width="20" height="20" viewBox="0 0 20 20">
    <g id="Group_1732" data-name="Group 1732" transform="translate(-357.099 -349)">
        <path id="Path_318" data-name="Path 318"
              d="M813.841,629.5v-.381l2.059-1.448-.079-.533a5.113,5.113,0,0,0-.713-1.676A5.551,5.551,0,0,0,814,624.091l-.4-.3-2.376.99a3.253,3.253,0,0,0-.713-.381l-.317-2.514-.475-.152a7.374,7.374,0,0,0-3.644,0l-.475.152-.317,2.514a3.253,3.253,0,0,0-.713.381l-2.376-.99-.4.3a7.639,7.639,0,0,0-1.822,3.048l-.079.457,2.059,1.448v.762l-2.059,1.448.079.609a5.111,5.111,0,0,0,.713,1.676,5.548,5.548,0,0,0,1.109,1.371l.4.3,2.376-.99a3.251,3.251,0,0,0,.713.381l.317,2.514.475.152a7.376,7.376,0,0,0,3.644,0l.475-.152.317-2.438c.238-.152.475-.229.713-.381l2.376.991.4-.3a5.326,5.326,0,0,0,1.109-1.371,5.844,5.844,0,0,0,.713-1.676l.079-.457-2.059-1.448Zm.238,2.514a6.923,6.923,0,0,1-.4.762,2.654,2.654,0,0,1-.475.686l-2.218-.914-.4.3a2.894,2.894,0,0,1-1.188.609l-.475.152-.238,2.362a6.678,6.678,0,0,1-1.743,0l-.238-2.362-.4-.229a8.776,8.776,0,0,1-1.188-.61l-.4-.3-2.218.914a2.654,2.654,0,0,1-.475-.686,6.955,6.955,0,0,1-.4-.762l1.98-1.371-.079-.457c0-.229-.079-.457-.079-.609a1.619,1.619,0,0,1,.079-.61l.079-.457-1.9-1.448a6.945,6.945,0,0,1,.4-.762,2.656,2.656,0,0,1,.475-.686l2.218.914.4-.3c.317-.152.713-.381,1.109-.533l.475-.152.238-2.362a6.673,6.673,0,0,1,1.743,0l.238,2.362.475.152a8.783,8.783,0,0,1,1.188.61l.4.3,2.218-.914a2.659,2.659,0,0,1,.475.686,6.948,6.948,0,0,1,.4.762l-1.98,1.371.079.457c0,.229.079.457.079.61a1.617,1.617,0,0,1-.079.609l-.079.457Z"
              transform="translate(-440.801 -270.5)" fill="#f8f7f7"/>
        <path id="Path_319" data-name="Path 319" d="M809,632a1,1,0,1,0-1-1A1,1,0,0,0,809,632Z" transform="translate(-441.9 -272)" fill="#f8f7f7"/>
    </g>
</svg>
