<svg id="ico_pw_off" xmlns="http://www.w3.org/2000/svg" width="20" height="20" viewBox="0 0 20 20">
    <path id="Path_1311" data-name="Path 1311"
          d="M380.53,285.522,378.966,284l-1.131,1.1,1.355,1.319a18.057,18.057,0,0,0-3.026,3.108.764.764,0,0,0,0,.945c2.58,3.288,5.184,4.977,7.836,4.977a7.033,7.033,0,0,0,3.47-.971L389.035,296l1.131-1.1-1.355-1.319a18.055,18.055,0,0,0,3.026-3.108.764.764,0,0,0,0-.945c-2.58-3.288-5.184-4.977-7.836-4.977A7.026,7.026,0,0,0,380.53,285.522Zm-.2,2.006A15.2,15.2,0,0,0,377.816,290c2.169,2.62,4.237,3.893,6.184,3.893a5.238,5.238,0,0,0,2.289-.564Zm7.343,4.944-5.96-5.8a5.228,5.228,0,0,1,2.289-.564c1.947,0,4.015,1.272,6.184,3.893A15.193,15.193,0,0,1,387.672,292.472Z"
          transform="translate(-374 -280)" fill="#22214b" fill-rule="evenodd"/>
</svg>
