<?xml version="1.0" encoding="utf-8"?>
<!-- Generator: Adobe Illustrator 27.6.1, SVG Export Plug-In . SVG Version: 6.00 Build 0)  -->
<svg version="1.1" id="img_logo_d" xmlns="http://www.w3.org/2000/svg" xmlns:xlink="http://www.w3.org/1999/xlink" x="0px" y="0px"
     viewBox="0 0 79 50" style="enable-background:new 0 0 79 50;" xml:space="preserve">
<style type="text/css">
	.st0{fill:#060730;}
</style>
    <g>
	<polygon class="st0" points="1.3,17.4 9.5,17.4 9.5,40 15.5,40 15.5,17.4 23.9,17.4 23.9,12 1.3,12 	"/>
        <path class="st0" d="M46,25.9c-0.8-0.7-1.8-1.3-3-1.7c-1.2-0.5-2.5-0.9-4-1.2c-0.8-0.2-1.5-0.3-2.1-0.6c-0.6-0.2-1.2-0.5-1.6-0.7
		c-0.5-0.3-0.8-0.6-1-1c-0.2-0.4-0.4-0.8-0.4-1.3c0-0.6,0.2-1.1,0.5-1.6c0.4-0.4,0.9-0.8,1.5-1c0.6-0.2,1.4-0.3,2.3-0.3
		c0.8,0,1.6,0.1,2.3,0.4c0.8,0.3,1.5,0.6,2.1,1.1c0.7,0.5,1.3,1.1,1.8,1.9l3.8-3.7c-0.6-1-1.4-1.9-2.4-2.6C45,13,43.8,12.4,42.6,12
		c-1.3-0.4-2.8-0.6-4.5-0.6c-1.4,0-2.7,0.2-3.9,0.6c-1.2,0.4-2.3,1-3.3,1.7c-0.9,0.7-1.7,1.6-2.2,2.7c-0.5,1-0.8,2.1-0.8,3.3
		c0,1.2,0.2,2.2,0.5,3.2c0.4,0.9,0.9,1.8,1.7,2.5c0.7,0.7,1.7,1.3,2.8,1.8c1.1,0.5,2.4,0.9,3.9,1.3c0.7,0.1,1.3,0.2,1.9,0.4
		c0.6,0.2,1.1,0.4,1.6,0.6c0.5,0.2,0.9,0.5,1.2,0.8c0.3,0.3,0.6,0.6,0.8,1c0.2,0.4,0.3,0.8,0.3,1.2c0,0.6-0.2,1.1-0.6,1.5
		c-0.4,0.4-0.9,0.8-1.5,1c-0.7,0.2-1.4,0.3-2.2,0.3c-1.5,0-2.9-0.3-4.2-1c-1.3-0.7-2.6-1.9-3.9-3.7l-3.8,4.3c0.9,1.2,1.9,2.2,3,3
		c1.1,0.8,2.4,1.5,3.8,1.9c1.4,0.4,3,0.6,4.7,0.6c2.1,0,4-0.4,5.6-1.1s2.9-1.7,3.8-3.1s1.4-2.9,1.4-4.8c0-1.1-0.2-2.2-0.7-3.1
		S46.9,26.6,46,25.9z"/>
        <path class="st0" d="M75.6,28.2c-0.5-1-1.2-1.8-2.2-2.5c-0.6-0.4-1.3-0.8-2-1.1c0.9-0.4,1.7-1,2.3-1.8c0.8-1.1,1.2-2.4,1.2-4
		c0-1.4-0.3-2.7-1-3.7c-0.7-1-1.6-1.8-2.9-2.4c-1.3-0.5-2.9-0.8-4.7-0.8H54.1v28h12.6c1.5,0,2.8-0.2,4-0.5s2.2-0.9,3.1-1.6
		c0.9-0.7,1.5-1.6,2-2.6c0.5-1.1,0.7-2.3,0.7-3.7C76.4,30.3,76.1,29.2,75.6,28.2z M59.8,17.2h5.4c1.3,0,2.2,0.3,2.9,0.8
		c0.6,0.5,1,1.3,1,2.3c0,0.6-0.1,1.1-0.4,1.6c-0.3,0.5-0.7,0.8-1.2,1.1c-0.5,0.3-1.2,0.4-1.9,0.4h-5.7V17.2z M70,33.2
		c-0.3,0.5-0.8,0.9-1.4,1.2c-0.6,0.3-1.3,0.4-2.2,0.4h-6.6v-6.7h6.4c0.9,0,1.6,0.1,2.3,0.4c0.6,0.3,1.1,0.6,1.5,1.1
		c0.3,0.5,0.5,1.1,0.5,1.8C70.4,32.1,70.3,32.7,70,33.2z"/>
</g>
</svg>
