<?xml version="1.0" encoding="utf-8"?>
<!-- Generator: Adobe Illustrator 27.6.1, SVG Export Plug-In . SVG Version: 6.00 Build 0)  -->
<svg version="1.1" id="img_logo_l" xmlns="http://www.w3.org/2000/svg" xmlns:xlink="http://www.w3.org/1999/xlink" x="0px" y="0px"
     viewBox="0 0 78 50" style="enable-background:new 0 0 78 50;" xml:space="preserve">
<style type="text/css">
	.st0{fill:#F8F7F7;}
</style>
    <g>
	<polygon class="st0" points="2.4,16.8 10.4,16.8 10.4,40 15.6,40 15.6,16.8 23.8,16.8 23.8,12 2.4,12 	"/>
        <path class="st0" d="M45.8,26.3c-0.8-0.7-1.8-1.3-3-1.8c-1.2-0.5-2.5-0.9-4-1.2c-0.9-0.2-1.7-0.4-2.4-0.6s-1.3-0.5-1.7-0.8
		s-0.8-0.7-1-1.1c-0.2-0.4-0.4-0.9-0.4-1.4c0-0.7,0.2-1.3,0.6-1.8c0.4-0.5,1-0.9,1.7-1.1c0.7-0.3,1.5-0.4,2.5-0.4
		c0.9,0,1.7,0.1,2.4,0.4s1.5,0.7,2.2,1.2c0.7,0.5,1.3,1.2,1.8,2.1l3.4-3.4c-0.6-1-1.4-1.9-2.3-2.7c-0.9-0.7-2-1.3-3.3-1.7
		c-1.2-0.4-2.6-0.6-4.2-0.6c-1.4,0-2.7,0.2-3.9,0.6c-1.2,0.4-2.3,1-3.2,1.7c-0.9,0.7-1.6,1.6-2.1,2.6s-0.8,2.1-0.8,3.2
		c0,1.2,0.2,2.2,0.5,3.1c0.3,0.9,0.9,1.7,1.6,2.5c0.7,0.7,1.7,1.3,2.8,1.8c1.1,0.5,2.4,0.9,3.8,1.2c0.8,0.2,1.5,0.3,2.1,0.5
		c0.6,0.2,1.2,0.4,1.7,0.7c0.5,0.3,0.9,0.6,1.3,0.9c0.3,0.3,0.6,0.7,0.8,1c0.2,0.4,0.3,0.8,0.3,1.3c0,0.6-0.2,1.2-0.6,1.7
		c-0.4,0.5-1,0.9-1.8,1.2c-0.7,0.3-1.6,0.4-2.5,0.4c-1.6,0-3-0.3-4.2-1c-1.3-0.7-2.5-1.9-3.8-3.8l-3.4,3.8c0.9,1.2,1.8,2.2,2.9,3
		c1.1,0.8,2.3,1.4,3.7,1.9c1.4,0.4,2.9,0.6,4.5,0.6c2.1,0,3.9-0.4,5.5-1.1c1.6-0.7,2.8-1.7,3.7-3c0.9-1.3,1.3-2.9,1.3-4.7
		c0-1.1-0.2-2-0.6-2.9C47.2,27.8,46.6,27,45.8,26.3z"/>
        <path class="st0" d="M75.1,28.3c-0.5-1-1.2-1.8-2.2-2.5c-0.6-0.4-1.3-0.8-2-1.1c0.9-0.4,1.7-1,2.3-1.8c0.8-1.1,1.2-2.4,1.2-3.9
		c0-1.5-0.3-2.8-1-3.8c-0.7-1.1-1.6-1.8-2.9-2.4c-1.3-0.5-2.8-0.8-4.7-0.8H54v28h12.3c1.5,0,2.8-0.2,4-0.5c1.2-0.4,2.2-0.9,3-1.6
		c0.9-0.7,1.5-1.6,1.9-2.6c0.4-1,0.7-2.2,0.7-3.6C75.9,30.4,75.7,29.3,75.1,28.3z M59.1,16.7h6c1.4,0,2.4,0.3,3.2,0.9
		c0.7,0.6,1.1,1.4,1.1,2.5c0,0.7-0.2,1.3-0.5,1.8c-0.3,0.5-0.8,0.9-1.3,1.2c-0.6,0.3-1.2,0.4-2,0.4h-6.4V16.7z M70.1,33.6
		c-0.4,0.6-0.9,1-1.6,1.3c-0.7,0.3-1.5,0.4-2.5,0.4h-7V28h6.8c1,0,1.8,0.1,2.6,0.4c0.7,0.3,1.3,0.7,1.7,1.2c0.4,0.5,0.6,1.2,0.6,1.9
		C70.7,32.3,70.5,33,70.1,33.6z"/>
</g>
</svg>
