<svg id="m01_on" xmlns="http://www.w3.org/2000/svg" width="24" height="24" viewBox="0 0 24 24">
    <rect id="Rectangle_3" data-name="Rectangle 3" width="24" height="24" fill="#1ca3dd" opacity="0"/>
    <path id="Path_127" data-name="Path 127"
          d="M170.333,205.667a.889.889,0,0,1,.889-.889h3.556a.889.889,0,0,1,.889.889v3.556h3.556v-5.854L173,197.146l-6.222,6.222v5.854h3.556Zm1.778.889v3.556a.889.889,0,0,1-.889.889h-5.333a.889.889,0,0,1-.889-.889V203a.886.886,0,0,1,.26-.628l7.111-7.111a.888.888,0,0,1,1.257,0l7.111,7.111A.887.887,0,0,1,181,203v7.111a.889.889,0,0,1-.889.889h-5.333a.889.889,0,0,1-.889-.889v-3.556Z"
          transform="translate(-161 -191)" fill="#1ca3dd"/>
</svg>
