<svg id="m02" xmlns="http://www.w3.org/2000/svg" width="24" height="24" viewBox="0 0 24 24">
    <rect id="Rectangle_3" data-name="Rectangle 3" width="24" height="24" fill="#22214b" opacity="0"/>
    <path id="Path_792" data-name="Path 792"
          d="M392.111,195a.892.892,0,0,1,.889.895V208.42a.892.892,0,0,1-.889.895H385.3l-3.318,2.505a.889.889,0,0,1-1.422-.716v-1.789h-2.667a.892.892,0,0,1-.889-.895V195.895a.892.892,0,0,1,.889-.895Zm-.889,1.789H378.778v10.736h2.667a.892.892,0,0,1,.889.895v.895l2.133-1.61a.885.885,0,0,1,.533-.179h6.222Zm-3.556,6.263v1.789h-7.111v-1.789Zm1.778-3.579v1.789h-8.889v-1.789Z"
          transform="translate(-373 -191)" fill="#22214b"/>
</svg>
