<svg id="m03" xmlns="http://www.w3.org/2000/svg" width="24" height="24" viewBox="0 0 24 24">
    <rect id="Rectangle_3" data-name="Rectangle 3" width="24" height="24" fill="#22214b" opacity="0"/>
    <g id="Group_6" data-name="Group 6" transform="translate(-582.5 -189)">
        <path id="Path_992" data-name="Path 992" d="M601.13,195a3.13,3.13,0,1,0,3.13,3.13A3.131,3.131,0,0,0,601.13,195Zm-1.739,3.13a1.739,1.739,0,1,1,1.739,1.739A1.739,1.739,0,0,1,599.391,198.13Z"
              transform="translate(-3.5)" fill="#22214b" fill-rule="evenodd"/>
        <path id="Path_993" data-name="Path 993" d="M600.37,205a4.8,4.8,0,0,0-4.87,4.87h1.391a3.478,3.478,0,1,1,6.956,0h1.391A4.8,4.8,0,0,0,600.37,205Z" transform="translate(-2.739 -2.565)"
              fill="#22214b"/>
        <path id="Path_994" data-name="Path 994" d="M586.5,210.87a4.647,4.647,0,0,1,4.522-4.87,4.363,4.363,0,0,1,1.889.415l-.6,1.256a2.98,2.98,0,0,0-1.292-.28,3.258,3.258,0,0,0-3.13,3.478Z"
              transform="translate(0 -2.87)" fill="#22214b"/>
        <path id="Path_995" data-name="Path 995"
              d="M591.783,197a2.783,2.783,0,1,0,2.783,2.783A2.783,2.783,0,0,0,591.783,197Zm-1.391,2.783a1.391,1.391,0,1,1,1.391,1.391A1.391,1.391,0,0,1,590.391,199.783Z"
              transform="translate(-0.761 -0.609)" fill="#22214b" fill-rule="evenodd"/>
    </g>
</svg>
