<svg id="m04" xmlns="http://www.w3.org/2000/svg" width="24" height="24" viewBox="0 0 24 24">
    <g id="Group_1496" data-name="Group 1496">
        <path id="Path_1313" data-name="Path 1313" d="M0,0H24V24H0Z" fill="#22214b" opacity="0"/>
    </g>
    <path id="Path_405" data-name="Path 405"
          d="M72.8,198.8v10.4a.756.756,0,0,1-.8.8H60.8a.756.756,0,0,1-.8-.8V194.8a.756.756,0,0,1,.8-.8H68a.726.726,0,0,1,.56.24l4,4A.726.726,0,0,1,72.8,198.8Zm-6.4-3.2H61.6v12.8h9.6v-8h-4a.756.756,0,0,1-.8-.8Zm1.6.32v2.88h2.88Z"
          transform="translate(-54 -190)" fill="#22214b" fill-rule="evenodd"/>
</svg>
