<svg id="m05_on" xmlns="http://www.w3.org/2000/svg" width="24" height="24" viewBox="0 0 24 24">
    <rect id="Rectangle_3" data-name="Rectangle 3" width="24" height="24" fill="#1ca3dd" opacity="0"/>
    <g id="Group_20" data-name="Group 20" transform="translate(3 3)">
        <path id="Path_318" data-name="Path 318"
              d="M815.583,630.5v-.429l2.317-1.629-.089-.6a5.751,5.751,0,0,0-.8-1.886,6.246,6.246,0,0,0-1.247-1.543l-.446-.343-2.673,1.114a3.661,3.661,0,0,0-.8-.429l-.356-2.828-.535-.171a8.3,8.3,0,0,0-4.1,0l-.535.171-.356,2.828a3.664,3.664,0,0,0-.8.429l-2.673-1.114-.446.343a8.6,8.6,0,0,0-2.049,3.429l-.089.514,2.317,1.629v.857l-2.317,1.629.089.686a5.749,5.749,0,0,0,.8,1.886,6.242,6.242,0,0,0,1.247,1.543l.446.343,2.673-1.114a3.658,3.658,0,0,0,.8.429l.356,2.829.535.171a8.3,8.3,0,0,0,4.1,0l.535-.171.356-2.743c.267-.172.535-.257.8-.429l2.673,1.114.446-.343a5.992,5.992,0,0,0,1.247-1.543,6.575,6.575,0,0,0,.8-1.886l.089-.514-2.317-1.629Zm.267,2.828a7.782,7.782,0,0,1-.446.857,2.986,2.986,0,0,1-.535.771l-2.495-1.029-.446.343a3.256,3.256,0,0,1-1.337.686l-.535.171-.267,2.657a7.512,7.512,0,0,1-1.96,0l-.267-2.657-.446-.257a9.873,9.873,0,0,1-1.337-.686l-.446-.343-2.495,1.029a2.987,2.987,0,0,1-.535-.771,7.825,7.825,0,0,1-.446-.857l2.228-1.543-.089-.514c0-.257-.089-.514-.089-.686a1.821,1.821,0,0,1,.089-.686l.089-.514-2.139-1.628a7.815,7.815,0,0,1,.446-.857,2.987,2.987,0,0,1,.535-.771l2.5,1.029.446-.343c.356-.171.8-.429,1.247-.6l.535-.171.267-2.657a7.507,7.507,0,0,1,1.96,0l.267,2.657.535.171a9.88,9.88,0,0,1,1.337.686l.446.343,2.5-1.029a2.993,2.993,0,0,1,.535.771,7.822,7.822,0,0,1,.445.857l-2.228,1.543.089.514c0,.257.089.514.089.686a1.818,1.818,0,0,1-.089.686l-.089.514Z"
              transform="translate(-799.9 -621.5)" fill="#1ca3dd"/>
        <path id="Path_319" data-name="Path 319" d="M810,634a2,2,0,1,0-2-2A2,2,0,0,0,810,634Z" transform="translate(-801 -623)" fill="#1ca3dd"/>
    </g>
</svg>
