<svg id="m6_on" xmlns="http://www.w3.org/2000/svg" width="24" height="23.998" viewBox="0 0 24 23.998">
    <g id="Group_1535" data-name="Group 1535" transform="translate(-348.04 -737.074)">
        <path id="Path_1496" data-name="Path 1496"
              d="M1129.946,280.926a3.894,3.894,0,0,0,1.131-7.645,5.588,5.588,0,0,0-5.113-3.281,5.528,5.528,0,0,0-5.527,4.77,3.116,3.116,0,0,0,.748,6.156h2.389v-1.561h-2.389a1.561,1.561,0,1,1,0-3.122.79.79,0,0,0,.8-.78,3.993,3.993,0,0,1,7.749-1.263.8.8,0,0,0,.621.517,2.338,2.338,0,0,1-.406,4.649h-1.593v1.561Z"
              transform="translate(-766 471)" fill="#1ca3dd"/>
        <path id="Path_1497" data-name="Path 1497" d="M1126.486,280v5.236l-1.045-1.038-1.142,1.142,2.429,2.422a.807.807,0,0,0,1.142,0l2.429-2.422-1.142-1.142-1.052,1.049V280Z"
              transform="translate(-767.26 469.074)" fill="#1ca3dd"/>
    </g>
</svg>
