<svg id="m7" xmlns="http://www.w3.org/2000/svg" width="24" height="24" viewBox="0 0 24 24">
    <path id="Path_1682" data-name="Path 1682" d="M696,803a1,1,0,0,0,1,1h14a1,1,0,0,0,1-1v-5a1,1,0,0,0-1-1H697a1,1,0,0,0-1,1Zm14-1H698v-3h12Z" transform="translate(-692 -784)" fill="#22214b"
          fill-rule="evenodd"/>
    <path id="Path_1683" data-name="Path 1683" d="M696,794a1,1,0,0,0,1,1h14a1,1,0,0,0,1-1v-5a1,1,0,0,0-1-1H697a1,1,0,0,0-1,1Zm14-1H698v-3h12Z" transform="translate(-692 -784)" fill="#22214b"
          fill-rule="evenodd"/>
</svg>
