<svg xmlns="http://www.w3.org/2000/svg" width="16" height="16" viewBox="0 0 16 16" fill="none">
    <mask id="mask0_393_13348" style="mask-type:alpha" maskUnits="userSpaceOnUse" x="0" y="0" width="16" height="16">
        <rect width="16" height="16" fill="#D9D9D9"/>
    </mask>
    <g mask="url(#mask0_393_13348)">
        <path d="M8.00577 14.3997C7.12488 14.3997 6.29555 14.2331 5.51777 13.8997C4.73999 13.5664 4.05944 13.1081 3.4761 12.5247C2.89277 11.9414 2.43444 11.2611 2.1011 10.4837C1.76777 9.7064 1.6011 8.87584 1.6011 7.99206C1.6011 7.10829 1.76777 6.28029 2.1011 5.50806C2.43444 4.73584 2.89277 4.05806 3.4761 3.47473C4.05944 2.8914 4.73977 2.43306 5.5171 2.09973C6.29444 1.7664 7.12499 1.59973 8.00877 1.59973C8.89255 1.59973 9.72055 1.7664 10.4928 2.09973C11.265 2.43306 11.9428 2.8914 12.5261 3.47473C13.1094 4.05806 13.5678 4.73706 13.9011 5.51173C14.2344 6.28651 14.4011 7.11429 14.4011 7.99506C14.4011 8.87595 14.2344 9.70529 13.9011 10.4831C13.5678 11.2608 13.1094 11.9414 12.5261 12.5247C11.9428 13.1081 11.2638 13.5664 10.4891 13.8997C9.71433 14.2331 8.88655 14.3997 8.00577 14.3997ZM8.0011 13.1997C9.44555 13.1997 10.6733 12.6942 11.6844 11.6831C12.6955 10.672 13.2011 9.44418 13.2011 7.99973C13.2011 6.55529 12.6955 5.32751 11.6844 4.3164C10.6733 3.30529 9.44555 2.79973 8.0011 2.79973C6.55666 2.79973 5.32888 3.30529 4.31777 4.3164C3.30666 5.32751 2.8011 6.55529 2.8011 7.99973C2.8011 9.44418 3.30666 10.672 4.31777 11.6831C5.32888 12.6942 6.55666 13.1997 8.0011 13.1997ZM6.8011 10.7997H9.2011C9.42777 10.7997 9.61777 10.7231 9.7711 10.5697C9.92444 10.4164 10.0011 10.2264 10.0011 9.99973V9.39973C10.0011 9.22973 9.94394 9.08723 9.8296 8.97223C9.71527 8.85723 9.5736 8.79973 9.4046 8.79973C9.2356 8.79973 9.09277 8.85723 8.9761 8.97223C8.85944 9.08723 8.8011 9.22973 8.8011 9.39973V9.59973H7.2011V6.39973H8.8011V6.59973C8.8011 6.76973 8.85827 6.91223 8.9726 7.02723C9.08694 7.14223 9.2286 7.19973 9.3976 7.19973C9.5666 7.19973 9.70944 7.14223 9.8261 7.02723C9.94277 6.91223 10.0011 6.76973 10.0011 6.59973V5.99973C10.0011 5.77306 9.92444 5.58306 9.7711 5.42973C9.61777 5.2764 9.42777 5.19973 9.2011 5.19973H6.8011C6.57444 5.19973 6.38444 5.2764 6.2311 5.42973C6.07777 5.58306 6.0011 5.77306 6.0011 5.99973V9.99973C6.0011 10.2264 6.07777 10.4164 6.2311 10.5697C6.38444 10.7231 6.57444 10.7997 6.8011 10.7997Z"
              fill="#222222"/>
    </g>
</svg>