<svg width="195" height="41" viewBox="0 0 195 41" fill="none" xmlns="http://www.w3.org/2000/svg">
<path d="M1.8985 27.4614L12.674 37.7669L12.225 27.4614H22.5516L11.776 16.7078H1.8985V27.4614Z" fill="#125BE5" stroke="#125BE5" stroke-linejoin="round"/>
<path d="M1 5L11.7755 15.7536H23V5H1Z" fill="white" stroke="#125BE5" stroke-width="2" stroke-linejoin="round"/>
<path d="M12.9573 27.9098H1.95728L12.9573 38.4101V27.9098Z" fill="#0E40A0" stroke="#0E40A0" stroke-width="0.5" stroke-linejoin="round"/>
<path d="M52.1357 26.4102C50.6748 27.6921 48.5264 28.333 45.6904 28.333C42.8617 28.333 40.7132 27.6921 39.2451 26.4102C37.777 25.1211 37.043 23.0837 37.043 20.2979C37.043 17.512 37.777 15.4782 39.2451 14.1963C40.7132 12.9144 42.8617 12.2734 45.6904 12.2734C48.5264 12.2734 50.6748 12.9144 52.1357 14.1963C53.6038 15.4782 54.3379 17.512 54.3379 20.2979C54.3379 23.0837 53.6038 25.1211 52.1357 26.4102ZM49.2031 16.4629C48.4798 15.6035 47.3089 15.1738 45.6904 15.1738C44.0791 15.1738 42.9082 15.6035 42.1777 16.4629C41.4544 17.3223 41.0928 18.6042 41.0928 20.3086C41.0928 22.0059 41.4544 23.2842 42.1777 24.1436C42.9082 24.9958 44.0791 25.4219 45.6904 25.4219C47.3089 25.4219 48.4798 24.9958 49.2031 24.1436C49.9264 23.2842 50.2881 22.0059 50.2881 20.3086C50.2881 18.6042 49.9264 17.3223 49.2031 16.4629ZM55.7859 27.3447V16.8926C55.7859 16.6992 55.8468 16.5417 55.9686 16.4199C56.0975 16.291 56.255 16.2266 56.4412 16.2266H58.8475C59.0337 16.2266 59.1876 16.291 59.3094 16.4199C59.4383 16.5417 59.5027 16.6992 59.5027 16.8926V17.5693C60.7345 16.5309 62.0451 16.0117 63.4344 16.0117C64.8309 16.0117 65.966 16.4378 66.8396 17.29C67.7133 18.1351 68.1502 19.4313 68.1502 21.1787V27.3447C68.1502 27.5309 68.0857 27.6885 67.9568 27.8174C67.8351 27.9391 67.6775 28 67.4842 28H65.0887C64.9025 28 64.7449 27.9391 64.616 27.8174C64.4943 27.6885 64.4334 27.5309 64.4334 27.3447V21.1787C64.4334 19.4671 63.7495 18.6113 62.3816 18.6113C61.4865 18.6113 60.5268 19.1234 59.5027 20.1475V27.3447C59.5027 27.5309 59.4383 27.6885 59.3094 27.8174C59.1876 27.9391 59.0337 28 58.8475 28H56.4412C56.255 28 56.0975 27.9391 55.9686 27.8174C55.8468 27.6885 55.7859 27.5309 55.7859 27.3447ZM71.2418 26.6465C70.1389 25.6009 69.5875 24.097 69.5875 22.1348C69.5875 20.1654 70.1425 18.6543 71.2525 17.6016C72.3626 16.5417 73.9023 16.0117 75.8717 16.0117C77.8411 16.0117 79.3772 16.5273 80.4801 17.5586C81.5829 18.5827 82.1344 20.0544 82.1344 21.9736V22.5859C82.1344 22.7793 82.0699 22.9404 81.941 23.0693C81.8193 23.1911 81.6617 23.252 81.4684 23.252H73.3795C73.4511 24.1328 73.7018 24.7738 74.1314 25.1748C74.5683 25.5758 75.263 25.7764 76.2154 25.7764C77.1679 25.7764 77.8196 25.5615 78.1705 25.1318C78.5214 24.7021 78.9547 24.4837 79.4703 24.4766H81.0709C81.2643 24.4766 81.4218 24.541 81.5436 24.6699C81.6725 24.7917 81.7369 24.9492 81.7369 25.1426C81.7369 27.1979 79.7783 28.222 75.8609 28.2148C73.8844 28.2148 72.3447 27.6921 71.2418 26.6465ZM73.358 20.9854H78.3531C78.2815 19.2952 77.4508 18.4502 75.8609 18.4502C74.2783 18.4502 73.4439 19.2952 73.358 20.9854ZM90.9387 26.9688V13.6377C90.9387 13.3441 91.0354 13.097 91.2287 12.8965C91.4221 12.696 91.6584 12.5957 91.9377 12.5957H96.3098C96.5891 12.5957 96.854 12.696 97.1047 12.8965C97.3553 13.097 97.5236 13.3369 97.6096 13.6162L100.779 22.79L103.947 13.6162C104.033 13.3369 104.202 13.097 104.452 12.8965C104.703 12.696 104.968 12.5957 105.247 12.5957H109.619C109.899 12.5957 110.131 12.696 110.318 12.8965C110.511 13.097 110.608 13.3441 110.608 13.6377V26.9688C110.608 27.2624 110.507 27.5094 110.307 27.71C110.113 27.9033 109.877 28 109.598 28H107.664C107.385 28 107.145 27.9033 106.945 27.71C106.751 27.5094 106.654 27.2624 106.654 26.9688V16.4736L102.862 27.0332C102.762 27.2982 102.587 27.5273 102.336 27.7207C102.085 27.9069 101.821 28 101.541 28H100.005C99.7258 28 99.4608 27.9069 99.2102 27.7207C98.9667 27.5273 98.7912 27.2982 98.6838 27.0332L94.9025 16.4736V26.9688C94.9025 27.2624 94.8023 27.5094 94.6018 27.71C94.4084 27.9033 94.1721 28 93.8928 28H91.9592C91.6799 28 91.44 27.9033 91.2395 27.71C91.0389 27.5094 90.9387 27.2624 90.9387 26.9688ZM113.914 26.6465C112.811 25.6009 112.26 24.097 112.26 22.1348C112.26 20.1654 112.815 18.6543 113.925 17.6016C115.035 16.5417 116.575 16.0117 118.544 16.0117C120.513 16.0117 122.049 16.5273 123.152 17.5586C124.255 18.5827 124.807 20.0544 124.807 21.9736V22.5859C124.807 22.7793 124.742 22.9404 124.613 23.0693C124.492 23.1911 124.334 23.252 124.141 23.252H116.052C116.123 24.1328 116.374 24.7738 116.804 25.1748C117.241 25.5758 117.935 25.7764 118.888 25.7764C119.84 25.7764 120.492 25.5615 120.843 25.1318C121.194 24.7021 121.627 24.4837 122.143 24.4766H123.743C123.937 24.4766 124.094 24.541 124.216 24.6699C124.345 24.7917 124.409 24.9492 124.409 25.1426C124.409 27.1979 122.451 28.222 118.533 28.2148C116.557 28.2148 115.017 27.6921 113.914 26.6465ZM116.03 20.9854H121.025C120.954 19.2952 120.123 18.4502 118.533 18.4502C116.951 18.4502 116.116 19.2952 116.03 20.9854ZM125.567 19.4814C125.567 17.1683 127.433 16.0117 131.164 16.0117C135.088 16.0117 137.051 17.0394 137.051 19.0947C137.051 19.2809 136.99 19.4385 136.868 19.5674C136.746 19.6891 136.589 19.75 136.395 19.75H134.795C134.279 19.75 133.846 19.5352 133.495 19.1055C133.144 18.6686 132.453 18.4502 131.422 18.4502C130.004 18.4502 129.295 18.7939 129.295 19.4814C129.295 19.8037 129.57 20.0723 130.122 20.2871C130.68 20.502 131.357 20.6917 132.152 20.8564C132.954 21.014 133.753 21.2181 134.548 21.4688C135.343 21.7194 136.016 22.1204 136.567 22.6719C137.126 23.2161 137.405 23.9072 137.405 24.7451C137.405 27.0583 135.436 28.2148 131.497 28.2148C127.558 28.2148 125.589 27.1908 125.589 25.1426C125.589 24.9492 125.65 24.7917 125.771 24.6699C125.9 24.541 126.061 24.4766 126.255 24.4766H127.855C128.371 24.4766 128.804 24.695 129.155 25.1318C129.506 25.5615 130.197 25.7764 131.228 25.7764C132.868 25.7764 133.688 25.4326 133.688 24.7451C133.688 24.4229 133.409 24.1543 132.85 23.9395C132.299 23.7246 131.622 23.5348 130.82 23.3701C130.018 23.1982 129.22 22.9906 128.425 22.7471C127.637 22.4964 126.964 22.0954 126.405 21.5439C125.846 20.9925 125.567 20.305 125.567 19.4814ZM138.187 19.4814C138.187 17.1683 140.053 16.0117 143.784 16.0117C147.708 16.0117 149.671 17.0394 149.671 19.0947C149.671 19.2809 149.61 19.4385 149.488 19.5674C149.366 19.6891 149.209 19.75 149.015 19.75H147.415C146.899 19.75 146.466 19.5352 146.115 19.1055C145.764 18.6686 145.073 18.4502 144.042 18.4502C142.624 18.4502 141.915 18.7939 141.915 19.4814C141.915 19.8037 142.19 20.0723 142.742 20.2871C143.3 20.502 143.977 20.6917 144.772 20.8564C145.574 21.014 146.373 21.2181 147.168 21.4688C147.963 21.7194 148.636 22.1204 149.187 22.6719C149.746 23.2161 150.025 23.9072 150.025 24.7451C150.025 27.0583 148.056 28.2148 144.117 28.2148C140.178 28.2148 138.209 27.1908 138.209 25.1426C138.209 24.9492 138.269 24.7917 138.391 24.6699C138.52 24.541 138.681 24.4766 138.875 24.4766H140.475C140.991 24.4766 141.424 24.695 141.775 25.1318C142.126 25.5615 142.817 25.7764 143.848 25.7764C145.488 25.7764 146.308 25.4326 146.308 24.7451C146.308 24.4229 146.029 24.1543 145.47 23.9395C144.919 23.7246 144.242 23.5348 143.44 23.3701C142.638 23.1982 141.839 22.9906 141.045 22.7471C140.257 22.4964 139.584 22.0954 139.025 21.5439C138.466 20.9925 138.187 20.305 138.187 19.4814ZM152.225 27.2266C151.28 26.5677 150.807 25.6367 150.807 24.4336C150.807 23.2305 151.28 22.3066 152.225 21.6621C153.177 21.0176 154.402 20.6953 155.899 20.6953H159.454C159.454 19.8574 159.279 19.2738 158.928 18.9443C158.577 18.6149 157.961 18.4502 157.08 18.4502C156.207 18.4502 155.591 18.6686 155.233 19.1055C154.882 19.5352 154.449 19.75 153.933 19.75H152.332C152.139 19.75 151.978 19.6891 151.849 19.5674C151.727 19.4385 151.666 19.2809 151.666 19.0947C151.666 17.0394 153.618 16.0117 157.521 16.0117C159.225 16.0117 160.593 16.3949 161.624 17.1611C162.656 17.9202 163.171 19.0983 163.171 20.6953V27.3447C163.171 27.5381 163.11 27.6956 162.989 27.8174C162.867 27.9391 162.709 28 162.516 28H160.443C160.249 28 160.092 27.9391 159.97 27.8174C159.848 27.6885 159.787 27.5309 159.787 27.3447V27.0117C158.656 27.821 157.349 28.222 155.867 28.2148C154.391 28.2148 153.177 27.8854 152.225 27.2266ZM156.157 23.1338C155.655 23.1338 155.258 23.2555 154.964 23.499C154.678 23.7425 154.535 24.0576 154.535 24.4443C154.535 24.8311 154.685 25.1497 154.986 25.4004C155.287 25.651 155.713 25.7764 156.264 25.7764C157.367 25.7764 158.43 25.4541 159.454 24.8096V23.1338H156.157ZM170.044 27.0977C168.418 27.0977 167.104 26.6071 166.102 25.626C165.106 24.6449 164.609 23.2842 164.609 21.5439C164.609 19.8037 165.178 18.4466 166.317 17.4727C167.455 16.4987 169.088 16.0117 171.215 16.0117C172.253 16.0117 173.331 16.1299 174.448 16.3662C175.566 16.5954 176.407 16.8783 176.973 17.2148V27.1621C176.973 28.7591 176.446 29.9372 175.394 30.6963C174.341 31.4626 172.862 31.8457 170.957 31.8457C169.059 31.8457 167.595 31.6058 166.564 31.126C165.54 30.6533 165.028 29.8691 165.028 28.7734C165.028 28.5801 165.088 28.4189 165.21 28.29C165.339 28.1683 165.5 28.1074 165.694 28.1074H167.294C167.81 28.1074 168.222 28.2972 168.529 28.6768C168.923 29.1637 169.622 29.4072 170.624 29.4072C171.634 29.4072 172.325 29.2425 172.697 28.9131C173.07 28.5837 173.256 28 173.256 27.1621V26.6572C172.11 26.9508 171.04 27.0977 170.044 27.0977ZM170.989 18.6113C169.292 18.6042 168.444 19.5853 168.444 21.5547C168.444 23.5169 169.271 24.498 170.925 24.498C171.613 24.498 172.39 24.3906 173.256 24.1758V18.8477C172.64 18.6829 171.885 18.6042 170.989 18.6113ZM180.064 26.6465C178.962 25.6009 178.41 24.097 178.41 22.1348C178.41 20.1654 178.965 18.6543 180.075 17.6016C181.185 16.5417 182.725 16.0117 184.694 16.0117C186.664 16.0117 188.2 16.5273 189.303 17.5586C190.406 18.5827 190.957 20.0544 190.957 21.9736V22.5859C190.957 22.7793 190.893 22.9404 190.764 23.0693C190.642 23.1911 190.484 23.252 190.291 23.252H182.202C182.274 24.1328 182.524 24.7738 182.954 25.1748C183.391 25.5758 184.086 25.7764 185.038 25.7764C185.991 25.7764 186.642 25.5615 186.993 25.1318C187.344 24.7021 187.777 24.4837 188.293 24.4766H189.894C190.087 24.4766 190.244 24.541 190.366 24.6699C190.495 24.7917 190.56 24.9492 190.56 25.1426C190.56 27.1979 188.601 28.222 184.684 28.2148C182.707 28.2148 181.167 27.6921 180.064 26.6465ZM182.181 20.9854H187.176C187.104 19.2952 186.273 18.4502 184.684 18.4502C183.101 18.4502 182.267 19.2952 182.181 20.9854Z" fill="#055ADD"/>
</svg>
