<svg width="240" height="240" viewBox="0 0 240 240" fill="none" xmlns="http://www.w3.org/2000/svg">
    <path d="M27.2425 83.3564H170.442C174.231 83.3564 177.307 86.4326 177.307 90.2215V189.135C177.307 192.924 174.231 196 170.442 196H27.2425C23.4536 196 20.3774 192.924 20.3774 189.135V90.2225C20.3774 86.4336 23.4536 83.3574 27.2425 83.3574V83.3564Z"
          fill="#F9F9FB"/>
    <path d="M172.684 90.7567H24.9047C23.576 90.7567 22.498 89.6787 22.498 88.35C22.498 87.0213 23.576 85.9434 24.9047 85.9434H172.684C174.012 85.9434 175.09 87.0213 175.09 88.35C175.09 89.6787 174.012 90.7567 172.684 90.7567Z"
          fill="#D8E6FF"/>
    <path d="M43.8167 130.411C52.6791 130.411 59.8634 123.227 59.8634 114.365C59.8634 105.502 52.6791 98.3179 43.8167 98.3179C34.9544 98.3179 27.77 105.502 27.77 114.365C27.77 123.227 34.9544 130.411 43.8167 130.411Z"
          fill="#A5C5FF"/>
    <path d="M50.802 110.504C50.802 113.725 48.3277 116.443 45.3473 117.265C45.1454 117.321 45.0083 117.511 45.0083 117.721V119.604C45.0083 120.416 44.35 121.074 43.5378 121.074C42.7256 121.074 42.0673 120.416 42.0673 119.604V116.399C42.0673 115.451 42.8354 114.684 43.7819 114.684C46.2487 114.684 48.2188 112.542 47.9324 110.014C47.7183 108.128 46.2055 106.594 44.3219 106.358C42.9556 106.187 41.6983 106.675 40.825 107.548C40.0456 108.326 39.7527 109.225 39.6541 109.933C39.5574 110.631 38.9573 111.148 38.2521 111.148C37.3883 111.148 36.7225 110.383 36.8483 109.528C37.0033 108.474 37.4286 107.084 38.5244 105.848C39.8109 104.397 41.6889 103.484 43.781 103.484C47.6563 103.484 50.8001 106.625 50.8001 110.503L50.802 110.504Z"
          fill="white"/>
    <path d="M43.6281 125.957C44.5092 125.957 45.2235 125.243 45.2235 124.362C45.2235 123.481 44.5092 122.767 43.6281 122.767C42.747 122.767 42.0327 123.481 42.0327 124.362C42.0327 125.243 42.747 125.957 43.6281 125.957Z"
          fill="white"/>
    <path d="M49.8601 148.065C44.9341 143.259 44.0496 134.862 47.8657 129.134C51.6818 123.406 59.7723 120.989 66.5059 122.369C66.8139 118.236 69.1952 114.309 72.7184 112.127C76.2415 109.945 80.8173 109.56 84.9377 110.287C84.6363 104.216 85.7265 96.36 87.4693 90.1353C89.1266 84.2149 93.9296 79.7189 99.9336 78.394C104.532 77.3789 109.485 76.7742 114.324 76.7676C121.871 76.7582 128.401 82.0692 129.777 89.4893C130.99 96.0304 130.428 102.752 128.064 108.367C131.073 110.977 133.084 114.711 133.608 118.66C134.132 122.608 133.165 126.737 130.942 130.042L77.328 139.388L49.8611 148.065L49.8601 148.065Z"
          fill="#A5C5FF"/>
    <path d="M98.0949 127.942C93.6825 124.07 87.9452 121.737 82.083 121.429C81.5947 121.403 81.0867 121.393 80.5637 121.399C71.0985 121.496 62.5235 127.023 58.2125 135.451L27.2412 196H167.642L181.573 158.223C181.573 158.223 156.853 137.765 156.254 138.521C152.071 132.334 146.707 127.125 140.324 125.263C133.94 123.401 124.826 125.003 119.316 128.726L98.0949 127.942Z"
          fill="#D8E6FF"/>
    <path d="M118.91 119.55L117.754 128.727L97.7636 128.004L99.6406 111.28C86.487 115.784 85.5968 96.6625 99.0378 101.26C101.999 100.627 104.367 97.8626 104.913 95.1094C107.318 95.6596 109.99 94.8108 112.117 93.3394C114.412 93.3516 116.7 92.4389 118.356 90.851C120.012 89.2622 121.019 87.0151 121.493 85.6479C122.696 90.1326 126.158 91.9853 129.93 92.6501C131.061 98.2832 131.672 104.223 130.166 109.317C128.66 114.41 124.712 118.686 118.91 119.551V119.55Z"
          fill="#F0F0F1"/>
    <path d="M149.353 157.91L156.606 142.896C158.504 138.967 161.557 135.712 165.356 133.564C168.84 131.594 172.615 129.423 172.709 129.212C175.19 124.569 178.049 120.127 181.247 115.945C182.064 114.876 182.934 113.798 184.107 113.14C185.28 112.482 186.836 112.332 187.927 113.117C189.019 113.903 189.27 115.763 188.723 116.315C189.792 114.675 190.982 113.116 192.281 111.653C192.977 110.869 193.723 110.098 194.657 109.623C195.591 109.148 196.755 109.01 197.678 109.506C198.601 110.003 199.135 111.238 199.136 112.166C200.104 111.229 201.232 110.458 202.456 109.897C203.536 109.402 204.827 109.066 205.84 110.095C206.242 110.503 206.485 111.05 206.562 111.618C206.778 113.171 205.957 114.427 205.492 116.083C204.835 117.264 204.177 118.447 203.87 119.28C205.495 117.512 207.392 115.993 209.472 114.795C210.149 114.405 210.867 114.042 211.643 113.958C212.42 113.875 213.275 114.121 213.736 114.753C214.168 115.345 214.175 116.165 213.938 116.858C213.702 117.551 213.284 118.174 212.809 118.731C199.085 134.799 185.754 146.831 185.754 146.831L179.943 158.7L149.353 157.911L149.353 157.91Z"
          fill="#F0F0F1"/>
    <path d="M69.2292 94.8197C79.1988 94.8197 87.2807 86.7378 87.2807 76.7683C87.2807 66.7987 79.1988 58.7168 69.2292 58.7168C59.2597 58.7168 51.1777 66.7987 51.1777 76.7683C51.1777 86.7378 59.2597 94.8197 69.2292 94.8197Z"
          fill="#A5C5FF"/>
    <path d="M66.9801 80.8146L65.274 69.1061C64.9228 66.6948 66.7923 64.5322 69.2291 64.5322C71.6986 64.5322 73.5776 66.7492 73.1719 69.185L71.2376 80.8221C71.1296 81.917 70.2094 82.7518 69.1089 82.7518C68.0055 82.7518 67.0834 81.9123 66.9792 80.8137L66.9801 80.8146Z"
          fill="white"/>
    <path d="M69.1325 89.4608C70.4985 89.4608 71.6059 88.3535 71.6059 86.9875C71.6059 85.6215 70.4985 84.5142 69.1325 84.5142C67.7665 84.5142 66.6592 85.6215 66.6592 86.9875C66.6592 88.3535 67.7665 89.4608 69.1325 89.4608Z"
          fill="white"/>
    <path d="M138.652 55.5911L140.145 44L142.715 55.4118L148.57 54.6953L144.148 58.2203L147.494 65.3906L140.683 59.057L135.484 65.9878L137.815 58.9377L132.915 60.6101L135.843 56.6672L131.123 49.7355L138.652 55.5911Z"
          fill="#D8E6FF"/>
    <path d="M187.971 165.76L194.519 162.809L201.528 149.898L199.314 160.504L209.919 162.901L201.251 164.745L206.138 177.194L198.392 167.327L192.859 175.719L193.873 167.604L187.971 165.76Z"
          fill="#D8E6FF"/>
    <path d="M161.597 120.579C161.355 120.579 161.148 120.399 161.119 120.154C160.872 118.042 159.472 116.088 157.552 115.175C156.957 114.891 156.315 114.71 155.659 114.629C155.662 114.755 155.661 114.88 155.659 115.006C155.629 116.325 155.326 117.428 154.759 118.284C154.03 119.383 152.848 120.031 151.688 119.984C150.336 119.926 149.157 118.814 149.113 117.553C149.077 116.519 149.737 115.492 150.925 114.737C152.021 114.041 153.313 113.665 154.614 113.624C154.278 111.307 152.965 109.251 151.112 108.269C148.737 107.012 145.479 107.828 144.277 109.981C144.147 110.213 143.853 110.296 143.622 110.167C143.389 110.038 143.307 109.745 143.436 109.512C144.904 106.883 148.7 105.904 151.562 107.419C153.729 108.565 155.248 110.972 155.59 113.655C156.413 113.734 157.222 113.95 157.967 114.305C160.179 115.357 161.792 117.609 162.076 120.042C162.107 120.306 161.918 120.545 161.654 120.576C161.635 120.578 161.616 120.579 161.598 120.579H161.597ZM154.694 114.582C153.547 114.61 152.405 114.936 151.438 115.551C150.56 116.109 150.049 116.846 150.072 117.521C150.098 118.284 150.871 118.985 151.727 119.022C152.555 119.054 153.419 118.558 153.954 117.752C154.42 117.049 154.669 116.118 154.695 114.983C154.698 114.849 154.698 114.715 154.695 114.581L154.694 114.582Z"
          fill="white"/>
    <path d="M34.4933 158.551C34.4388 158.551 34.3844 158.541 34.3308 158.522C31.6237 157.552 29.5832 154.98 29.2518 152.123C29.1672 151.392 29.1964 150.653 29.3259 149.932C26.6019 147.777 25.1145 144.423 25.6338 141.351C25.9709 139.364 27.2836 137.532 29.1466 136.451C30.7917 135.496 32.5758 135.292 34.1693 135.876C34.4191 135.968 34.5468 136.245 34.4557 136.494C34.3637 136.744 34.0876 136.872 33.8379 136.781C32.5176 136.297 31.0227 136.476 29.6302 137.284C28.0357 138.21 26.8686 139.83 26.5831 141.512C26.1418 144.116 27.3446 146.96 29.5851 148.9C30.1316 147.212 31.2387 145.703 32.7345 144.734C34.7403 143.435 37.8117 143.287 39.2794 145.309C39.8982 146.161 40.0785 147.256 39.7865 148.394C39.4419 149.738 38.4822 150.925 37.2812 151.491C35.375 152.39 32.8613 152.12 30.5551 150.773C30.4368 150.703 30.3203 150.632 30.2048 150.559C30.1513 151.04 30.1504 151.529 30.2067 152.013C30.4959 154.515 32.2838 156.767 34.6539 157.617C34.9036 157.706 35.0342 157.983 34.945 158.233C34.8745 158.43 34.6886 158.553 34.4914 158.553L34.4933 158.551ZM30.3992 149.531C30.6067 149.674 30.8208 149.811 31.0415 149.94C33.0745 151.127 35.2539 151.381 36.8718 150.619C37.8202 150.172 38.5799 149.227 38.855 148.153C39.0738 147.299 38.9489 146.489 38.501 145.873C37.4005 144.357 34.9027 144.477 33.2585 145.541C31.8481 146.454 30.833 147.915 30.3992 149.531Z"
          fill="white"/>
    <path d="M121.341 96.2775C121.225 96.2775 121.108 96.2408 121.007 96.1648C120.764 95.9798 120.716 95.6333 120.9 95.3892C121.698 94.3365 122.9 93.5975 124.2 93.36C125.498 93.1233 126.884 93.39 128.004 94.0924C128.262 94.2549 128.341 94.5966 128.177 94.8558C128.015 95.115 127.673 95.192 127.414 95.0305C126.527 94.4736 125.427 94.2614 124.399 94.4502C123.369 94.638 122.416 95.2248 121.783 96.0587C121.674 96.2024 121.509 96.2784 121.341 96.2784V96.2775Z"
          fill="#A5C5FF"/>
    <path d="M107.043 99.8308C106.961 99.8308 106.877 99.812 106.798 99.7735C106.524 99.6383 106.411 99.3059 106.548 99.0317C107.3 97.5096 108.729 96.3424 110.37 95.9086C112.012 95.4757 113.831 95.7846 115.237 96.7358C115.491 96.9067 115.557 97.2513 115.385 97.5049C115.214 97.7575 114.869 97.8241 114.617 97.6532C113.472 96.8786 111.99 96.626 110.654 96.979C109.317 97.3321 108.153 98.2833 107.54 99.5228C107.443 99.7181 107.248 99.8308 107.043 99.8308Z"
          fill="#A5C5FF"/>
    <path d="M97.3836 106.676C97.2145 106.676 97.0474 106.599 96.9385 106.452C96.5572 105.94 95.9225 105.611 95.283 105.595C94.6276 105.577 93.9937 105.877 93.5881 106.371C93.3947 106.606 93.0444 106.641 92.8087 106.447C92.5721 106.252 92.5383 105.904 92.7327 105.667C93.3599 104.905 94.3046 104.459 95.3102 104.489C96.2971 104.513 97.238 105 97.8277 105.792C98.0099 106.037 97.9592 106.385 97.7141 106.567C97.6146 106.641 97.4991 106.677 97.3845 106.677L97.3836 106.676Z"
          fill="#A5C5FF"/>
    <path d="M116.624 120.792C113.94 120.792 109.339 120.265 105.106 117.22C104.858 117.042 104.8 116.696 104.979 116.447C105.157 116.2 105.503 116.142 105.752 116.321C111.718 120.609 118.684 119.561 118.754 119.55C119.059 119.501 119.339 119.708 119.388 120.009C119.437 120.311 119.231 120.594 118.93 120.643C118.829 120.659 117.966 120.791 116.625 120.791L116.624 120.792Z"
          fill="#A5C5FF"/>
    <path d="M121.467 108.733C121.256 108.733 121.055 108.612 120.962 108.407C120.836 108.128 120.96 107.8 121.239 107.675C121.959 107.35 122.427 106.484 122.305 105.704C122.183 104.923 121.472 104.242 120.688 104.153C120.474 104.129 120.294 103.983 120.225 103.78C119.816 102.558 119.53 101.265 119.378 99.9371C119.343 99.6338 119.561 99.3587 119.865 99.3239C120.172 99.292 120.443 99.507 120.478 99.8103C120.609 100.95 120.844 102.063 121.175 103.12C122.294 103.405 123.22 104.386 123.399 105.533C123.598 106.801 122.866 108.156 121.695 108.684C121.62 108.718 121.544 108.733 121.467 108.733Z"
          fill="#A5C5FF"/>
    <path d="M119.745 112.444C118.45 112.444 117.152 111.922 116.278 110.941C116.075 110.713 116.095 110.362 116.323 110.16C116.551 109.957 116.902 109.976 117.105 110.205C118.167 111.396 120.142 111.691 121.505 110.863C121.765 110.704 122.106 110.787 122.265 111.049C122.424 111.31 122.341 111.651 122.079 111.809C121.373 112.238 120.56 112.445 119.745 112.445V112.444Z"
          fill="#A5C5FF"/>
    <path d="M181.489 132.655C181.409 132.655 181.328 132.638 181.251 132.6C180.975 132.469 180.859 132.138 180.99 131.862L188.861 115.357C188.992 115.081 189.322 114.965 189.599 115.096C189.875 115.228 189.991 115.558 189.86 115.834L181.989 132.339C181.894 132.538 181.696 132.655 181.489 132.655Z"
          fill="#A5C5FF"/>
    <path d="M190.077 133.044C190.003 133.044 189.928 133.029 189.856 132.998C189.576 132.876 189.448 132.549 189.57 132.27L198.657 111.477C198.779 111.197 199.106 111.069 199.386 111.192C199.665 111.314 199.793 111.641 199.671 111.92L190.584 132.713C190.493 132.921 190.29 133.045 190.076 133.045L190.077 133.044Z"
          fill="#A5C5FF"/>
    <path d="M198.312 132.848C198.238 132.848 198.162 132.833 198.089 132.801C197.809 132.678 197.682 132.351 197.805 132.072L204.164 117.607C204.288 117.328 204.612 117.2 204.893 117.324C205.173 117.447 205.301 117.773 205.178 118.053L198.819 132.518C198.728 132.725 198.525 132.848 198.312 132.848Z"
          fill="#A5C5FF"/>
    <path d="M186.796 120.388C186.725 120.388 186.653 120.374 186.582 120.346C185.496 119.893 185.044 118.642 185.079 117.604C185.139 115.808 186.428 114.117 188.145 113.585C188.437 113.494 188.747 113.658 188.838 113.949C188.928 114.241 188.765 114.551 188.473 114.642C187.193 115.039 186.23 116.301 186.186 117.641C186.165 118.277 186.413 119.075 187.009 119.323C187.291 119.441 187.425 119.765 187.306 120.047C187.218 120.259 187.012 120.388 186.796 120.388Z"
          fill="#A5C5FF"/>
    <path d="M196.792 117.014C196.685 117.014 196.578 116.984 196.485 116.92C195.157 116.032 194.479 114.325 194.835 112.769C195.191 111.213 196.544 109.971 198.125 109.749C198.424 109.706 198.707 109.918 198.749 110.22C198.792 110.522 198.58 110.802 198.278 110.845C197.16 111.002 196.165 111.915 195.914 113.016C195.662 114.117 196.161 115.371 197.099 116C197.353 116.169 197.421 116.513 197.252 116.768C197.145 116.927 196.969 117.014 196.791 117.014H196.792Z"
          fill="#A5C5FF"/>
    <path d="M203.943 117.766C203.811 117.766 203.678 117.719 203.572 117.623C202.309 116.48 201.819 114.56 202.38 112.951C202.941 111.344 204.519 110.144 206.219 110.036C206.518 110.014 206.787 110.248 206.806 110.552C206.826 110.857 206.594 111.12 206.29 111.14C205.021 111.222 203.844 112.116 203.426 113.316C203.007 114.516 203.372 115.948 204.314 116.801C204.542 117.006 204.558 117.356 204.354 117.583C204.245 117.704 204.095 117.765 203.943 117.765V117.766Z"
          fill="#A5C5FF"/>
    <path d="M210.395 121.794C210.192 121.794 209.998 121.682 209.9 121.489C209.297 120.29 209.404 118.806 210.171 117.706C210.939 116.606 212.293 115.995 213.629 116.148C213.932 116.182 214.15 116.457 214.116 116.761C214.081 117.065 213.808 117.281 213.502 117.247C212.587 117.142 211.609 117.58 211.08 118.339C210.55 119.099 210.474 120.164 210.89 120.991C211.028 121.264 210.917 121.597 210.645 121.735C210.565 121.775 210.48 121.794 210.396 121.794H210.395Z"
          fill="#A5C5FF"/>
    <path d="M132.567 195.593C132.493 195.593 132.419 195.578 132.346 195.547C132.066 195.425 131.938 195.098 132.06 194.819L148.041 158.123C148.163 157.844 148.49 157.715 148.77 157.837C149.049 157.959 149.178 158.286 149.056 158.566L133.075 195.261C132.984 195.469 132.781 195.593 132.567 195.593Z"
          fill="#A5C5FF"/>
    <path d="M65.8144 195.634C65.7402 195.634 65.6661 195.619 65.5938 195.588C65.3139 195.466 65.1853 195.139 65.3074 194.86L82.0621 156.448C82.1841 156.169 82.5109 156.04 82.7907 156.162C83.0706 156.284 83.1992 156.611 83.0771 156.891L66.3224 195.302C66.2313 195.51 66.0285 195.634 65.8144 195.634Z"
          fill="#A5C5FF"/>
    <path d="M134.012 181.493C133.831 181.493 133.655 181.405 133.548 181.242C133.381 180.987 133.452 180.643 133.707 180.476C137.535 177.969 140.055 173.572 140.283 169.002C140.512 164.432 138.444 159.807 134.885 156.93C134.647 156.738 134.61 156.39 134.802 156.152C134.994 155.914 135.343 155.877 135.581 156.069C139.409 159.164 141.635 164.141 141.39 169.058C141.143 173.974 138.433 178.705 134.314 181.402C134.22 181.463 134.116 181.492 134.012 181.492V181.493Z"
          fill="#A5C5FF"/>
    <path d="M113.037 102.286C113.867 102.286 114.541 101.612 114.541 100.781C114.541 99.9506 113.867 99.2771 113.037 99.2771C112.206 99.2771 111.532 99.9506 111.532 100.781C111.532 101.612 112.206 102.286 113.037 102.286Z"
          fill="#A5C5FF"/>
    <path d="M125.673 99.8269C126.504 99.8269 127.177 99.1534 127.177 98.3227C127.177 97.4919 126.504 96.8184 125.673 96.8184C124.842 96.8184 124.168 97.4919 124.168 98.3227C124.168 99.1534 124.842 99.8269 125.673 99.8269Z"
          fill="#A5C5FF"/>
    <path d="M25.4984 89.8543C26.3292 89.8543 27.0027 89.1808 27.0027 88.35C27.0027 87.5192 26.3292 86.8457 25.4984 86.8457C24.6676 86.8457 23.9941 87.5192 23.9941 88.35C23.9941 89.1808 24.6676 89.8543 25.4984 89.8543Z"
          fill="#A5C5FF"/>
    <path d="M31.2216 89.8543C32.0524 89.8543 32.7259 89.1808 32.7259 88.35C32.7259 87.5192 32.0524 86.8457 31.2216 86.8457C30.3908 86.8457 29.7173 87.5192 29.7173 88.35C29.7173 89.1808 30.3908 89.8543 31.2216 89.8543Z"
          fill="#A5C5FF"/>
    <path d="M36.8329 89.8543C37.6637 89.8543 38.3372 89.1808 38.3372 88.35C38.3372 87.5192 37.6637 86.8457 36.8329 86.8457C36.0021 86.8457 35.3286 87.5192 35.3286 88.35C35.3286 89.1808 36.0021 89.8543 36.8329 89.8543Z"
          fill="#A5C5FF"/>
    <g clip-path="url(#clip0_658_215754)">
        <path d="M186.638 90.7341C188.258 95.1358 186.02 100.019 181.641 101.641C177.261 103.263 172.399 101.01 170.78 96.6084C169.161 92.2067 171.398 87.3237 175.778 85.7014C180.157 84.0791 185.019 86.3323 186.638 90.7341Z"
              fill="#D8E6FF"/>
        <path d="M197.514 84.9195C194.392 82.8001 194.444 86.4696 188.751 71.058C183.059 55.6464 166.922 61.6307 166.922 61.6307C166.922 61.6307 150.781 67.6039 156.434 83.0305C162.086 98.4571 159.749 95.633 158.749 99.2806C157.748 102.927 173.943 97.7701 179.465 95.7242C184.986 93.6793 200.635 87.039 197.514 84.9195Z"
              fill="#A5C5FF"/>
        <path d="M169.558 61.9154C169.959 63.0068 169.404 64.2175 168.319 64.6204L167.827 64.8021C166.741 65.2041 165.535 64.6456 165.134 63.5543L164.297 61.2809C163.896 60.1896 164.451 58.9788 165.537 58.576L166.028 58.3942C167.114 57.9923 168.32 58.5507 168.721 59.6421L169.558 61.9154Z"
              fill="#A5C5FF"/>
        <mask id="mask0_658_215754" style="mask-type:luminance" maskUnits="userSpaceOnUse" x="155" y="60" width="43" height="41">
            <path d="M197.514 84.9195C194.392 82.8001 194.444 86.4696 188.751 71.058C183.059 55.6464 166.922 61.6307 166.922 61.6307C166.922 61.6307 150.781 67.6039 156.434 83.0305C162.086 98.4571 159.749 95.633 158.749 99.2806C157.748 102.927 173.943 97.7701 179.465 95.7242C184.986 93.6793 200.635 87.039 197.514 84.9195Z"
                  fill="white"/>
        </mask>
        <g mask="url(#mask0_658_215754)">
            <path d="M177.357 89.9927C174.246 91.1446 169.143 92.8261 164.753 93.9857C156.496 96.1654 153.949 95.7525 152.517 94.3793C151.579 93.4805 151.264 92.1649 151.675 90.8598C152.111 89.4733 153.583 88.7066 154.963 89.145C155.576 89.3401 156.067 89.7408 156.387 90.2469C157.456 90.1988 159.772 89.8996 164.428 88.6186C168.677 87.4501 173.068 85.9665 175.539 85.0515C178.009 84.1364 182.308 82.4003 186.293 80.5183C190.662 78.4556 192.616 77.1726 193.46 76.512C193.375 75.9193 193.49 75.2941 193.829 74.7457C194.593 73.5122 196.209 73.1354 197.438 73.9043C198.595 74.6286 199.208 75.8341 199.077 77.1282C198.876 79.1057 197.208 81.0802 189.521 84.8075C185.434 86.7891 180.466 88.839 177.356 89.9909L177.357 89.9927Z"
                  fill="#D8E6FF"/>
        </g>
        <path d="M181.297 64.9776C181.9 66.615 181.067 68.4316 179.438 69.0345C177.809 69.6375 176 68.8002 175.398 67.1627C174.795 65.5253 175.628 63.7086 177.257 63.1057C178.886 62.5018 180.695 63.3401 181.297 64.9776Z"
              fill="#D8E6FF"/>
    </g>
    <defs>
        <clipPath id="clip0_658_215754">
            <rect width="49" height="45" fill="white" transform="translate(148.034 60.2856) rotate(-6.19967)"/>
        </clipPath>
    </defs>
</svg>
