<svg width="240" height="240" viewBox="0 0 240 240" fill="none" xmlns="http://www.w3.org/2000/svg">
    <g id="Frame 26086594">
        <g id="Group">
            <path id="Vector"
                  d="M201.373 75.4242V155.449C201.373 159.748 197.888 163.233 193.589 163.233H74.0886C69.7893 163.233 66.3047 159.748 66.3047 155.449V75.4242C66.3047 74.6491 66.419 73.8958 66.6351 73.1863C67.5951 69.9799 70.5686 67.6445 74.0886 67.6445H193.59C197.11 67.6445 200.082 69.9791 201.048 73.1863C201.259 73.8958 201.374 74.6491 201.374 75.4242H201.373Z"
                  fill="#F0F0F1"/>
            <path id="Vector_2" d="M83.0889 140.156H40.8018V182.443H83.0889V140.156Z" fill="#A5C5FF"/>
            <path id="Vector_3" d="M171.938 117.323H133.817V78.7871C154.911 79.0124 171.938 96.1741 171.938 117.323Z" fill="#A5C5FF"/>
            <path id="Vector_4"
                  d="M164.893 120.849C164.893 140.189 149.217 155.865 129.873 155.865C110.528 155.865 94.8564 140.189 94.8564 120.849C94.8564 110.512 99.3381 101.219 106.466 94.8108C112.667 89.2287 120.874 85.834 129.873 85.834C130.003 85.834 130.132 85.834 130.258 85.8382V120.85H164.892L164.893 120.849Z"
                  fill="#BED5FF"/>
            <path id="Vector_5"
                  d="M206.431 158.705L219.518 188.76H171.953L165.828 176.361C164.33 173.328 162.119 170.673 159.299 168.803C155.75 166.451 152.864 163.055 150.573 159.424C147.52 154.581 145.355 149.24 142.689 144.174C140.022 139.109 136.731 134.189 132.209 130.575C130.978 129.405 129.935 127.969 129.544 126.318C129.151 124.666 129.499 122.779 130.705 121.585C131.794 120.507 133.403 120.125 134.935 120.094C138.185 120.028 141.343 121.339 144.009 123.198C146.676 125.057 152.121 132.897 157.262 135.051C158.902 135.737 160.762 135.812 162.619 135.569C164.188 135.364 165.6 134.506 166.485 133.195C172.659 124.046 173.529 111.464 168.474 101.289C167.458 98.6297 167.542 95.4292 169.693 93.2468C170.397 92.5314 171.3 92.0202 172.286 91.8277C175.512 91.1964 177.906 93.8151 179.571 96.3531C181.593 99.4367 183.23 102.773 184.049 106.327C188.116 106.662 191.945 109.136 193.972 113.298C196.333 113.392 198.652 114.338 200.406 115.922C202.16 117.506 203.336 119.717 203.873 122.664C205.879 123.35 207.397 125.093 208.227 127.043C209.058 128.994 209.28 131.148 209.345 133.267C209.593 141.388 207.687 149.404 206.43 158.706L206.431 158.705Z"
                  fill="#D8E6FF"/>
            <path id="Vector_6"
                  d="M30.5102 119.3L30.8389 103.426L34.8902 114.265L44.6337 106.929L39.4879 114.921L45.8384 118.315L41.0204 119.41L42.4437 131.234L37.846 122.366L30.9482 135.723L33.4669 124.993L20 127.293L30.5102 119.3Z"
                  fill="#F0F0F1"/>
            <path id="Vector_7"
                  d="M117.375 176.633L123.414 171.936L122.475 162.408L126.366 168.85L131.734 165.092L130.66 168.983L141.664 169.386L130.526 172.875L134.82 182.806L127.171 174.485L117.375 176.633Z"
                  fill="#F0F0F1"/>
            <path id="Vector_8"
                  d="M135.941 134.27C135.664 134.27 135.406 134.095 135.314 133.818C135.199 133.471 135.386 133.097 135.732 132.982C137.289 132.464 138.443 130.713 138.417 128.909C138.393 127.222 137.419 125.457 135.875 124.301C134.512 123.28 132.677 122.655 130.571 122.491C130.207 122.462 129.935 122.145 129.963 121.782C129.991 121.418 130.311 121.147 130.672 121.174C133.03 121.357 135.102 122.072 136.666 123.243C138.56 124.66 139.708 126.771 139.738 128.89C139.771 131.284 138.262 133.533 136.148 134.236C136.079 134.259 136.008 134.27 135.939 134.27H135.941Z"
                  fill="#A5C5FF"/>
            <path id="Vector_9"
                  d="M178.548 100.36C176.941 100.36 175.333 99.7792 174.144 98.6821C172.266 96.9503 171.587 94.0726 172.492 91.6851C172.621 91.3438 173.001 91.1714 173.343 91.3009C173.685 91.4303 173.856 91.812 173.727 92.1525C173.02 94.0188 173.572 96.3567 175.04 97.7102C176.508 99.0637 178.881 99.4252 180.685 98.5703C181.015 98.4147 181.409 98.5543 181.565 98.8838C181.722 99.2134 181.581 99.6077 181.252 99.764C180.406 100.165 179.478 100.359 178.549 100.359L178.548 100.36Z"
                  fill="#A5C5FF"/>
            <path id="Vector_10"
                  d="M184.45 128.107C184.41 128.107 184.369 128.104 184.329 128.096C183.97 128.03 183.733 127.685 183.799 127.326C185.085 120.382 184.951 113.068 183.413 106.174C183.333 105.818 183.557 105.465 183.914 105.386C184.27 105.304 184.622 105.53 184.702 105.887C186.279 112.952 186.416 120.448 185.098 127.566C185.039 127.884 184.762 128.107 184.449 128.107H184.45Z"
                  fill="#A5C5FF"/>
            <path id="Vector_11"
                  d="M193.779 131.572C193.731 131.572 193.682 131.567 193.632 131.555C193.277 131.474 193.054 131.121 193.135 130.764C194.435 125.049 194.443 119.005 193.157 113.286C193.077 112.93 193.3 112.577 193.656 112.497C194.013 112.416 194.365 112.641 194.445 112.996C195.774 118.906 195.766 125.152 194.423 131.057C194.353 131.364 194.08 131.572 193.779 131.572H193.779Z"
                  fill="#A5C5FF"/>
            <path id="Vector_12"
                  d="M202.959 133.646C202.904 133.646 202.848 133.639 202.792 133.625C202.439 133.533 202.228 133.172 202.319 132.819C203.2 129.421 203.442 125.783 203.015 122.297C202.971 121.935 203.229 121.605 203.591 121.562C203.953 121.517 204.283 121.775 204.327 122.138C204.773 125.785 204.521 129.594 203.598 133.151C203.521 133.449 203.252 133.646 202.959 133.646V133.646Z"
                  fill="#A5C5FF"/>
            <path id="Vector_13" d="M129.872 85.834C130.002 85.834 130.132 85.834 130.257 85.8382V120.72L106.466 94.8108C112.667 89.2287 120.873 85.834 129.872 85.834Z" fill="white"/>
            <g id="Group_2">
                <path id="Vector_14"
                      d="M75.4484 175.346C75.2231 175.346 74.9978 175.26 74.8255 175.088L47.8194 148.082C47.4756 147.738 47.4756 147.18 47.8194 146.836C48.1632 146.492 48.7215 146.492 49.0653 146.836L76.0714 173.842C76.4152 174.186 76.4152 174.744 76.0714 175.088C75.899 175.259 75.6737 175.346 75.4484 175.346Z"
                      fill="white"/>
                <path id="Vector_15"
                      d="M48.4423 175.346C48.217 175.346 47.9917 175.26 47.8194 175.088C47.4756 174.744 47.4756 174.186 47.8194 173.842L74.8255 146.836C75.1693 146.492 75.7275 146.492 76.0714 146.836C76.4152 147.18 76.4152 147.738 76.0714 148.082L49.0653 175.088C48.893 175.259 48.6677 175.346 48.4423 175.346Z"
                      fill="white"/>
            </g>
            <path id="Vector_16"
                  d="M201.373 75.4242V76.6617H66.3047V75.4242C66.3047 74.6491 66.419 73.8958 66.6351 73.1863C67.5951 69.9799 70.5686 67.6445 74.0886 67.6445H193.59C197.11 67.6445 200.082 69.9791 201.048 73.1863C201.259 73.8958 201.374 74.6491 201.374 75.4242H201.373Z"
                  fill="#D8E6FF"/>
            <path id="Vector_17"
                  d="M75.011 74.9069C76.5316 74.9069 77.7643 73.6742 77.7643 72.1536C77.7643 70.6331 76.5316 69.4004 75.011 69.4004C73.4905 69.4004 72.2578 70.6331 72.2578 72.1536C72.2578 73.6742 73.4905 74.9069 75.011 74.9069Z"
                  fill="#A5C5FF"/>
            <path id="Vector_18"
                  d="M84.1614 74.9069C85.682 74.9069 86.9147 73.6742 86.9147 72.1536C86.9147 70.6331 85.682 69.4004 84.1614 69.4004C82.6409 69.4004 81.4082 70.6331 81.4082 72.1536C81.4082 73.6742 82.6409 74.9069 84.1614 74.9069Z"
                  fill="#A5C5FF"/>
            <path id="Vector_19"
                  d="M93.4954 74.9069C95.016 74.9069 96.2487 73.6742 96.2487 72.1536C96.2487 70.6331 95.016 69.4004 93.4954 69.4004C91.9749 69.4004 90.7422 70.6331 90.7422 72.1536C90.7422 73.6742 91.9749 74.9069 93.4954 74.9069Z"
                  fill="#A5C5FF"/>
            <path id="Vector_20"
                  d="M47.6561 107.571C47.3795 107.571 47.1408 107.363 47.1097 107.081C46.844 104.699 46.6263 102.165 47.1214 99.6732C47.5098 97.717 48.3463 95.9902 49.5006 94.6998C49.2013 91.8776 50.1277 88.8226 52.1689 86.5721C54.8893 83.5717 59.2491 82.0383 63.8333 82.4704C64.136 82.4989 64.3588 82.7671 64.3302 83.0706C64.3016 83.3733 64.0309 83.5935 63.7299 83.5675C59.5568 83.1732 55.4366 84.6082 52.9852 87.3127C51.3593 89.105 50.5203 91.4615 50.5396 93.7254C50.7263 93.58 50.9179 93.4446 51.1155 93.3194C53.4862 91.8171 56.6758 91.9827 58.5345 93.7052C59.5635 94.6586 60.1234 96.1861 59.9965 97.6909C59.8821 99.0478 59.2315 100.209 58.2117 100.876C55.7762 102.47 52.4497 100.991 50.87 98.6098C50.3673 97.8515 49.9999 97.0133 49.7645 96.1323C49.0264 97.1764 48.485 98.461 48.2017 99.8885C47.7376 102.226 47.9487 104.664 48.2051 106.96C48.2387 107.262 48.021 107.534 47.7192 107.569C47.6981 107.571 47.678 107.572 47.6578 107.572L47.6561 107.571ZM50.6565 95.0806C50.833 96.1281 51.2071 97.1251 51.7881 98.0003C53.0482 99.9011 55.7493 101.17 57.6089 99.954C58.3437 99.4732 58.8136 98.6148 58.8994 97.5976C58.9986 96.4223 58.5715 95.2395 57.7863 94.5115C56.2815 93.1176 53.6678 93.0041 51.7048 94.2475C51.3341 94.4829 50.9835 94.762 50.6573 95.0798L50.6565 95.0806Z"
                  fill="#D8E6FF"/>
            <path id="Vector_21"
                  d="M219.01 125.246C218.95 125.246 218.888 125.236 218.829 125.215C218.542 125.115 218.391 124.8 218.491 124.514C219.176 122.554 218.996 120.251 217.997 118.196C217.541 117.257 216.939 116.42 216.232 115.725C216.056 116.042 215.857 116.345 215.634 116.631C214.673 117.865 212.951 119.086 210.994 118.81C209.99 118.667 209.023 118.014 208.469 117.105C207.986 116.313 207.873 115.439 208.149 114.647C208.861 112.615 211.581 112.139 213.691 112.862C214.435 113.116 215.144 113.482 215.801 113.941C216.433 111.897 216.138 109.476 214.903 107.556C213.353 105.147 210.407 103.502 207.215 103.262C206.912 103.239 206.685 102.975 206.708 102.672C206.73 102.368 206.994 102.139 207.298 102.164C210.828 102.429 214.096 104.267 215.83 106.96C217.319 109.274 217.605 112.235 216.714 114.668C217.636 115.503 218.416 116.539 218.987 117.716C220.113 120.034 220.311 122.644 219.53 124.878C219.451 125.105 219.237 125.247 219.01 125.247V125.246ZM211.755 113.648C210.64 113.648 209.535 114.027 209.191 115.01C209.025 115.485 209.103 116.025 209.411 116.531C209.798 117.166 210.464 117.621 211.15 117.717C212.376 117.89 213.797 117.199 214.766 115.954C215 115.654 215.204 115.33 215.378 114.989C214.749 114.52 214.06 114.15 213.336 113.902C212.869 113.741 212.311 113.647 211.755 113.647V113.648Z"
                  fill="#D8E6FF"/>
            <g id="Group_3">
                <path id="Vector_22"
                      d="M184.847 78.5621C189.877 73.5324 189.877 65.3777 184.847 60.3481C179.818 55.3184 171.663 55.3184 166.633 60.3481C161.604 65.3777 161.604 73.5324 166.633 78.5621C171.663 83.5917 179.818 83.5917 184.847 78.5621Z"
                      fill="#A5C5FF"/>
                <g id="Group_4">
                    <path id="Vector_23"
                          d="M174.135 72.3403L172.918 63.9873C172.667 62.2664 174.002 60.7246 175.74 60.7246C177.502 60.7246 178.842 62.3059 178.553 64.0445L177.173 72.347C177.096 73.128 176.439 73.7241 175.654 73.7241C174.867 73.7241 174.208 73.1255 174.134 72.342L174.135 72.3403Z"
                          fill="white"/>
                    <path id="Vector_24"
                          d="M175.672 78.5097C176.646 78.5097 177.436 77.7196 177.436 76.7451C177.436 75.7705 176.646 74.9805 175.672 74.9805C174.697 74.9805 173.907 75.7705 173.907 76.7451C173.907 77.7196 174.697 78.5097 175.672 78.5097Z"
                          fill="white"/>
                </g>
            </g>
        </g>
    </g>
</svg>
