<svg width="240" height="268" viewBox="0 0 240 268" fill="none" xmlns="http://www.w3.org/2000/svg">
    <path d="M48.6656 253.08V255.656C48.6656 258.184 50.2976 260.792 52.3136 261.8L51.4976 262.84C49.9776 262.024 48.6816 260.344 48.0256 258.376C47.4016 260.472 46.0736 262.264 44.4576 263.128L43.6736 262.072C45.7376 261.016 47.3696 258.264 47.3696 255.656V253.08H48.6656ZM57.2576 257.656V258.744H54.8896V266.184H53.5776V251.848H54.8896V257.656H57.2576ZM64.6483 265.16C66.8883 265.16 68.2323 264.6 68.2323 263.624C68.2323 262.648 66.8883 262.088 64.6483 262.088C62.3923 262.088 61.0643 262.648 61.0643 263.624C61.0643 264.6 62.3923 265.16 64.6483 265.16ZM64.6483 261.064C67.7363 261.064 69.5603 261.976 69.5603 263.624C69.5603 265.272 67.7363 266.168 64.6483 266.168C61.5763 266.168 59.7363 265.272 59.7363 263.624C59.7363 261.976 61.5763 261.064 64.6483 261.064ZM62.6643 257.256V258.936H66.6483V257.256C66.0563 257.352 65.3843 257.416 64.6483 257.416C63.9283 257.416 63.2563 257.352 62.6643 257.256ZM60.9523 254.76C60.9523 255.784 62.3603 256.408 64.6483 256.408C66.9363 256.408 68.3443 255.784 68.3443 254.76C68.3443 253.72 66.9363 253.112 64.6483 253.112C62.3603 253.112 60.9523 253.72 60.9523 254.76ZM67.9443 258.936H71.1443V259.992H58.1523V258.936H61.3683V256.92C60.2323 256.456 59.6083 255.736 59.6083 254.76C59.6083 253.08 61.5443 252.088 64.6483 252.088C67.7683 252.088 69.6883 253.08 69.6883 254.76C69.6883 255.72 69.0483 256.456 67.9443 256.904V258.936ZM77.3191 254.392V256.216C77.3191 258.504 78.9511 261.048 81.0311 262.024L80.2791 263.08C78.6791 262.28 77.3351 260.6 76.6791 258.68C76.0231 260.776 74.6311 262.6 73.0151 263.432L72.2471 262.392C74.2951 261.368 76.0231 258.648 76.0231 256.216V254.392H72.7431V253.304H80.5031V254.392H77.3191ZM85.8951 257.624V258.728H83.5271V266.184H82.2151V251.848H83.5271V257.624H85.8951ZM97.6479 255.56H100.48V251.848H101.808V260.392H100.48V256.632H97.6479V255.56ZM98.4479 258.824L97.7919 259.848C96.1919 259.272 94.9599 258.088 94.3359 256.616C93.7279 258.28 92.3999 259.624 90.7199 260.264L90.0319 259.224C92.1759 258.44 93.6479 256.504 93.6479 254.44V253.944H90.4479V252.888H98.1119V253.944H94.9599V254.44C94.9599 256.28 96.3679 258.088 98.4479 258.824ZM97.0719 265.16C99.2319 265.16 100.544 264.552 100.544 263.512C100.544 262.472 99.2319 261.848 97.0719 261.848C94.9119 261.848 93.5999 262.472 93.5999 263.512C93.5999 264.552 94.9119 265.16 97.0719 265.16ZM97.0719 260.84C100.016 260.84 101.84 261.816 101.84 263.512C101.84 265.208 100.016 266.184 97.0719 266.184C94.1279 266.184 92.2879 265.208 92.2879 263.512C92.2879 261.816 94.1279 260.84 97.0719 260.84ZM107.135 256.488V259.128H114.463V256.488H107.135ZM111.455 263.272H117.311V264.344H104.303V263.272H110.127V260.184H105.839V252.856H107.135V255.416H114.463V252.856H115.743V260.184H111.455V263.272ZM119.389 253.368H125.949C125.949 257.448 124.077 261.144 119.437 263.464L118.717 262.44C122.381 260.6 124.349 257.848 124.653 254.456H119.389V253.368ZM131.965 257.656V258.744H129.661V266.184H128.349V251.832H129.661V257.656H131.965ZM141.51 264.968V263.032H138.982V264.968H141.51ZM141.51 262.056V260.248H142.726V265.992H137.75V260.248H138.982V262.056H141.51ZM140.038 257.992C141.462 257.992 142.486 257.064 142.486 255.768C142.486 254.472 141.462 253.56 140.038 253.56C138.614 253.56 137.59 254.472 137.59 255.768C137.59 257.064 138.614 257.992 140.038 257.992ZM146.614 256.28H143.686C143.446 257.96 142.006 259.08 140.038 259.08C137.894 259.08 136.342 257.736 136.342 255.768C136.342 253.8 137.894 252.472 140.038 252.472C141.974 252.472 143.414 253.56 143.686 255.208H146.614V251.848H147.942V259.432H146.614V256.28ZM146.79 260.152V261.368C146.79 262.888 147.686 264.456 149.398 265.128L148.742 266.12C147.446 265.576 146.582 264.6 146.15 263.416C145.686 264.584 144.822 265.576 143.574 266.12L142.902 265.128C144.614 264.392 145.51 262.84 145.51 261.368V260.152H146.79ZM162.677 256.312L162.197 257.368C159.973 257.016 157.845 255.896 156.933 254.296C156.037 255.896 153.893 257.016 151.653 257.368L151.173 256.312C153.749 255.992 156.261 254.456 156.261 252.632V251.992H157.605V252.632C157.605 254.408 160.133 255.992 162.677 256.312ZM160.421 264.936V263.112H153.365V264.936H160.421ZM160.421 262.104V260.424H161.717V265.992H152.069V260.424H153.365V262.104H160.421ZM150.421 258.376H163.413V259.432H150.421V258.376ZM166.964 253.224V261.352C169.124 261.352 171.348 261.16 173.732 260.68L173.876 261.8C171.38 262.312 169.124 262.472 166.836 262.472H165.652V253.224H166.964ZM175.204 251.832H176.516V266.168H175.204V251.832ZM180.995 254.296V261.512C183.539 261.512 185.379 261.4 187.459 261.032L187.603 262.12C185.411 262.536 183.523 262.632 180.819 262.632H179.683V253.208H186.355V254.296H180.995ZM192.483 257.496V258.584H190.115V266.216H188.803V251.832H190.115V257.496H192.483ZM194.769 265.208C194.193 265.208 193.713 264.76 193.713 264.104C193.713 263.448 194.193 262.968 194.769 262.968C195.345 262.968 195.825 263.448 195.825 264.104C195.825 264.76 195.345 265.208 194.769 265.208Z"
          fill="#AAAAAA"/>
    <path d="M120.682 84.6753L125.964 67.5232L124.8 83.0065L138.877 81.4525L127.211 87.9008L132.081 94.8958L124.866 92.3246L121.435 102.103L120.094 91.9965L107.184 89.9408L115.985 87.3595L114.46 82.5204L120.682 84.6753Z"
          fill="#D8E6FF"/>
    <path d="M93.1416 136.403L92.5415 194.229H219.229C219.229 194.229 219.229 171.673 219.242 153.274C219.256 134.367 200.956 120.773 182.898 126.373C181.783 126.719 180.68 127.109 179.595 127.54C179.595 127.54 157.48 127.986 157.328 127.993C153.255 124.462 147.944 122.389 142.555 122.229C137.167 122.069 131.741 123.822 127.466 127.106L93.1407 136.403H93.1416Z"
          fill="#D8E6FF"/>
    <path d="M150.982 95.2698C147.592 94.0632 145.396 90.1798 146.108 86.6529C146.82 83.1259 150.352 80.3994 154.119 80.6816C154.463 78.8602 155.806 77.2603 157.541 76.6069C159.276 75.9536 161.341 76.2697 163.403 77.3182C167.224 75.0181 172.205 75.2772 176.257 77.139C180.309 79.0008 183.552 82.2732 186.615 85.9848C189.417 87.7023 190.848 91.1722 190.667 94.4538C190.485 97.7344 188.887 100.81 186.768 103.322C184.649 105.833 182.02 107.855 179.414 109.856L150.982 95.2707V95.2698Z"
          fill="#A5C5FF"/>
    <path d="M93.1416 136.403C93.1416 136.403 93.1416 109.813 93.8997 109.499C93.7748 107.957 93.8703 106.361 94.4989 104.944C95.1274 103.528 96.357 102.314 97.8861 101.983C99.4143 101.653 101.192 102.382 102.011 103.491C102.606 102.018 104.005 100.891 105.585 100.614C107.165 100.338 108.87 100.92 110.176 101.799C111.436 100.21 113.867 99.666 115.697 100.562C117.527 101.458 118.561 103.7 118.242 105.367C118.46 100.495 118.679 95.6218 118.898 90.7495C118.947 89.6679 119.002 88.5578 119.444 87.5681C119.886 86.5775 120.808 85.7201 121.902 85.6751C122.981 85.6301 123.963 86.3864 124.494 87.3163C125.024 88.2463 125.191 89.3297 125.345 90.3875C126.423 97.7785 127.361 105.19 128.159 112.616V136.485L93.1425 136.402L93.1416 136.403Z"
          fill="#EBF2FF"/>
    <path d="M159.127 116.596L159.036 128.102L178.469 127.728L178.578 111.22C187.894 117.562 193.462 100.887 181.202 101.731C177.627 98.8362 176.951 93.5578 179.057 89.5696C175.45 90.5106 171.4 89.5301 168.623 87.0443C168.117 86.5913 167.601 86.0675 166.929 85.9728C166.22 85.8736 165.553 86.2807 164.922 86.6207C161.31 88.5716 158.179 89.6091 154.588 88.1268C147.688 97.1206 147.168 113.377 159.127 116.595V116.596Z"
          fill="#EBF2FF"/>
    <path d="M190.665 58.2795L196.893 62.4772L194.388 70.7367L199.601 64.8472L203.731 69.5182L203.595 65.7946L215.511 66.4719L204.407 62.2061L206.168 56.6548L201.023 61.868L190.665 58.2795Z"
          fill="#D8E6FF"/>
    <path d="M217.002 118.248C216.85 118.248 216.699 118.188 216.588 118.07C216.371 117.841 216.381 117.48 216.609 117.264C218.425 115.543 219.241 112.854 218.69 110.414C218.346 108.89 217.478 107.509 216.297 106.497C216.133 106.888 215.94 107.267 215.715 107.628C214.785 109.125 213.508 110.096 212.119 110.363C210.375 110.698 208.566 109.728 208.086 108.198C207.632 106.752 208.438 105.004 209.921 104.219C211.111 103.589 212.637 103.525 214.22 104.039C214.724 104.204 215.21 104.419 215.672 104.677C216.191 102.162 215.46 99.3582 213.633 97.546C211.201 95.1375 207.033 94.6872 204.144 96.5205C203.878 96.6896 203.525 96.6105 203.356 96.344C203.187 96.0775 203.266 95.7256 203.533 95.5565C206.853 93.4494 211.641 93.9667 214.435 96.7346C216.637 98.9162 217.453 102.351 216.683 105.344C218.229 106.533 219.371 108.251 219.803 110.162C220.441 112.986 219.496 116.099 217.395 118.09C217.285 118.195 217.143 118.246 217.002 118.246L217.002 118.248ZM212.147 104.836C211.595 104.836 211.005 104.936 210.454 105.228C209.458 105.755 208.884 106.934 209.173 107.858C209.512 108.936 210.857 109.445 211.902 109.244C213.35 108.966 214.304 107.735 214.745 107.027C214.984 106.641 215.184 106.232 215.344 105.808C214.88 105.525 214.384 105.295 213.865 105.125C213.453 104.991 212.829 104.837 212.146 104.837L212.147 104.836Z"
          fill="#A5C5FF"/>
    <path d="M164.467 64.9437C163.563 64.9437 162.606 64.69 161.681 64.1966C159.332 62.9431 157.729 60.3618 157.428 57.6059C156.626 57.6583 155.865 57.7823 155.137 57.9781C152.301 58.7417 150.08 60.7018 149.34 63.0929C149.247 63.3943 148.927 63.5625 148.627 63.4697C148.325 63.3769 148.157 63.0571 148.25 62.7566C149.105 59.9942 151.63 57.741 154.841 56.8772C155.649 56.6594 156.495 56.5224 157.38 56.4664C157.388 56.1365 157.415 55.8066 157.463 55.4785C157.932 52.2383 160.292 49.2159 163.476 47.7787C166.414 46.4508 169.991 46.3938 173.286 47.6215C173.581 47.7318 173.731 48.0599 173.621 48.3549C173.512 48.6498 173.184 48.7996 172.888 48.6903C169.872 47.5673 166.613 47.6133 163.946 48.818C161.109 50.099 159.007 52.7777 158.592 55.6421C158.553 55.9077 158.53 56.1732 158.521 56.4388C160.103 56.46 161.812 56.7209 163.674 57.2218C164.724 57.5039 165.822 57.8632 166.737 58.5745C167.797 59.3978 168.403 60.62 168.316 61.7632C168.211 63.1572 167.096 64.4061 165.605 64.8003C165.241 64.8968 164.86 64.9437 164.468 64.9437H164.467ZM158.57 57.5802C158.852 59.9345 160.221 62.1243 162.217 63.1903C163.288 63.7619 164.387 63.942 165.312 63.6976C166.325 63.4302 167.11 62.5801 167.178 61.6768C167.236 60.9104 166.798 60.0668 166.037 59.4759C165.282 58.8887 164.312 58.5754 163.378 58.3236C161.634 57.854 160.039 57.6068 158.571 57.5811L158.57 57.5802Z"
          fill="#A5C5FF"/>
    <path d="M23.2044 117.983L20.5339 108.123L25.362 113.483L28.8844 107.858L28.5692 113.536L38.1905 112.011L28.0435 117.111L29.3052 124.84L26.0981 119.792L20 125.207L23.2044 117.983Z"
          fill="#D8E6FF"/>
    <path d="M71.565 97.784C71.3178 97.784 71.0862 97.6388 70.9842 97.4027L67.5859 89.5852L60.9897 94.2369C60.7499 94.4069 60.4237 94.3885 60.2031 94.1928C59.9835 93.9971 59.9265 93.6763 60.0671 93.4172L64.638 84.9794L58.2789 79.8398C58.0436 79.6496 57.9756 79.3197 58.1162 79.0522C58.2568 78.7848 58.5665 78.6543 58.8569 78.7389L67.6852 81.3349L69.2841 75.1091C69.3604 74.8113 69.6389 74.6073 69.9458 74.6349C70.2518 74.6579 70.4981 74.8977 70.5284 75.2037L71.4979 84.8949L76.6467 85.4858C76.9289 85.5179 77.1549 85.7339 77.1999 86.0142C77.2459 86.2945 77.0998 86.5701 76.8425 86.6896L71.6716 89.1028L72.199 97.1077C72.2193 97.4146 72.0153 97.6931 71.7157 97.7657C71.6661 97.7776 71.6155 97.7831 71.5659 97.7831L71.565 97.784ZM67.8561 87.9862C67.9131 87.9862 67.971 87.9936 68.027 88.0101C68.2108 88.0616 68.3615 88.193 68.4369 88.3676L70.692 93.555L70.3759 88.7554C70.3584 88.4944 70.5036 88.25 70.7398 88.1397L74.2713 86.4911L70.8427 86.0978C70.5468 86.0638 70.3143 85.8276 70.284 85.5308L69.6196 78.8878L68.7466 82.2869C68.7034 82.4533 68.5949 82.5957 68.4461 82.6802C68.2972 82.7657 68.1189 82.7859 67.9544 82.7372L61.5457 80.8525L65.8427 84.3252C66.0798 84.5172 66.1469 84.8517 66.0017 85.12L62.4683 91.6418L67.4894 88.1011C67.5979 88.0248 67.7256 87.9853 67.8543 87.9853L67.8561 87.9862Z"
          fill="#A5C5FF"/>
    <path d="M45.4392 170.991C45.181 170.991 44.9467 170.834 44.8502 170.59L43.2696 166.597L34.943 170.358C34.6738 170.48 34.3568 170.399 34.1776 170.165C33.9984 169.93 34.0057 169.602 34.1941 169.375L39.8419 162.581L35.6819 160.383C35.4154 160.242 35.2849 159.933 35.3694 159.645C35.454 159.355 35.7333 159.159 36.0302 159.191L40.9814 159.599L43.5821 150.682C43.6684 150.386 43.9551 150.196 44.2612 150.23C44.5672 150.265 44.8043 150.514 44.8226 150.822L45.2564 158.11L52.5703 156.108C52.8625 156.027 53.1685 156.165 53.3045 156.435C53.4396 156.705 53.3661 157.033 53.1271 157.219L48.0435 161.182L54.036 166.823C54.2565 167.03 54.2997 167.366 54.1371 167.623C53.9753 167.879 53.6537 167.986 53.3716 167.876L47.1485 165.455L46.0568 170.493C45.998 170.766 45.7673 170.967 45.4889 170.99C45.4714 170.992 45.454 170.992 45.4374 170.992L45.4392 170.991ZM43.6142 165.113C43.6951 165.113 43.776 165.129 43.8522 165.159C44.013 165.225 44.1399 165.352 44.2033 165.514L45.261 168.186L46.0678 164.461C46.1073 164.28 46.224 164.125 46.3876 164.037C46.5503 163.949 46.7451 163.937 46.9169 164.005L50.7958 165.514L46.6376 161.6C46.5025 161.473 46.4299 161.294 46.4391 161.11C46.4473 160.925 46.5365 160.753 46.6826 160.639L49.8511 158.169L44.8383 159.541C44.6535 159.591 44.4569 159.556 44.3016 159.444C44.1463 159.333 44.0498 159.158 44.0388 158.967L43.776 154.55L42.0539 160.453C41.9693 160.743 41.6899 160.934 41.3931 160.907L39.0121 160.711L41.1248 161.827C41.2939 161.917 41.4133 162.077 41.4501 162.265C41.4869 162.452 41.4382 162.646 41.3159 162.793L36.9261 168.074L43.3523 165.172C43.435 165.134 43.5242 165.116 43.6133 165.116L43.6142 165.113Z"
          fill="#A5C5FF"/>
    <path d="M105.93 81.4672C116.164 81.4672 124.46 73.1708 124.46 62.9367C124.46 52.7026 116.164 44.4062 105.93 44.4062C95.6958 44.4062 87.3994 52.7026 87.3994 62.9367C87.3994 73.1708 95.6958 81.4672 105.93 81.4672Z"
          fill="#A5C5FF"/>
    <path d="M103.62 67.0894L101.869 55.0705C101.508 52.5949 103.428 50.3756 105.93 50.3756C108.464 50.3756 110.393 52.651 109.978 55.1514L107.992 67.0968C107.882 68.2206 106.936 69.078 105.807 69.078C104.674 69.078 103.727 68.217 103.62 67.0894Z"
          fill="white"/>
    <path d="M103.292 73.4265C103.292 72.0242 104.428 70.8883 105.83 70.8883C107.231 70.8883 108.368 72.0251 108.368 73.4265C108.368 74.8279 107.231 75.9646 105.83 75.9646C104.428 75.9646 103.292 74.8279 103.292 73.4265Z"
          fill="white"/>
    <path d="M112.539 133.388C112.257 133.388 112 133.198 111.926 132.913C110.555 127.664 112.555 121.831 116.804 118.492C114.809 115.702 113.479 112.745 112.845 109.696C112.665 108.829 112.508 107.804 112.718 106.781C112.957 105.61 113.662 104.661 114.605 104.244C116.658 103.334 118.81 105.149 119.518 105.747C122.797 108.512 125.819 111.611 128.502 114.957C128.72 115.23 128.677 115.629 128.403 115.848C128.129 116.067 127.731 116.022 127.513 115.749C124.882 112.467 121.916 109.427 118.701 106.714C117.185 105.435 116.013 105.005 115.119 105.402C114.558 105.65 114.115 106.275 113.96 107.032C113.798 107.832 113.933 108.697 114.086 109.436C114.72 112.49 116.102 115.453 118.194 118.242C118.297 118.379 118.339 118.55 118.313 118.719C118.287 118.889 118.193 119.039 118.053 119.138C113.939 122.054 111.878 127.712 113.152 132.591C113.241 132.93 113.039 133.276 112.699 133.365C112.646 133.378 112.592 133.386 112.539 133.386V133.388Z"
          fill="#A5C5FF"/>
    <path d="M118.867 109.699C118.066 109.699 117.265 109.479 116.588 109.04C115.283 108.191 114.53 106.582 114.717 105.035C114.76 104.688 115.076 104.442 115.423 104.482C115.771 104.525 116.018 104.84 115.976 105.188C115.848 106.248 116.383 107.394 117.279 107.977C118.175 108.559 119.441 108.583 120.357 108.033C120.658 107.854 121.046 107.952 121.226 108.252C121.405 108.552 121.308 108.941 121.008 109.121C120.362 109.507 119.614 109.698 118.867 109.698V109.699Z"
          fill="#A5C5FF"/>
    <path d="M114.138 117.977C113.916 117.977 113.691 117.951 113.469 117.898C112.472 117.66 111.566 116.911 110.981 115.844C110.503 114.974 110.279 114.011 110.072 113.017C109.319 109.396 108.743 105.534 109.633 101.833C109.715 101.493 110.058 101.283 110.397 101.364C110.737 101.446 110.947 101.789 110.865 102.129C110.034 105.587 110.589 109.281 111.313 112.759C111.507 113.688 111.699 114.516 112.093 115.235C112.506 115.988 113.115 116.51 113.764 116.665C114.429 116.824 115.167 116.525 115.409 115.998C115.556 115.681 115.931 115.542 116.25 115.689C116.568 115.836 116.707 116.212 116.561 116.53C116.15 117.42 115.176 117.977 114.139 117.977H114.138Z"
          fill="#A5C5FF"/>
    <path d="M107.266 118.522C106.153 118.522 105.034 118.101 104.231 117.331C103.16 116.303 102.724 114.834 102.413 113.401C101.72 110.206 101.384 106.928 101.417 103.66C101.42 103.31 101.711 103.05 102.056 103.032C102.406 103.036 102.688 103.322 102.684 103.672C102.653 106.846 102.978 110.029 103.651 113.131C103.901 114.285 104.24 115.584 105.108 116.417C105.904 117.18 107.141 117.458 108.187 117.109C109.233 116.759 110.055 115.793 110.231 114.704C110.287 114.358 110.613 114.127 110.958 114.18C111.304 114.236 111.538 114.561 111.483 114.907C111.233 116.448 110.07 117.816 108.589 118.31C108.163 118.453 107.714 118.522 107.265 118.522H107.266Z"
          fill="#A5C5FF"/>
    <path d="M98.5478 118.998C98.3143 118.998 98.0837 118.972 97.8585 118.919C96.7751 118.664 95.8442 117.843 95.0907 116.478C93.4338 113.476 93.3474 109.952 93.2712 106.843C93.2629 106.493 93.5395 106.203 93.8896 106.194C94.2489 106.191 94.5301 106.463 94.5384 106.813C94.611 109.776 94.6937 113.136 96.1999 115.867C96.7724 116.905 97.4276 117.516 98.148 117.686C98.9714 117.879 99.9795 117.437 100.603 116.611C101.14 115.899 101.459 114.939 101.607 113.587C101.654 113.156 101.682 112.722 101.712 112.29C101.761 111.538 101.813 110.76 101.96 109.989C102.025 109.645 102.357 109.419 102.7 109.484C103.044 109.549 103.27 109.881 103.205 110.225C103.073 110.92 103.026 111.625 102.976 112.372C102.946 112.824 102.916 113.275 102.867 113.723C102.693 115.312 102.295 116.472 101.614 117.374C100.842 118.396 99.6735 118.997 98.5468 118.997L98.5478 118.998Z"
          fill="#A5C5FF"/>
    <path d="M100.706 117.631C100.395 117.631 100.123 117.401 100.08 117.083C99.8968 115.737 99.4999 114.437 98.8998 113.22C98.7316 112.879 98.5405 112.541 98.2786 112.38C97.934 112.166 97.3844 112.264 97.0279 112.6C96.6723 112.936 96.4591 113.501 96.4416 114.148C96.4251 114.8 96.5905 115.485 96.7504 116.148C96.8322 116.488 96.6226 116.831 96.2826 116.913C95.9417 116.994 95.5998 116.785 95.5181 116.445C95.3389 115.703 95.1542 114.934 95.1744 114.116C95.2001 113.12 95.5484 112.256 96.1558 111.68C96.9342 110.944 98.1067 110.784 98.9448 111.302C99.4778 111.632 99.7847 112.149 100.037 112.66C100.697 114.002 101.135 115.432 101.336 116.914C101.383 117.26 101.14 117.58 100.794 117.627C100.764 117.63 100.736 117.632 100.707 117.632L100.706 117.631Z"
          fill="#A5C5FF"/>
    <path d="M108.93 117.757C108.619 117.757 108.347 117.527 108.304 117.21C108.097 115.692 107.554 114.207 106.732 112.915C106.34 112.299 105.976 111.974 105.618 111.92C105.144 111.851 104.653 112.291 104.45 112.758C104.186 113.368 104.205 114.108 104.224 114.825C104.234 115.175 103.958 115.466 103.608 115.476H103.59C103.248 115.476 102.966 115.203 102.957 114.859C102.937 114.084 102.911 113.121 103.287 112.254C103.684 111.339 104.677 110.501 105.804 110.667C106.793 110.813 107.418 111.633 107.801 112.235C108.72 113.681 109.327 115.341 109.559 117.039C109.606 117.385 109.363 117.705 109.017 117.752C108.987 117.756 108.959 117.757 108.93 117.757Z"
          fill="#A5C5FF"/>
    <path d="M111.288 115.059C110.997 115.059 110.735 114.858 110.67 114.562C110.491 113.752 110.574 112.945 110.904 112.289C111.301 111.498 112.055 110.954 112.873 110.869C113.804 110.768 114.744 111.329 115.056 112.168C115.177 112.496 115.01 112.861 114.681 112.982C114.353 113.104 113.988 112.937 113.867 112.608C113.754 112.306 113.366 112.094 113.005 112.129C112.62 112.169 112.239 112.455 112.038 112.858C111.838 113.254 111.793 113.762 111.909 114.288C111.985 114.63 111.769 114.968 111.427 115.044C111.381 115.054 111.335 115.058 111.29 115.058L111.288 115.059Z"
          fill="#A5C5FF"/>
    <path d="M184.702 108.603C184.374 108.603 184.096 108.35 184.071 108.017C184.006 107.18 183.348 106.385 182.539 106.167C181.729 105.948 180.759 106.304 180.283 106.995C180.084 107.283 179.689 107.354 179.401 107.157C179.113 106.959 179.04 106.564 179.239 106.276C180.017 105.146 181.543 104.586 182.869 104.944C184.193 105.301 185.23 106.554 185.334 107.921C185.361 108.27 185.1 108.574 184.751 108.601C184.734 108.602 184.718 108.603 184.701 108.603H184.702Z"
          fill="#A5C5FF"/>
    <path d="M162.455 117.606C161.306 117.606 160.159 117.474 159.046 117.205C158.706 117.122 158.497 116.781 158.58 116.44C158.662 116.1 159.004 115.893 159.344 115.974C163.377 116.949 167.894 115.943 171.132 113.348C171.406 113.129 171.805 113.174 172.023 113.447C172.242 113.719 172.198 114.118 171.924 114.338C169.28 116.458 165.855 117.608 162.454 117.608L162.455 117.606Z"
          fill="#A5C5FF"/>
    <path d="M159.254 104.162C159.07 104.162 158.887 104.082 158.762 103.928C158.006 102.996 157.845 101.642 158.363 100.558C158.815 99.6127 159.751 98.9392 160.781 98.7839C161.105 97.9145 161.423 97.0498 161.741 96.1869C161.861 95.8579 162.228 95.6907 162.554 95.8111C162.883 95.9314 163.051 96.2963 162.93 96.6243C162.565 97.6159 162.201 98.6065 161.827 99.6063C161.734 99.8535 161.497 100.018 161.234 100.018H161.232C160.522 100.018 159.813 100.465 159.508 101.105C159.202 101.746 159.3 102.579 159.747 103.13C159.967 103.402 159.925 103.801 159.654 104.022C159.536 104.117 159.396 104.163 159.255 104.163L159.254 104.162Z"
          fill="#A5C5FF"/>
    <path d="M160.906 109.139C160.842 109.139 160.776 109.137 160.712 109.133C159.347 109.061 158.056 108.232 157.422 107.022C157.259 106.712 157.38 106.329 157.69 106.167C158 106.004 158.382 106.124 158.545 106.434C158.969 107.244 159.867 107.82 160.778 107.868C161.692 107.917 162.644 107.437 163.149 106.676C163.343 106.384 163.736 106.305 164.027 106.498C164.32 106.692 164.398 107.086 164.205 107.377C163.483 108.461 162.206 109.139 160.906 109.139Z"
          fill="#A5C5FF"/>
    <path d="M172.428 98.6616C172.132 98.6616 171.868 98.453 171.807 98.1516C171.586 97.0397 170.813 96.0491 169.786 95.5657C168.762 95.0823 167.504 95.1173 166.506 95.6548C166.199 95.8203 165.813 95.7054 165.647 95.3975C165.481 95.0897 165.597 94.7056 165.905 94.5393C167.251 93.8142 168.945 93.7683 170.327 94.4189C171.709 95.0695 172.753 96.4056 173.05 97.9054C173.118 98.249 172.895 98.5817 172.552 98.6506C172.511 98.6589 172.47 98.6626 172.428 98.6626V98.6616Z"
          fill="#A5C5FF"/>
    <path d="M160.858 94.781C160.574 94.781 160.316 94.5889 160.244 94.3003C160.004 93.3437 159.249 92.5102 158.32 92.1785C157.389 91.8458 156.278 92.0131 155.486 92.6021C155.206 92.8107 154.808 92.7528 154.6 92.4716C154.39 92.1914 154.449 91.7935 154.73 91.5849C155.87 90.7367 157.408 90.5079 158.745 90.9848C160.082 91.4617 161.128 92.6141 161.473 93.9925C161.559 94.3316 161.352 94.6762 161.013 94.7607C160.962 94.7736 160.91 94.78 160.859 94.78L160.858 94.781Z"
          fill="#A5C5FF"/>
    <path d="M155.417 95.3351C155.417 94.5034 156.091 93.8298 156.922 93.8298C157.754 93.8298 158.427 94.5034 158.427 95.3351C158.427 96.1667 157.754 96.8403 156.922 96.8403C156.091 96.8403 155.417 96.1667 155.417 95.3351Z"
          fill="#A5C5FF"/>
    <path d="M166.205 98.9796C166.205 98.148 166.879 97.4744 167.71 97.4744C168.542 97.4744 169.216 98.148 169.216 98.9796C169.216 99.8112 168.542 100.485 167.71 100.485C166.879 100.485 166.205 99.8112 166.205 98.9796Z"
          fill="#A5C5FF"/>
    <path d="M127.158 195.039C126.807 195.039 126.523 194.755 126.523 194.405V135.235C126.523 134.885 126.807 134.601 127.158 134.601C127.508 134.601 127.792 134.885 127.792 135.235V194.405C127.792 194.755 127.508 195.039 127.158 195.039Z"
          fill="#A5C5FF"/>
    <path d="M187.435 195.594C187.085 195.594 186.801 195.31 186.801 194.96V158.224C186.801 157.874 187.085 157.59 187.435 157.59C187.785 157.59 188.069 157.874 188.069 158.224V194.96C188.069 195.31 187.785 195.594 187.435 195.594Z"
          fill="#A5C5FF"/>
    <path d="M184.476 164.55C184.247 164.55 184.025 164.425 183.913 164.207L182.019 160.538C181.858 160.227 181.98 159.845 182.292 159.684C182.602 159.523 182.985 159.646 183.146 159.957L185.04 163.627C185.2 163.937 185.078 164.319 184.767 164.48C184.674 164.528 184.575 164.551 184.476 164.551V164.55Z"
          fill="#A5C5FF"/>
</svg>
