<svg width="342" height="268" viewBox="0 0 342 268" fill="none" xmlns="http://www.w3.org/2000/svg">
    <path d="M115.81 58.5433L114.03 50.2595L110.629 57.2442L98.2422 47.6612L106.257 60.1678L97.7567 64.1466L102.372 65.6897L96.9471 74.3792L106.986 66.0963L115.81 58.5433Z" fill="#D8E6FF"/>
    <path d="M110.161 174.806L97.3287 178.655L86.744 162.198L87.803 180.248L71.5292 179.185L84.9615 184.712L81.6984 190.773L90.5796 186.591L90.3993 203.198L95.2321 186.167L105.866 192.168L99.3413 183.501L110.161 174.806Z"
          fill="#D8E6FF"/>
    <path d="M225.101 112.53C225.101 74.7774 194.591 44.1722 156.956 44.1722C119.32 44.1722 88.8104 74.7774 88.8104 112.53C88.8104 150.284 119.32 180.889 156.956 180.889C194.591 180.889 225.101 150.284 225.101 112.53Z"
          fill="#F0F0F1"/>
    <path d="M156.955 47.2697C192.828 47.2697 222.012 76.5464 222.012 112.531C222.012 148.515 192.828 177.791 156.955 177.791C121.083 177.791 91.8987 148.515 91.8987 112.531C91.8987 76.5464 121.083 47.2697 156.955 47.2697ZM156.955 183.988C196.234 183.988 228.189 151.932 228.189 112.531C228.189 73.1297 196.234 41.0739 156.955 41.0739C117.677 41.0739 85.7221 73.1297 85.7221 112.531C85.7221 151.932 117.677 183.988 156.955 183.988Z"
          fill="#A5C5FF"/>
    <path d="M247.699 192.989L208.474 153.641L196.948 165.202L236.173 204.551C239.356 207.744 244.516 207.744 247.699 204.551C250.882 201.358 250.882 196.182 247.699 192.989Z" fill="#A5C5FF"/>
    <path d="M245.189 78.2224C258.694 78.2224 269.642 67.2743 269.642 53.7691C269.642 40.264 258.694 29.3159 245.189 29.3159C231.683 29.3159 220.735 40.264 220.735 53.7691C220.735 67.2743 231.683 78.2224 245.189 78.2224Z"
          fill="#A5C5FF"/>
    <path d="M255.752 47.7096C255.752 52.6476 251.96 56.8128 247.392 58.0735C247.082 58.1584 246.872 58.4492 246.872 58.7716V61.6572C246.872 62.9021 245.863 63.911 244.618 63.911C243.373 63.911 242.365 62.9021 242.365 61.6572V56.7451C242.365 55.2929 243.542 54.1171 244.993 54.1171C248.773 54.1171 251.793 50.8342 251.354 46.9598C251.026 44.0684 248.707 41.7167 245.82 41.3554C243.726 41.0935 241.799 41.8419 240.46 43.1789C239.266 44.3721 238.817 45.7494 238.666 46.8346C238.517 47.9054 237.598 48.6969 236.517 48.6969C235.193 48.6969 234.172 47.524 234.365 46.2143C234.603 44.5995 235.255 42.468 236.934 40.5739C238.906 38.3503 241.784 36.95 244.991 36.95C250.931 36.95 255.749 41.7642 255.749 47.7082L255.752 47.7096Z"
          fill="white"/>
    <path d="M244.758 71.3966C246.108 71.3966 247.203 70.3018 247.203 68.9514C247.203 67.6009 246.108 66.5061 244.758 66.5061C243.407 66.5061 242.312 67.6009 242.312 68.9514C242.312 70.3018 243.407 71.3966 244.758 71.3966Z"
          fill="white"/>
    <path d="M192.82 116.864C193.912 112.169 192.75 106.999 189.755 103.229C186.76 99.4584 181.996 97.1671 177.226 96.2075C176.524 88.8792 174.622 81.6678 171.619 74.9504C170.376 72.1702 168.848 69.3604 166.33 67.6547C163.354 65.6399 159.522 65.5097 155.935 65.6683C151.156 65.8798 146.394 66.4836 141.684 67.614C136.602 68.8328 132.463 72.6388 130.933 77.6484C129.614 81.9656 129.1 86.531 129.464 91.0322C129.756 94.6318 130.495 98.6269 128.394 101.56C126.099 104.764 121.597 105.105 117.902 106.455C112.029 108.601 107.518 114.118 106.567 120.315C105.616 126.512 108.266 133.134 113.225 136.951L165.079 137.202L189.384 118.077L192.82 116.864Z"
          fill="#A5C5FF"/>
    <path d="M160.05 116.843L164.979 113.316C171.337 108.766 179.836 108.621 186.345 112.954L215.928 133.052L226.719 111.349L248.614 127.066L229.985 164.766C227.007 170.793 219.345 172.688 213.914 168.742C203.204 160.958 187.98 150.035 187.549 150.524C187.18 156.068 184.014 161.825 180.608 164.742C180.608 164.742 180.001 173.562 180.209 173.649C166.801 178.898 145.835 179.578 131.185 172.37L126.621 160.797C126.621 160.797 123.771 167.404 123.256 168.388C113.524 161.904 105.148 153.946 99.7039 143.794L106.004 128.016C110.951 117.071 123.158 111.253 134.656 114.63C136.529 115.18 138.232 115.849 139.609 116.662L160.05 116.843Z"
          fill="#D8E6FF"/>
    <path d="M142.841 87.0392C150.994 83.705 155.092 78.0418 154.748 70.3739C157.318 76.0564 163.745 78.3325 169.781 78.3325C171.332 81.9148 172.4 85.7604 172.41 89.666C172.42 93.5716 171.313 97.5504 168.885 100.603C166.456 103.657 163.145 105.283 160.912 105.384L160.716 116.894L142.392 116.687C142.392 116.687 143.33 98.9583 143.081 98.1786C133.978 99.4157 131.811 85.1871 142.841 87.0392Z"
          fill="#F0F0F1"/>
    <path d="M248.536 127.023C248.536 127.023 252.188 119.412 252.438 118.951C257.287 115.87 261.033 114.203 265.485 112.216C266.234 111.881 266.996 111.54 267.611 110.997C268.227 110.455 268.687 109.671 268.642 108.85C268.578 107.705 267.543 106.804 266.435 106.518C265.328 106.231 264.161 106.424 263.254 106.472C265.087 105.398 267.442 105.428 269.165 104.125C271.145 102.912 271.063 99.1237 267.6 98.7375C271.149 96.7897 268.162 92.2631 264.083 93.5896C263.975 90.5593 261.588 89.4116 257.244 89.7644C252.941 90.1131 242.235 93.7116 242.235 93.7116C242.235 93.7116 240.374 86.7259 237.728 83.9009C236.954 83.0755 235.926 82.2175 234.828 82.4838C234.067 82.6678 233.52 83.3754 233.3 84.1286C233.081 84.8819 233.131 85.685 233.185 86.4677C233.456 90.3641 233.976 96.2001 233.244 98.9164L226.987 111.323L248.536 127.023Z"
          fill="#F0F0F1"/>
    <path d="M189.13 195.772C189.226 195.772 189.322 195.775 189.42 195.78C191.15 195.88 192.753 196.811 193.936 198.404C195.316 200.264 195.863 202.73 195.363 204.838C195.222 205.432 195.021 205.996 194.77 206.528C192.315 206.095 189.974 205.099 188.031 203.523C186.049 201.915 184.642 199.294 185.792 197.396C186.399 196.392 187.689 195.772 189.13 195.772ZM170.106 202.934C170.322 202.934 170.535 202.969 170.739 203.042C172.053 203.51 172.547 205.295 172.11 206.577C171.65 207.927 170.477 208.858 169.427 209.451C169.362 209.398 169.296 209.345 169.232 209.29C167.921 208.163 167.252 206.545 167.528 205.168C167.681 204.402 168.225 203.67 168.948 203.259C169.328 203.044 169.723 202.934 170.106 202.934ZM182.806 214C184.047 214 185.306 213.89 186.555 213.627C190.371 212.819 193.607 210.5 195.279 207.539C200.292 208.216 205.645 206.714 209.239 203.142C209.421 202.961 209.422 202.668 209.242 202.485C209.061 202.303 208.769 202.301 208.586 202.481C205.269 205.78 200.357 207.204 195.718 206.667C195.949 206.144 196.133 205.604 196.264 205.053C196.826 202.685 196.219 199.924 194.678 197.849C193.33 196.031 191.482 194.968 189.473 194.853C187.573 194.743 185.822 195.553 184.999 196.914C183.507 199.377 185.224 202.442 187.449 204.247C189.434 205.856 191.811 206.895 194.312 207.379C192.561 210.258 189.308 212.094 186.363 212.717C181.76 213.69 176.918 212.454 173.677 211.438C172.57 211.092 171.348 210.677 170.269 210.03C171.361 209.346 172.493 208.326 172.987 206.878C173.564 205.182 172.911 202.83 171.049 202.166C170.234 201.876 169.325 201.977 168.491 202.451C167.526 202.999 166.826 203.946 166.619 204.985C166.217 206.99 167.32 208.819 168.522 209.901C164.265 211.767 158.861 210.846 155.496 207.625C155.311 207.447 155.017 207.455 154.841 207.64C154.665 207.826 154.672 208.12 154.856 208.298C158.603 211.883 164.694 212.826 169.346 210.543C170.616 211.409 172.087 211.914 173.401 212.326C175.876 213.101 179.26 214 182.806 214Z"
          fill="#F0F0F1"/>
    <path d="M131.938 30.2707C132.97 30.8359 133.926 31.5424 134.761 32.3729C135.758 33.364 136.345 34.3145 136.557 35.2762C136.767 36.2277 136.572 37.4902 135.668 38.1662C134.951 38.703 133.865 38.7538 132.966 38.2933C132.139 37.8694 131.469 37.0602 131.078 36.0152C130.399 34.1905 130.769 31.9978 131.938 30.2707ZM134.254 39.5325C134.973 39.5325 135.671 39.3231 136.222 38.9114C137.291 38.1113 137.79 36.5692 137.462 35.0759C137.21 33.9343 136.541 32.8344 135.414 31.7132C134.552 30.8572 133.573 30.1233 132.514 29.5296C132.742 29.2745 132.99 29.0356 133.256 28.815C135.233 27.1855 138.119 26.5572 140.976 27.1417C143.445 27.6449 145.875 28.9746 148.197 31.0961C148.387 31.2689 148.679 31.2557 148.852 31.0656C149.024 30.8755 149.01 30.5818 148.822 30.4089C146.372 28.1735 143.795 26.7677 141.161 26.2309C138.03 25.5946 134.856 26.2919 132.667 28.0973C132.302 28.3992 131.968 28.7337 131.668 29.0925C130.028 28.3159 128.235 27.8625 126.424 27.7913C123.081 27.6582 119.705 28.8292 117.156 30.9945C116.96 31.1602 116.936 31.4539 117.101 31.6501C117.266 31.8453 117.56 31.8697 117.754 31.704C120.129 29.6862 123.276 28.6015 126.388 28.7205C128.013 28.7845 129.622 29.1779 131.105 29.8539C129.83 31.8108 129.442 34.2749 130.211 36.3405C130.681 37.6031 131.51 38.5911 132.545 39.1208C133.083 39.3963 133.675 39.5325 134.254 39.5325Z"
          fill="#F0F0F1"/>
    <path d="M143.351 93.4971C143.409 93.4971 143.47 93.4889 143.529 93.4706C143.856 93.372 144.041 93.0264 143.942 92.6991C143.636 91.6795 142.777 90.8388 141.753 90.5582C140.728 90.2777 139.564 90.5613 138.782 91.281C138.532 91.5128 138.515 91.9052 138.747 92.1573C138.977 92.4094 139.368 92.4267 139.619 92.1939C140.094 91.7547 140.804 91.5809 141.427 91.7537C142.05 91.9245 142.573 92.4358 142.76 93.0559C142.84 93.3243 143.085 93.4971 143.351 93.4971Z"
          fill="#A5C5FF"/>
    <path d="M159.991 106.477C160.167 106.477 160.341 106.474 160.514 106.468C160.855 106.456 161.122 106.17 161.111 105.828C161.1 105.486 160.796 105.231 160.474 105.229C156.985 105.349 153.035 104.199 150.39 102.31C150.113 102.11 149.727 102.176 149.529 102.455C149.331 102.733 149.396 103.12 149.674 103.318C152.392 105.263 156.388 106.477 159.991 106.477Z"
          fill="#A5C5FF"/>
    <path d="M162.019 94.1995C162.122 94.1995 162.225 94.173 162.321 94.1192C163.424 93.4991 164.013 92.1064 163.691 90.8804C163.415 89.8232 162.488 88.9917 161.428 88.7843C161.218 87.7505 160.999 86.7136 160.779 85.6767C160.709 85.3423 160.386 85.1257 160.046 85.2C159.713 85.2711 159.499 85.6005 159.571 85.9349C159.821 87.1161 160.071 88.2974 160.308 89.4766C160.366 89.7653 160.618 89.9737 160.913 89.9737C160.914 89.9737 160.915 89.9737 160.917 89.9737C161.624 89.9737 162.317 90.5094 162.497 91.1956C162.677 91.8817 162.335 92.6909 161.716 93.0386C161.419 93.2063 161.313 93.5834 161.48 93.8823C161.594 94.0846 161.804 94.1995 162.019 94.1995Z"
          fill="#A5C5FF"/>
    <path d="M160.877 97.9102C162.111 97.9102 163.349 97.4141 164.234 96.5541C164.48 96.3162 164.487 95.9238 164.249 95.6778C164.01 95.4318 163.619 95.4257 163.375 95.6636C162.667 96.3518 161.658 96.7249 160.668 96.6639C159.683 96.6019 158.726 96.1048 158.108 95.3322C157.895 95.0658 157.505 95.0221 157.24 95.2376C156.973 95.4511 156.931 95.8415 157.145 96.1078C157.977 97.1477 159.266 97.8176 160.591 97.901C160.686 97.9071 160.782 97.9102 160.877 97.9102Z"
          fill="#A5C5FF"/>
    <path d="M162.882 82.6516C163.043 82.6516 163.204 82.5886 163.326 82.4635C164.526 81.2223 166.621 80.9499 168.096 81.8445C168.39 82.0203 168.768 81.9278 168.944 81.6351C169.12 81.3423 169.027 80.9611 168.735 80.7842C166.755 79.5847 164.048 79.9344 162.438 81.6005C162.201 81.8465 162.207 82.2389 162.452 82.4768C162.572 82.5937 162.727 82.6516 162.882 82.6516Z"
          fill="#A5C5FF"/>
    <path d="M150.341 85.8474C150.564 85.8474 150.78 85.7254 150.89 85.513C151.364 84.5981 152.235 83.8733 153.219 83.5734C154.203 83.2745 155.329 83.3924 156.231 83.8895C156.531 84.0542 156.904 83.9444 157.07 83.6456C157.234 83.3447 157.124 82.9685 156.825 82.8039C155.621 82.139 154.174 81.9886 152.86 82.3881C151.546 82.7876 150.428 83.7177 149.794 84.9407C149.637 85.2446 149.754 85.6187 150.057 85.7773C150.148 85.824 150.246 85.8474 150.341 85.8474Z"
          fill="#A5C5FF"/>
    <path d="M126.929 160.928C127.172 160.928 127.404 160.782 127.502 160.541L133.47 145.774C133.599 145.457 133.446 145.096 133.131 144.967C132.817 144.839 132.455 144.992 132.326 145.309L126.357 160.075C126.229 160.392 126.381 160.754 126.697 160.882C126.773 160.914 126.851 160.928 126.929 160.928Z"
          fill="#A5C5FF"/>
    <path d="M187.497 150.016C187.507 150.016 187.518 150.016 187.529 150.015C187.869 149.998 188.132 149.708 188.114 149.365C187.952 146.079 186.913 142.906 185.105 140.168L186.533 137.4C186.689 137.096 186.57 136.723 186.267 136.566C185.964 136.409 185.59 136.528 185.435 136.832L183.839 139.926C183.735 140.13 183.75 140.375 183.881 140.564C185.685 143.18 186.723 146.245 186.88 149.427C186.897 149.758 187.17 150.016 187.497 150.016Z"
          fill="#A5C5FF"/>
    <path d="M156.62 166.56C156.761 166.56 156.904 166.511 157.02 166.41C159.919 163.92 162.015 160.5 162.923 156.78C163.005 156.448 162.801 156.112 162.47 156.031C162.136 155.95 161.804 156.154 161.723 156.486C160.877 159.955 158.921 163.146 156.217 165.47C155.958 165.692 155.927 166.084 156.149 166.343C156.272 166.486 156.444 166.56 156.62 166.56Z"
          fill="#A5C5FF"/>
    <path d="M208.953 148.031C209.188 148.031 209.413 147.896 209.516 147.667L216.046 133.19C216.186 132.878 216.048 132.511 215.738 132.37C215.426 132.228 215.061 132.368 214.92 132.679L208.39 147.156C208.25 147.468 208.388 147.835 208.698 147.976C208.781 148.014 208.868 148.031 208.953 148.031Z"
          fill="#A5C5FF"/>
    <path d="M253.533 110.407C253.606 110.407 253.68 110.394 253.752 110.366C257.153 109.07 260.628 107.833 264.079 106.69C264.403 106.583 264.579 106.233 264.472 105.907C264.365 105.583 264.018 105.406 263.692 105.513C260.223 106.662 256.731 107.905 253.313 109.207C252.995 109.329 252.834 109.687 252.956 110.007C253.049 110.254 253.284 110.407 253.533 110.407Z"
          fill="#A5C5FF"/>
    <path d="M251.409 103.386C251.467 103.386 251.527 103.378 251.585 103.36C256.842 101.793 262.237 100.458 267.62 99.3935C267.955 99.3274 268.173 99.0011 268.107 98.6656C268.041 98.3302 267.716 98.1075 267.381 98.1777C261.96 99.2491 256.527 100.593 251.233 102.172C250.906 102.27 250.72 102.615 250.817 102.943C250.897 103.212 251.143 103.386 251.409 103.386Z"
          fill="#A5C5FF"/>
    <path d="M249.106 97.7158C249.184 97.7158 249.263 97.7016 249.34 97.6701C253.95 95.7773 258.81 94.6763 263.782 94.3988C264.122 94.3795 264.383 94.0867 264.364 93.7452C264.345 93.4036 264.06 93.1464 263.713 93.1607C258.603 93.4473 253.61 94.5777 248.872 96.5224C248.556 96.6525 248.405 97.0144 248.534 97.3306C248.632 97.5715 248.863 97.7158 249.106 97.7158Z"
          fill="#A5C5FF"/>
    <path d="M239.915 95.0564C240.009 95.0564 240.105 95.034 240.195 94.9883C240.898 94.6284 241.647 94.3733 242.423 94.2289C242.759 94.1669 242.98 93.8436 242.918 93.5072C242.856 93.1707 242.535 92.9521 242.199 93.0101C241.305 93.1768 240.443 93.4706 239.633 93.8843C239.33 94.0398 239.209 94.4129 239.364 94.7179C239.473 94.9324 239.69 95.0564 239.915 95.0564Z"
          fill="#A5C5FF"/>
    <path d="M237.427 112.795C237.534 112.795 237.642 112.767 237.74 112.709C241.106 110.718 243.442 107.059 243.836 103.161C243.87 102.821 243.623 102.516 243.284 102.482C242.948 102.442 242.641 102.695 242.607 103.036C242.251 106.549 240.146 109.847 237.113 111.642C236.819 111.815 236.721 112.195 236.894 112.489C237.01 112.686 237.216 112.795 237.427 112.795Z"
          fill="#A5C5FF"/>
    <path d="M193.192 79.2682L192.153 69.1536L189.432 79.069L182.405 77.7892L187.502 82.5873L185.424 86.2651L189.926 84.906L192.846 92.8625L192.302 83.6262L201.604 78.5485L193.192 79.2682Z"
          fill="white"/>
    <path d="M167.24 85.3477C167.24 84.5335 166.582 83.8727 165.769 83.8727C164.957 83.8727 164.298 84.5335 164.298 85.3477C164.298 86.163 164.957 86.8237 165.769 86.8237C166.582 86.8237 167.24 86.163 167.24 85.3477Z"
          fill="#A5C5FF"/>
    <path d="M155.368 87.8343C155.368 87.02 154.709 86.3593 153.897 86.3593C153.085 86.3593 152.426 87.02 152.426 87.8343C152.426 88.6495 153.085 89.3103 153.897 89.3103C154.709 89.3103 155.368 88.6495 155.368 87.8343Z"
          fill="#A5C5FF"/>
    <path d="M4.54375 261.768C5.64775 261.768 6.44775 260.856 6.44775 259.576C6.44775 258.328 5.64775 257.416 4.54375 257.416C3.42375 257.416 2.63975 258.328 2.63975 259.576C2.63975 260.856 3.42375 261.768 4.54375 261.768ZM4.54375 256.312C6.31975 256.312 7.61575 257.656 7.61575 259.576C7.61575 261.528 6.31975 262.856 4.54375 262.856C2.76775 262.856 1.47175 261.528 1.47175 259.576C1.47175 257.656 2.76775 256.312 4.54375 256.312ZM5.18375 252.248V254.28H8.09575V255.352H0.975753V254.28H3.88775V252.248H5.18375ZM11.8878 251.816H13.1518V266.168H11.8878V258.952H10.0478V265.48H8.81575V252.152H10.0478V257.88H11.8878V251.816ZM23.6305 257.656L23.7745 258.728C21.8065 259.128 20.0945 259.224 17.0705 259.224H15.9505V252.936H22.2865V253.992H17.2465V258.152C20.0945 258.152 21.7425 258.056 23.6305 257.656ZM21.8865 265.112C23.9985 265.112 25.3105 264.472 25.3105 263.416C25.3105 262.36 23.9985 261.72 21.8865 261.72C19.7585 261.72 18.4465 262.36 18.4465 263.416C18.4465 264.472 19.7585 265.112 21.8865 265.112ZM21.8865 260.664C24.7825 260.664 26.6065 261.688 26.6065 263.416C26.6065 265.144 24.7825 266.168 21.8865 266.168C18.9745 266.168 17.1505 265.144 17.1505 263.416C17.1505 261.688 18.9745 260.664 21.8865 260.664ZM26.4625 255.56H28.5745V256.648H26.4625V260.376H25.1345V251.832H26.4625V255.56ZM33.6874 252.744H40.1674C40.1674 256.376 37.6234 258.952 33.5114 260.12L32.9674 259.096C36.3754 258.12 38.5034 256.248 38.7754 253.816H33.6874V252.744ZM36.6474 261.672V264.92H43.3354V261.672H36.6474ZM35.3514 265.976V260.632H44.6154V265.976H35.3514ZM43.3034 251.832H44.6154V260.024H43.3034V256.6H40.1834V255.528H43.3034V251.832ZM54.3101 258.632L53.6061 259.624C52.2781 259.08 51.2861 258.024 50.7741 256.792C50.2621 258.152 49.2381 259.368 47.8461 259.992L47.1421 258.984C49.0141 258.136 50.1341 256.248 50.1341 254.616V252.68H51.3981V254.616C51.3981 256.232 52.4541 257.896 54.3101 258.632ZM49.5901 262.36V261.304H59.2381V266.184H57.9261V262.36H49.5901ZM57.9741 251.848H59.2381V260.52H57.9741V256.648H56.1501V260.424H54.9021V252.088H56.1501V255.576H57.9741V251.848ZM65.471 253.384H72.191C72.191 257.528 70.287 261.176 65.519 263.512L64.815 262.44C68.671 260.6 70.591 257.848 70.863 254.44H65.471V253.384ZM75.087 251.832H76.399V266.184H75.087V251.832ZM80.2218 258.184L79.7258 257.128C82.2698 256.792 84.5898 255.368 84.5898 253.624V253.608H80.1258V252.552H90.7498V253.608H86.2858V253.624C86.2858 255.368 88.6058 256.792 91.1338 257.128L90.6538 258.184C88.3178 257.832 86.2058 256.68 85.4378 255.016C84.6538 256.68 82.5418 257.832 80.2218 258.184ZM81.8858 261.8V264.792H90.4938V265.864H80.5738V261.8H81.8858ZM78.9098 259.224H91.9338V260.28H86.1898V263.192H84.8778V260.28H78.9098V259.224ZM99.7405 253.064C97.3885 253.064 96.0445 253.608 96.0445 254.568C96.0445 255.528 97.3885 256.072 99.7405 256.072C102.093 256.072 103.437 255.528 103.437 254.568C103.437 253.608 102.093 253.064 99.7405 253.064ZM99.7405 257.048C96.5885 257.048 94.7005 256.184 94.7005 254.568C94.7005 252.952 96.5885 252.072 99.7405 252.072C102.893 252.072 104.781 252.952 104.781 254.568C104.781 256.184 102.893 257.048 99.7405 257.048ZM96.1405 263.544V265H105.005V266.024H94.8605V262.584H103.277V261.304H94.8125V260.312H104.573V263.544H96.1405ZM93.2445 258.024H106.237V259.08H93.2445V258.024ZM111.925 258.168L111.525 257.144C114.197 256.92 116.373 255.832 116.517 254.28H112.101V253.24H116.597V251.784H117.909V253.24H122.405V254.28H117.973C118.117 255.832 120.293 256.92 122.981 257.144L122.581 258.168C120.213 257.912 118.117 257.064 117.253 255.656C116.373 257.064 114.293 257.912 111.925 258.168ZM120.821 263.784C120.821 262.904 119.493 262.392 117.237 262.392C114.965 262.392 113.653 262.904 113.653 263.784C113.653 264.68 114.965 265.176 117.237 265.176C119.493 265.176 120.821 264.68 120.821 263.784ZM123.733 259.976H117.893V261.416C120.581 261.528 122.149 262.36 122.149 263.784C122.149 265.336 120.325 266.168 117.253 266.168C114.149 266.168 112.325 265.336 112.325 263.784C112.325 262.36 113.893 261.528 116.597 261.416V259.976H110.757V258.92H123.733V259.976ZM126.292 257.672L125.812 256.648C128.308 256.36 130.644 255.096 130.724 253.48H126.26V252.408H136.884V253.48H132.42C132.5 255.096 134.804 256.36 137.332 256.648L136.868 257.672C134.516 257.384 132.372 256.328 131.572 254.744C130.772 256.328 128.644 257.384 126.292 257.672ZM126.516 262.584V261.528H136.452V266.2H135.14V262.584H126.516ZM132.212 259.032H138.1V260.104H125.076V259.032H130.9V256.872H132.212V259.032ZM143.603 261.896C144.915 261.896 145.859 260.968 145.859 259.688C145.859 258.392 144.915 257.464 143.603 257.464C142.307 257.464 141.363 258.392 141.363 259.688C141.363 260.968 142.307 261.896 143.603 261.896ZM143.603 256.376C145.651 256.376 147.107 257.752 147.107 259.688C147.107 261.64 145.651 262.984 143.603 262.984C141.587 262.984 140.131 261.64 140.131 259.688C140.131 257.752 141.587 256.376 143.603 256.376ZM144.243 252.008V254.136H147.779V255.192H139.315V254.136H142.931V252.008H144.243ZM152.803 257.736V258.84H150.451V266.184H149.139V251.848H150.451V257.736H152.803ZM165.218 256.152V257.224H155.458V252.36H156.77V256.152H165.218ZM156.674 261.64V264.76H165.298V265.832H155.362V261.64H156.674ZM153.698 259.144H166.706V260.2H153.698V259.144ZM175.963 261.288V254.536H172.955V261.288H175.963ZM179.307 257.24V252.152H180.555V265.464H179.307V258.328H177.179V262.328H171.723V253.496H177.179V257.24H179.307ZM182.155 251.832H183.403V266.168H182.155V251.832ZM190.617 253.08V255.656C190.617 258.28 192.329 260.92 194.457 261.88L193.673 262.936C192.041 262.136 190.665 260.44 189.977 258.392C189.321 260.552 187.945 262.344 186.265 263.208L185.465 262.136C187.577 261.128 189.321 258.376 189.321 255.656V253.08H190.617ZM195.961 251.832H197.273V266.216H195.961V251.832ZM204.968 254.392V256.216C204.968 258.648 206.696 261.128 208.808 262.024L208.072 263.08C206.408 262.312 205 260.664 204.312 258.696C203.656 260.792 202.248 262.6 200.616 263.432L199.848 262.376C201.912 261.4 203.656 258.696 203.656 256.216V254.392H200.328V253.304H208.344V254.392H204.968ZM210.28 251.848H211.592V266.184H210.28V251.848ZM224.215 254.344V253.176H215.799V252.248H225.511V255.24H217.127V256.472H225.767V257.416H215.831V254.344H224.215ZM217.047 263.72V265.048H226.007V265.992H215.751V262.808H224.263V261.608H215.719V260.664H225.559V263.72H217.047ZM214.167 258.504H227.175V259.496H214.167V258.504ZM240.064 258.712L239.44 259.72C237.808 259.24 236.56 258.184 235.92 256.84C235.296 258.328 233.984 259.464 232.304 260.008L231.664 258.968C233.792 258.328 235.248 256.696 235.248 254.808V254.568H232.064V253.512H235.248V251.768H236.56V253.512H239.728V254.568H236.56V254.808C236.56 256.536 237.952 258.104 240.064 258.712ZM243.04 261.992H239.024C239.264 263.464 241.296 264.76 243.6 265.128L243.104 266.136C241.024 265.784 239.152 264.744 238.336 263.32C237.536 264.76 235.68 265.768 233.568 266.12L233.104 265.112C235.408 264.76 237.44 263.496 237.648 261.992H233.648V260.952H243.04V261.992ZM242.8 255.384H244.928V256.472H242.8V260.168H241.488V251.848H242.8V255.384ZM252.462 253.064C250.11 253.064 248.766 253.608 248.766 254.568C248.766 255.528 250.11 256.072 252.462 256.072C254.814 256.072 256.158 255.528 256.158 254.568C256.158 253.608 254.814 253.064 252.462 253.064ZM252.462 257.048C249.31 257.048 247.422 256.184 247.422 254.568C247.422 252.952 249.31 252.072 252.462 252.072C255.614 252.072 257.502 252.952 257.502 254.568C257.502 256.184 255.614 257.048 252.462 257.048ZM248.862 263.544V265H257.726V266.024H247.582V262.584H255.998V261.304H247.534V260.312H257.294V263.544H248.862ZM245.966 258.024H258.958V259.08H245.966V258.024ZM275.831 257.304L275.287 258.36C273.063 257.976 270.903 256.728 269.975 255C269.079 256.744 266.919 257.976 264.679 258.36L264.151 257.304C266.759 256.92 269.287 255.192 269.287 253.144V252.344H270.663V253.144C270.663 255.144 273.223 256.92 275.831 257.304ZM276.455 259.912L276.471 261H270.599V266.2H269.287V261H263.495V259.912H276.455ZM286.368 264.968V263.032H283.84V264.968H286.368ZM286.368 262.056V260.248H287.584V265.992H282.608V260.248H283.84V262.056H286.368ZM284.896 257.992C286.32 257.992 287.344 257.064 287.344 255.768C287.344 254.472 286.32 253.56 284.896 253.56C283.472 253.56 282.448 254.472 282.448 255.768C282.448 257.064 283.472 257.992 284.896 257.992ZM291.472 256.28H288.544C288.304 257.96 286.864 259.08 284.896 259.08C282.752 259.08 281.2 257.736 281.2 255.768C281.2 253.8 282.752 252.472 284.896 252.472C286.832 252.472 288.272 253.56 288.544 255.208H291.472V251.848H292.8V259.432H291.472V256.28ZM291.648 260.152V261.368C291.648 262.888 292.544 264.456 294.256 265.128L293.6 266.12C292.304 265.576 291.44 264.6 291.008 263.416C290.544 264.584 289.68 265.576 288.432 266.12L287.76 265.128C289.472 264.392 290.368 262.84 290.368 261.368V260.152H291.648ZM307.535 256.312L307.055 257.368C304.831 257.016 302.703 255.896 301.791 254.296C300.895 255.896 298.751 257.016 296.511 257.368L296.031 256.312C298.607 255.992 301.119 254.456 301.119 252.632V251.992H302.463V252.632C302.463 254.408 304.991 255.992 307.535 256.312ZM305.279 264.936V263.112H298.223V264.936H305.279ZM305.279 262.104V260.424H306.575V265.992H296.927V260.424H298.223V262.104H305.279ZM295.279 258.376H308.271V259.432H295.279V258.376ZM311.822 253.224V261.352C313.982 261.352 316.206 261.16 318.59 260.68L318.734 261.8C316.238 262.312 313.982 262.472 311.694 262.472H310.51V253.224H311.822ZM320.062 251.832H321.374V266.168H320.062V251.832ZM325.852 254.296V261.512C328.396 261.512 330.236 261.4 332.316 261.032L332.46 262.12C330.268 262.536 328.38 262.632 325.676 262.632H324.54V253.208H331.212V254.296H325.852ZM337.34 257.496V258.584H334.972V266.216H333.66V251.832H334.972V257.496H337.34ZM339.627 265.208C339.051 265.208 338.571 264.76 338.571 264.104C338.571 263.448 339.051 262.968 339.627 262.968C340.203 262.968 340.683 263.448 340.683 264.104C340.683 264.76 340.203 265.208 339.627 265.208Z"
          fill="#AAAAAA"/>
</svg>
