<svg width="240" height="268" viewBox="0 0 240 268" fill="none" xmlns="http://www.w3.org/2000/svg">
    <path d="M67.8374 260.328V256.504H65.9334V255.448H67.8374V252.072H69.0854V260.328H67.8374ZM66.4934 258.168L66.6054 259.224C64.9734 259.544 63.6134 259.608 61.3254 259.608H60.4134V252.76H65.8374V253.816H61.6774V255.592H65.2774V256.616H61.6774V258.552C63.7094 258.552 65.0054 258.472 66.4934 258.168ZM63.7254 262.2V264.936H70.5894V262.2H63.7254ZM62.4454 265.992V261.16H71.8694V265.992H62.4454ZM70.6054 251.832H71.8694V260.472H70.6054V251.832ZM82.3321 256.024V253.288H78.7641V256.024H82.3321ZM77.4521 256.024V253.288H75.2761V252.28H85.8041V253.288H83.6441V256.024H85.7561V257.032H75.3241V256.024H77.4521ZM76.9561 263.688V265.032H85.8201V266.024H75.6761V262.744H84.0921V261.512H75.6281V260.536H85.3881V263.688H76.9561ZM74.0601 258.232H87.0521V259.272H74.0601V258.232ZM100.155 251.832V261.544H98.8429V251.832H100.155ZM89.1469 255.8H94.3309V253.816H89.0989V252.744H95.6269V256.808H90.4269V258.904C93.0669 258.904 94.9229 258.824 97.1309 258.44L97.2589 259.496C94.9709 259.896 93.0669 259.976 90.2989 259.976H89.1469V255.8ZM96.1869 260.824V261.24C96.1869 263.24 98.4269 264.728 101.003 265.128L100.507 266.136C98.3309 265.752 96.3789 264.68 95.5149 263.048C94.6669 264.696 92.6829 265.752 90.5229 266.136L90.0109 265.128C92.5709 264.728 94.8429 263.256 94.8429 261.24V260.824H96.1869ZM113.146 251.832H114.458V266.216H113.146V251.832ZM106.89 252.936C109.018 252.936 110.538 254.888 110.538 257.944C110.538 261 109.018 262.952 106.89 262.952C104.762 262.952 103.242 261 103.242 257.944C103.242 254.888 104.762 252.936 106.89 252.936ZM106.89 254.12C105.482 254.12 104.49 255.624 104.49 257.944C104.49 260.28 105.482 261.784 106.89 261.784C108.282 261.784 109.274 260.28 109.274 257.944C109.274 255.624 108.282 254.12 106.89 254.12ZM125.602 264.968V263.032H123.074V264.968H125.602ZM125.602 262.056V260.248H126.818V265.992H121.842V260.248H123.074V262.056H125.602ZM124.13 257.992C125.554 257.992 126.578 257.064 126.578 255.768C126.578 254.472 125.554 253.56 124.13 253.56C122.706 253.56 121.682 254.472 121.682 255.768C121.682 257.064 122.706 257.992 124.13 257.992ZM130.707 256.28H127.778C127.538 257.96 126.098 259.08 124.13 259.08C121.986 259.08 120.434 257.736 120.434 255.768C120.434 253.8 121.986 252.472 124.13 252.472C126.066 252.472 127.506 253.56 127.778 255.208H130.707V251.848H132.035V259.432H130.707V256.28ZM130.882 260.152V261.368C130.882 262.888 131.778 264.456 133.49 265.128L132.835 266.12C131.538 265.576 130.674 264.6 130.242 263.416C129.778 264.584 128.914 265.576 127.667 266.12L126.994 265.128C128.707 264.392 129.602 262.84 129.602 261.368V260.152H130.882ZM146.769 256.312L146.289 257.368C144.065 257.016 141.937 255.896 141.025 254.296C140.129 255.896 137.985 257.016 135.745 257.368L135.265 256.312C137.841 255.992 140.353 254.456 140.353 252.632V251.992H141.697V252.632C141.697 254.408 144.225 255.992 146.769 256.312ZM144.513 264.936V263.112H137.457V264.936H144.513ZM144.513 262.104V260.424H145.809V265.992H136.161V260.424H137.457V262.104H144.513ZM134.513 258.376H147.505V259.432H134.513V258.376ZM151.056 253.224V261.352C153.216 261.352 155.44 261.16 157.824 260.68L157.968 261.8C155.472 262.312 153.216 262.472 150.928 262.472H149.744V253.224H151.056ZM159.296 251.832H160.608V266.168H159.296V251.832ZM165.087 254.296V261.512C167.631 261.512 169.471 261.4 171.551 261.032L171.695 262.12C169.503 262.536 167.615 262.632 164.911 262.632H163.775V253.208H170.447V254.296H165.087ZM176.575 257.496V258.584H174.207V266.216H172.895V251.832H174.207V257.496H176.575ZM178.861 265.208C178.285 265.208 177.805 264.76 177.805 264.104C177.805 263.448 178.285 262.968 178.861 262.968C179.437 262.968 179.917 263.448 179.917 264.104C179.917 264.76 179.437 265.208 178.861 265.208Z"
          fill="#AAAAAA"/>
    <path d="M201.373 75.4235V155.448C201.373 159.747 197.888 163.232 193.589 163.232H74.0886C69.7893 163.232 66.3047 159.747 66.3047 155.448V75.4235C66.3047 74.6484 66.419 73.8951 66.6351 73.1856C67.5951 69.9792 70.5686 67.6438 74.0886 67.6438H193.59C197.11 67.6438 200.082 69.9784 201.048 73.1856C201.259 73.8951 201.374 74.6484 201.374 75.4235H201.373Z"
          fill="#F0F0F1"/>
    <path d="M83.089 140.157H40.8019V182.444H83.089V140.157Z" fill="#A5C5FF"/>
    <path d="M171.938 117.323H133.818V78.7871C154.911 79.0124 171.938 96.1741 171.938 117.323Z" fill="#A5C5FF"/>
    <path d="M164.892 120.848C164.892 140.188 149.216 155.864 129.872 155.864C110.528 155.864 94.8561 140.188 94.8561 120.848C94.8561 110.511 99.3378 101.218 106.466 94.8096C112.667 89.2274 120.874 85.8328 129.872 85.8328C130.002 85.8328 130.132 85.8328 130.257 85.837V120.849H164.892L164.892 120.848Z"
          fill="#BED5FF"/>
    <path d="M206.431 158.705L219.518 188.76H171.953L165.828 176.361C164.33 173.328 162.119 170.673 159.299 168.803C155.75 166.451 152.864 163.055 150.573 159.424C147.52 154.581 145.355 149.24 142.689 144.174C140.022 139.109 136.731 134.189 132.209 130.575C130.978 129.405 129.935 127.969 129.544 126.318C129.151 124.666 129.499 122.779 130.705 121.585C131.794 120.507 133.403 120.125 134.935 120.094C138.185 120.028 141.343 121.339 144.009 123.198C146.676 125.057 152.121 132.897 157.262 135.051C158.902 135.737 160.762 135.812 162.619 135.569C164.188 135.364 165.6 134.506 166.485 133.195C172.659 124.046 173.529 111.464 168.474 101.289C167.458 98.6297 167.542 95.4292 169.693 93.2468C170.397 92.5314 171.3 92.0202 172.286 91.8277C175.512 91.1964 177.906 93.8151 179.571 96.3531C181.593 99.4367 183.23 102.773 184.049 106.327C188.116 106.662 191.945 109.136 193.972 113.298C196.333 113.392 198.652 114.338 200.406 115.922C202.16 117.506 203.336 119.717 203.873 122.664C205.879 123.35 207.397 125.093 208.227 127.043C209.058 128.994 209.28 131.148 209.345 133.267C209.593 141.388 207.687 149.404 206.43 158.706L206.431 158.705Z"
          fill="#D8E6FF"/>
    <path d="M30.5102 119.3L30.8389 103.426L34.8902 114.265L44.6337 106.929L39.4879 114.921L45.8384 118.315L41.0204 119.41L42.4437 131.234L37.846 122.366L30.9482 135.723L33.4669 124.993L20 127.293L30.5102 119.3Z"
          fill="#F0F0F1"/>
    <path d="M117.375 176.633L123.414 171.936L122.475 162.409L126.366 168.85L131.734 165.092L130.661 168.984L141.664 169.387L130.526 172.875L134.82 182.806L127.171 174.486L117.375 176.633Z"
          fill="#F0F0F1"/>
    <path d="M135.941 134.269C135.664 134.269 135.406 134.094 135.314 133.816C135.199 133.47 135.386 133.096 135.732 132.981C137.289 132.463 138.443 130.712 138.417 128.908C138.393 127.221 137.419 125.456 135.875 124.3C134.512 123.279 132.677 122.654 130.571 122.49C130.207 122.461 129.935 122.143 129.963 121.78C129.991 121.416 130.311 121.146 130.672 121.172C133.03 121.356 135.102 122.071 136.666 123.242C138.56 124.659 139.708 126.77 139.738 128.889C139.771 131.283 138.262 133.531 136.148 134.235C136.079 134.258 136.008 134.269 135.939 134.269H135.941Z"
          fill="#A5C5FF"/>
    <path d="M178.548 100.361C176.941 100.361 175.333 99.7799 174.143 98.6828C172.266 96.951 171.587 94.0733 172.491 91.6858C172.621 91.3445 173.001 91.1721 173.343 91.3016C173.684 91.4311 173.856 91.8127 173.727 92.1532C173.02 94.0195 173.572 96.3575 175.04 97.711C176.507 99.0645 178.881 99.426 180.685 98.571C181.014 98.4155 181.409 98.555 181.565 98.8846C181.721 99.2141 181.581 99.6084 181.251 99.7648C180.406 100.166 179.478 100.36 178.549 100.36L178.548 100.361Z"
          fill="#A5C5FF"/>
    <path d="M184.45 128.106C184.41 128.106 184.369 128.102 184.329 128.095C183.97 128.028 183.733 127.684 183.799 127.325C185.085 120.381 184.951 113.067 183.413 106.173C183.333 105.817 183.557 105.464 183.914 105.385C184.27 105.303 184.622 105.529 184.702 105.886C186.279 112.951 186.416 120.447 185.098 127.565C185.039 127.883 184.762 128.106 184.449 128.106H184.45Z"
          fill="#A5C5FF"/>
    <path d="M193.779 131.571C193.73 131.571 193.682 131.566 193.632 131.554C193.277 131.473 193.054 131.12 193.134 130.763C194.435 125.048 194.443 119.004 193.156 113.285C193.076 112.929 193.3 112.576 193.656 112.496C194.013 112.415 194.365 112.64 194.445 112.995C195.773 118.905 195.766 125.151 194.422 131.057C194.353 131.363 194.08 131.571 193.778 131.571H193.779Z"
          fill="#A5C5FF"/>
    <path d="M202.959 133.646C202.905 133.646 202.848 133.639 202.793 133.625C202.44 133.533 202.228 133.173 202.32 132.819C203.201 129.421 203.442 125.783 203.016 122.297C202.971 121.935 203.229 121.606 203.592 121.562C203.953 121.517 204.284 121.775 204.327 122.138C204.774 125.785 204.521 129.595 203.598 133.152C203.521 133.449 203.253 133.647 202.959 133.647V133.646Z"
          fill="#A5C5FF"/>
    <path d="M129.872 85.8328C130.003 85.8328 130.132 85.8328 130.257 85.837V120.719L106.466 94.8096C112.667 89.2274 120.874 85.8328 129.872 85.8328Z" fill="white"/>
    <path d="M75.4481 175.345C75.2228 175.345 74.9975 175.26 74.8251 175.087L47.819 148.081C47.4752 147.737 47.4752 147.179 47.819 146.835C48.1629 146.491 48.7211 146.491 49.0649 146.835L76.071 173.841C76.4148 174.185 76.4148 174.743 76.071 175.087C75.8987 175.259 75.6734 175.345 75.4481 175.345Z"
          fill="white"/>
    <path d="M48.442 175.345C48.2167 175.345 47.9914 175.26 47.819 175.087C47.4752 174.743 47.4752 174.185 47.819 173.841L74.8251 146.835C75.169 146.491 75.7272 146.491 76.071 146.835C76.4148 147.179 76.4148 147.737 76.071 148.081L49.0649 175.087C48.8926 175.259 48.6673 175.345 48.442 175.345Z"
          fill="white"/>
    <path d="M201.373 75.4235V76.661H66.3047V75.4235C66.3047 74.6484 66.419 73.8951 66.6351 73.1856C67.5951 69.9792 70.5686 67.6438 74.0886 67.6438H193.59C197.11 67.6438 200.082 69.9784 201.048 73.1856C201.259 73.8951 201.374 74.6484 201.374 75.4235H201.373Z"
          fill="#D8E6FF"/>
    <path d="M75.0108 74.9064C76.5314 74.9064 77.764 73.6737 77.764 72.1531C77.764 70.6326 76.5314 69.3999 75.0108 69.3999C73.4902 69.3999 72.2576 70.6326 72.2576 72.1531C72.2576 73.6737 73.4902 74.9064 75.0108 74.9064Z"
          fill="#A5C5FF"/>
    <path d="M84.1617 74.9064C85.6823 74.9064 86.9149 73.6737 86.9149 72.1531C86.9149 70.6326 85.6823 69.3999 84.1617 69.3999C82.6411 69.3999 81.4084 70.6326 81.4084 72.1531C81.4084 73.6737 82.6411 74.9064 84.1617 74.9064Z"
          fill="#A5C5FF"/>
    <path d="M93.4949 74.9064C95.0155 74.9064 96.2482 73.6737 96.2482 72.1531C96.2482 70.6326 95.0155 69.3999 93.4949 69.3999C91.9744 69.3999 90.7417 70.6326 90.7417 72.1531C90.7417 73.6737 91.9744 74.9064 93.4949 74.9064Z"
          fill="#A5C5FF"/>
    <path d="M47.656 107.571C47.3794 107.571 47.1406 107.364 47.1095 107.082C46.8439 104.7 46.6261 102.166 47.1213 99.674C47.5097 97.7177 48.3462 95.9909 49.5004 94.7005C49.2012 91.8783 50.1276 88.8233 52.1688 86.5728C54.8892 83.5724 59.249 82.039 63.8332 82.4711C64.1359 82.4997 64.3586 82.7679 64.3301 83.0713C64.3015 83.374 64.0308 83.5942 63.7298 83.5682C59.5567 83.1739 55.4365 84.609 52.9851 87.3134C51.3592 89.1058 50.5202 91.4622 50.5395 93.7261C50.7261 93.5807 50.9178 93.4454 51.1154 93.3201C53.4861 91.8178 56.6757 91.9834 58.5344 93.706C59.5634 94.6593 60.1233 96.1868 59.9963 97.6916C59.882 99.0485 59.2313 100.209 58.2116 100.877C55.7761 102.471 52.4495 100.992 50.8699 98.6105C50.3672 97.8522 49.9998 97.0141 49.7644 96.133C49.0263 97.1771 48.4849 98.4617 48.2016 99.8892C47.7375 102.227 47.9485 104.664 48.2049 106.961C48.2386 107.263 48.0208 107.535 47.719 107.57C47.698 107.572 47.6778 107.573 47.6577 107.573L47.656 107.571ZM50.6564 95.0813C50.8329 96.1288 51.207 97.1259 51.7879 98.001C53.0481 99.9018 55.7492 101.171 57.6088 99.9548C58.3436 99.4739 58.8135 98.6156 58.8993 97.5983C58.9985 96.4231 58.5714 95.2402 57.7862 94.5122C56.2814 93.1183 53.6677 93.0048 51.7047 94.2482C51.334 94.4836 50.9834 94.7627 50.6572 95.0805L50.6564 95.0813Z"
          fill="#D8E6FF"/>
    <path d="M219.01 125.245C218.949 125.245 218.888 125.235 218.828 125.214C218.541 125.114 218.39 124.799 218.49 124.513C219.175 122.553 218.995 120.25 217.997 118.195C217.541 117.256 216.938 116.419 216.231 115.724C216.056 116.041 215.856 116.345 215.633 116.63C214.673 117.864 212.95 119.085 210.994 118.809C209.99 118.666 209.022 118.013 208.468 117.104C207.986 116.312 207.872 115.438 208.149 114.646C208.86 112.614 211.581 112.138 213.691 112.861C214.435 113.115 215.143 113.481 215.801 113.94C216.433 111.896 216.138 109.475 214.903 107.555C213.353 105.146 210.407 103.501 207.215 103.261C206.911 103.238 206.684 102.974 206.707 102.671C206.73 102.367 206.994 102.138 207.297 102.163C210.827 102.428 214.096 104.266 215.829 106.959C217.318 109.274 217.605 112.234 216.714 114.667C217.636 115.502 218.415 116.538 218.987 117.715C220.113 120.033 220.31 122.643 219.529 124.877C219.45 125.104 219.237 125.246 219.01 125.246V125.245ZM211.755 113.647C210.64 113.647 209.534 114.026 209.191 115.009C209.024 115.484 209.102 116.024 209.411 116.53C209.797 117.165 210.463 117.62 211.149 117.716C212.376 117.889 213.797 117.198 214.766 115.953C215 115.653 215.204 115.329 215.378 114.988C214.748 114.519 214.06 114.149 213.336 113.901C212.868 113.74 212.31 113.646 211.755 113.646V113.647Z"
          fill="#D8E6FF"/>
    <path d="M184.848 78.5611C189.878 73.5314 189.878 65.3767 184.848 60.3471C179.818 55.3174 171.664 55.3174 166.634 60.3471C161.604 65.3768 161.604 73.5314 166.634 78.5611C171.664 83.5908 179.818 83.5908 184.848 78.5611Z"
          fill="#A5C5FF"/>
    <path d="M174.136 72.3398L172.918 63.9868C172.668 62.2659 174.002 60.7241 175.741 60.7241C177.503 60.7241 178.843 62.3054 178.554 64.044L177.173 72.3466C177.097 73.1275 176.439 73.7236 175.654 73.7236C174.867 73.7236 174.209 73.125 174.135 72.3415L174.136 72.3398Z"
          fill="white"/>
    <path d="M175.672 78.5089C176.646 78.5089 177.436 77.7189 177.436 76.7443C177.436 75.7698 176.646 74.9797 175.672 74.9797C174.697 74.9797 173.907 75.7698 173.907 76.7443C173.907 77.7189 174.697 78.5089 175.672 78.5089Z"
          fill="white"/>
</svg>
