<svg width="41" height="26" viewBox="0 0 41 26" fill="none" xmlns="http://www.w3.org/2000/svg">
    <g id="Group 26086505">
        <path id="Vector"
              d="M21.4187 11.2654C22.448 11.2654 23.4541 10.9602 24.3099 10.3884C25.1657 9.81654 25.8327 9.00379 26.2266 8.05289C26.6204 7.10198 26.7235 6.05564 26.5227 5.04616C26.3219 4.03669 25.8263 3.10943 25.0985 2.38164C24.3707 1.65385 23.4434 1.15821 22.434 0.957417C21.4245 0.75662 20.3781 0.859677 19.4272 1.25355C18.4763 1.64743 17.6636 2.31444 17.0918 3.17023C16.5199 4.02602 16.2147 5.03216 16.2147 6.06141C16.2147 7.44159 16.763 8.76525 17.7389 9.74119C18.7149 10.7171 20.0385 11.2654 21.4187 11.2654ZM21.4187 4.32675C21.7618 4.32675 22.0972 4.42848 22.3824 4.61909C22.6677 4.8097 22.89 5.08062 23.0213 5.39758C23.1526 5.71455 23.187 6.06333 23.12 6.39983C23.0531 6.73632 22.8879 7.0454 22.6453 7.288C22.4027 7.5306 22.0936 7.69581 21.7571 7.76274C21.4206 7.82967 21.0719 7.79532 20.7549 7.66403C20.4379 7.53274 20.167 7.3104 19.9764 7.02514C19.7858 6.73987 19.6841 6.40449 19.6841 6.06141C19.6841 5.60135 19.8668 5.16013 20.1921 4.83482C20.5174 4.50951 20.9587 4.32675 21.4187 4.32675ZM28.5482 11.0225C29.563 9.56721 30.1072 7.83565 30.1072 6.06141C30.1072 4.28717 29.563 2.5556 28.5482 1.10028C29.047 0.939394 29.5679 0.857454 30.092 0.857424C31.4722 0.857424 32.7959 1.4057 33.7718 2.38164C34.7477 3.35757 35.296 4.68123 35.296 6.06141C35.296 7.44159 34.7477 8.76525 33.7718 9.74119C32.7959 10.7171 31.4722 11.2654 30.092 11.2654C29.5679 11.2654 29.047 11.1834 28.5482 11.0225ZM21.4187 14.7347C11.0107 14.7347 11.0107 21.6734 11.0107 21.6734V25.1427H31.8267V21.6734C31.8267 21.6734 31.8267 14.7347 21.4187 14.7347ZM14.4801 21.6734C14.4801 21.1703 15.0352 18.204 21.4187 18.204C27.49 18.204 28.2533 20.9101 28.3574 21.6734M40.5 21.6734V25.1427H35.296V21.6734C35.2555 20.3839 34.9585 19.1154 34.4224 17.942C33.8863 16.7685 33.1218 15.7136 32.1736 14.8388C40.5 15.6888 40.5 21.6734 40.5 21.6734Z"
              fill="#4A7CF7"/>
        <path id="Vector_2"
              d="M8.07272 12.1714H12.6164V9.14226H8.07272V4.59863H5.04363V9.14226H0.5V12.1714H5.04363V16.715H8.07272V12.1714Z"
              fill="#4A7CF7"/>
    </g>
</svg>
    