<svg width="19" height="23" viewBox="0 0 19 23" fill="none" xmlns="http://www.w3.org/2000/svg">
    <g id="Group 26086547">
        <path id="Vector 27"
              d="M13.0264 10.3647V2.8335C13.0264 2.28121 12.5787 1.8335 12.0264 1.8335H2.21387C1.66158 1.8335 1.21387 2.28121 1.21387 2.8335V20.2397C1.21387 20.792 1.66158 21.2397 2.21387 21.2397H5.71813"
              stroke="#454545" stroke-width="2" stroke-linecap="round" stroke-linejoin="round"/>
        <path id="Vector"
              d="M16.6762 20.9763C16.8305 20.9763 16.9647 20.8703 17.0004 20.7202C17.0362 20.5701 16.9642 20.415 16.8264 20.3454C16.0312 19.9438 14.6773 19.5477 13.4534 19.5477C12.2295 19.5477 10.8755 19.9438 10.0803 20.3454C9.94252 20.415 9.87054 20.5701 9.9063 20.7202C9.94206 20.8703 10.0762 20.9763 10.2306 20.9763H16.6762ZM11.8035 13.517C12.2411 13.0794 12.8345 12.8336 13.4534 12.8336C14.0722 12.8336 14.6657 13.0794 15.1033 13.517C15.5408 13.9546 15.7867 14.548 15.7867 15.1669C15.7867 15.7857 15.5408 16.3792 15.1033 16.8168C14.6657 17.2543 14.0722 17.5002 13.4534 17.5002C12.8345 17.5002 12.2411 17.2543 11.8035 16.8168C11.3659 16.3792 11.1201 15.7857 11.1201 15.1669C11.1201 14.548 11.3659 13.9546 11.8035 13.517ZM14.4972 14.1231C14.2203 13.8462 13.8449 13.6907 13.4534 13.6907C13.0619 13.6907 12.6864 13.8462 12.4096 14.1231C12.1327 14.3999 11.9772 14.7754 11.9772 15.1669C11.9772 15.5584 12.1327 15.9338 12.4096 16.2107C12.6864 16.4875 13.0619 16.643 13.4534 16.643C13.8449 16.643 14.2203 16.4875 14.4972 16.2107C14.774 15.9338 14.9295 15.5584 14.9295 15.1669C14.9295 14.7754 14.774 14.3999 14.4972 14.1231ZM8.45345 21.0239C8.45345 20.7023 8.61157 20.3963 8.92891 20.1032C9.24857 19.8079 9.70727 19.5485 10.2421 19.3343C11.3123 18.9057 12.6035 18.6906 13.4534 18.6906C14.3032 18.6906 15.5944 18.9057 16.6646 19.3343C17.1995 19.5485 17.6582 19.8079 17.9778 20.1032C18.2952 20.3963 18.4533 20.7023 18.4533 21.0239V21.8334H8.45345V21.0239Z"
              fill="#454545" stroke="#454545" stroke-width="0.666667" stroke-linecap="round" stroke-linejoin="round"/>
        <path id="Vector 28" d="M1.30762 5.7085H12.6514" stroke="#454545" stroke-width="2" stroke-linecap="round" stroke-linejoin="round"/>
        <path id="Vector 29" d="M1.74512 17.5835H7.68262" stroke="#454545" stroke-width="2" stroke-linecap="round" stroke-linejoin="round"/>
    </g>
</svg>
