<svg width="24" height="24" viewBox="0 0 24 24" fill="none" xmlns="http://www.w3.org/2000/svg">
    <g id="Group 26086463">
        <mask id="mask0_1732_54555" style="mask-type:alpha" maskUnits="userSpaceOnUse" x="0" y="0" width="24" height="24">
            <rect id="Bounding box" width="24" height="24" fill="#D9D9D9"/>
        </mask>
        <g mask="url(#mask0_1732_54555)">
            <path id="menu"
                  d="M3.11111 18.8333C2.7963 18.8333 2.53241 18.7269 2.31944 18.5139C2.10648 18.3009 2 18.037 2 17.7222C2 17.4074 2.10648 17.1435 2.31944 16.9306C2.53241 16.7176 2.7963 16.6111 3.11111 16.6111H14.3077C14.6225 16.6111 14.8864 16.7176 15.0994 16.9306C15.3123 17.1435 15.4188 17.4074 15.4188 17.7222C15.4188 18.037 15.3123 18.3009 15.0994 18.5139C14.8864 18.7269 14.6225 18.8333 14.3077 18.8333H3.11111ZM3.11111 13.2778C2.7963 13.2778 2.53241 13.1713 2.31944 12.9583C2.10648 12.7454 2 12.4815 2 12.1667C2 11.8519 2.10648 11.588 2.31944 11.375C2.53241 11.162 2.7963 11.0556 3.11111 11.0556H14.3077C14.6225 11.0556 14.8864 11.162 15.0994 11.375C15.3123 11.588 15.4188 11.8519 15.4188 12.1667C15.4188 12.4815 15.3123 12.7454 15.0994 12.9583C14.8864 13.1713 14.6225 13.2778 14.3077 13.2778H3.11111ZM3.11111 7.72222C2.7963 7.72222 2.53241 7.61574 2.31944 7.40278C2.10648 7.18981 2 6.92593 2 6.61111C2 6.2963 2.10648 6.03241 2.31944 5.81944C2.53241 5.60648 2.7963 5.5 3.11111 5.5H20.8889C21.2037 5.5 21.4676 5.60648 21.6806 5.81944C21.8935 6.03241 22 6.2963 22 6.61111C22 6.92593 21.8935 7.18981 21.6806 7.40278C21.4676 7.61574 21.2037 7.72222 20.8889 7.72222H3.11111Z"
                  fill="#222222"/>
        </g>
    </g>
</svg>
