<svg width="20" height="20" viewBox="0 0 20 20" fill="none" xmlns="http://www.w3.org/2000/svg">
    <g id="Icon/20">
        <mask id="mask0_636_240161" style="mask-type:alpha" maskUnits="userSpaceOnUse" x="0" y="0" width="20" height="20">
            <rect id="Bounding box" width="20" height="20" fill="#D9D9D9"/>
        </mask>
        <g mask="url(#mask0_636_240161)">
            <path id="Union"
                  d="M4.34596 4.34584C4.35635 4.33545 4.37044 4.32961 4.38514 4.32961H14.4689C14.4836 4.32961 14.4977 4.33545 14.5081 4.34584C14.5185 4.35623 14.5243 4.37032 14.5243 4.38502V5.82556C14.5243 5.84025 14.5185 5.85435 14.5081 5.86474C14.4977 5.87513 14.4836 5.88097 14.4689 5.88097H4.38514C4.37044 5.88097 4.35635 5.87513 4.34596 5.86474C4.33557 5.85435 4.32973 5.84025 4.32973 5.82556V4.38502C4.32973 4.37032 4.33557 4.35623 4.34596 4.34584ZM4.38514 2.99988C4.01778 2.99988 3.66546 3.14581 3.4057 3.40558C3.14593 3.66534 3 4.01765 3 4.38502V5.82556C3 6.19292 3.14593 6.54524 3.4057 6.805C3.66546 7.06476 4.01778 7.2107 4.38514 7.2107H14.4689C14.8363 7.2107 15.1886 7.06476 15.4484 6.805C15.7081 6.54524 15.8541 6.19292 15.8541 5.82556V4.38502C15.8541 4.01765 15.7081 3.66534 15.4484 3.40558C15.1886 3.14581 14.8363 2.99988 14.4689 2.99988H4.38514ZM4.34596 10.108C4.35635 10.0976 4.37044 10.0918 4.38514 10.0918H7.26622C7.28092 10.0918 7.29501 10.0976 7.3054 10.108C7.31579 10.1184 7.32163 10.1325 7.32163 10.1472V14.4688C7.32163 14.4835 7.31579 14.4976 7.3054 14.508C7.29501 14.5184 7.28092 14.5242 7.26622 14.5242H4.38514C4.37044 14.5242 4.35635 14.5184 4.34596 14.508C4.33557 14.4976 4.32973 14.4835 4.32973 14.4688V10.1472C4.32973 10.1325 4.33557 10.1184 4.34596 10.108ZM4.38514 8.76205C4.01778 8.76205 3.66546 8.90799 3.4057 9.16775C3.14593 9.42751 3 9.77983 3 10.1472V14.4688C3 14.8362 3.14593 15.1885 3.4057 15.4483C3.66546 15.708 4.01778 15.854 4.38514 15.854H7.26622C7.63359 15.854 7.9859 15.708 8.24567 15.4483C8.50543 15.1885 8.65136 14.8362 8.65136 14.4688V10.1472C8.65136 9.77983 8.50543 9.42751 8.24567 9.16775C7.9859 8.90799 7.63359 8.76205 7.26622 8.76205H4.38514ZM10.8676 8.76205H15.1892C15.5564 8.76205 15.8541 9.05972 15.8541 9.42692C15.8541 9.79412 15.5564 10.0918 15.1892 10.0918H10.8676C10.5004 10.0918 10.2027 9.79412 10.2027 9.42692C10.2027 9.05972 10.5004 8.76205 10.8676 8.76205ZM10.8676 11.6431C10.5004 11.6431 10.2027 11.9408 10.2027 12.308C10.2027 12.6752 10.5004 12.9729 10.8676 12.9729H12.1605C12.3385 12.4497 12.6569 11.9914 13.071 11.6431H10.8676ZM12.0584 14.5242C12.157 15.023 12.3792 15.4774 12.6919 15.854H10.8676C10.5004 15.854 10.2027 15.5563 10.2027 15.1891C10.2027 14.8219 10.5004 14.5242 10.8676 14.5242H12.0584ZM15.0007 10.94C13.3443 10.94 12.0014 12.2829 12.0014 13.9393C12.0014 15.5958 13.3443 16.9386 15.0007 16.9386C16.6572 16.9386 18 15.5958 18 13.9393C18 12.2829 16.6572 10.94 15.0007 10.94ZM14.526 12.79C14.526 12.5278 14.7386 12.3153 15.0007 12.3153C15.2629 12.3153 15.4754 12.5278 15.4754 12.79V13.4646H16.1501C16.4123 13.4646 16.6248 13.6771 16.6248 13.9393C16.6248 14.2015 16.4123 14.414 16.1501 14.414H15.4754V15.0886C15.4754 15.3508 15.2629 15.5633 15.0007 15.5633C14.7386 15.5633 14.526 15.3508 14.526 15.0886V14.414H13.8515C13.5893 14.414 13.3768 14.2015 13.3768 13.9393C13.3768 13.6771 13.5893 13.4646 13.8515 13.4646H14.526V12.79Z"
                  fill="white"/>
        </g>
    </g>
</svg>
