<svg width="14" height="8" viewBox="0 0 14 8" fill="none" xmlns="http://www.w3.org/2000/svg">
    <path d="M12.9998 7.49993C12.8682 7.50069 12.7377 7.47546 12.6159 7.4257C12.494 7.37593 12.3832 7.30261 12.2898 7.20993L7.70979 2.61994C7.61683 2.52621 7.50622 2.45181 7.38437 2.40105C7.26251 2.35028 7.1318 2.32414 6.99979 2.32414C6.86778 2.32414 6.73707 2.35028 6.61521 2.40105C6.49335 2.45181 6.38275 2.52621 6.28979 2.61994L1.70979 7.20993C1.52149 7.39823 1.26609 7.50402 0.999789 7.50402C0.733487 7.50402 0.478092 7.39823 0.289789 7.20993C0.101485 7.02162 -0.00430298 6.76623 -0.00430298 6.49993C-0.00430298 6.36807 0.0216689 6.2375 0.0721292 6.11568C0.12259 5.99386 0.19655 5.88317 0.289789 5.78993L4.87979 1.20994C5.44973 0.662373 6.20943 0.356567 6.99979 0.356567C7.79014 0.356567 8.54985 0.662373 9.11979 1.20994L13.7098 5.78993C13.8035 5.88289 13.8779 5.99349 13.9287 6.11535C13.9794 6.23721 14.0056 6.36792 14.0056 6.49993C14.0056 6.63194 13.9794 6.76265 13.9287 6.8845C13.8779 7.00636 13.8035 7.11696 13.7098 7.20993C13.6163 7.30261 13.5055 7.37593 13.3837 7.4257C13.2619 7.47546 13.1314 7.50069 12.9998 7.49993Z"
          fill="#4C88E4"/>
</svg>
