<svg width="24" height="24" viewBox="0 0 24 24" fill="none" xmlns="http://www.w3.org/2000/svg">
    <mask id="mask0_82_7170" style="mask-type:alpha" maskUnits="userSpaceOnUse" x="0" y="0" width="24" height="24">
        <rect width="24" height="24" fill="#D9D9D9"/>
    </mask>
    <g mask="url(#mask0_82_7170)">
        <path d="M2 9V6C2 5.45 2.19583 4.97917 2.5875 4.5875C2.97917 4.19583 3.45 4 4 4H20C20.55 4 21.0208 4.19583 21.4125 4.5875C21.8042 4.97917 22 5.45 22 6V11.5H20V6H4V9H2ZM7 17C6.81667 17 6.64167 16.9542 6.475 16.8625C6.30833 16.7708 6.18333 16.6333 6.1 16.45L4.375 13H2V11H5C5.18333 11 5.35833 11.0458 5.525 11.1375C5.69167 11.2292 5.81667 11.3667 5.9 11.55L7 13.75L10.1 7.55C10.1833 7.38333 10.3083 7.25833 10.475 7.175C10.6417 7.09167 10.8167 7.05 11 7.05C11.1833 7.05 11.3583 7.09167 11.525 7.175C11.6917 7.25833 11.8167 7.38333 11.9 7.55L13.575 10.9C13.275 11.0833 12.9875 11.275 12.7125 11.475C12.4375 11.675 12.1833 11.9 11.95 12.15L11 10.25L7.9 16.45C7.81667 16.6333 7.69167 16.7708 7.525 16.8625C7.35833 16.9542 7.18333 17 7 17ZM10.675 20H4C3.45 20 2.97917 19.8042 2.5875 19.4125C2.19583 19.0208 2 18.55 2 18V15H4V18H10.075C10.125 18.35 10.2 18.6917 10.3 19.025C10.4 19.3583 10.525 19.6833 10.675 20ZM17 22C15.6167 22 14.4375 21.5125 13.4625 20.5375C12.4875 19.5625 12 18.3833 12 17C12 15.6167 12.4875 14.4375 13.4625 13.4625C14.4375 12.4875 15.6167 12 17 12C18.3833 12 19.5625 12.4875 20.5375 13.4625C21.5125 14.4375 22 15.6167 22 17C22 18.3833 21.5125 19.5625 20.5375 20.5375C19.5625 21.5125 18.3833 22 17 22ZM17.2 17.5L19.475 15.225L18.775 14.525L16.5 16.8L17.2 17.5Z"
              fill="#1C1B1F"/>
    </g>
</svg>
