<svg width="20" height="20" viewBox="0 0 20 20" fill="none" xmlns="http://www.w3.org/2000/svg">
    <g id="Icon/20">
        <mask id="mask0_697_363603" style="mask-type:alpha" maskUnits="userSpaceOnUse" x="0" y="0" width="20" height="20">
            <rect id="Bounding box" width="20" height="20" fill="#D9D9D9"/>
        </mask>
        <g mask="url(#mask0_697_363603)">
            <g id="Subtract">
                <path d="M5.67421 17.7383C5.26143 17.7383 4.90921 17.5908 4.61754 17.2957C4.32588 17.0007 4.18004 16.646 4.18004 16.2316L4.18 12.1188H4C3.44771 12.1188 3 11.6691 3 11.1144V8.46604C3 7.9113 3.44772 7.46159 4 7.46159H4.18L4.18004 3.17368C4.18004 2.75934 4.32692 2.40464 4.62067 2.10958C4.91442 1.81452 5.26754 1.66699 5.68004 1.66699H11.555C11.7525 1.66699 11.9408 1.70187 12.1198 1.77162C12.2989 1.84138 12.4648 1.95298 12.6175 2.10644L15.7425 5.24537C15.8953 5.39883 16.0064 5.56547 16.0759 5.7453C16.1453 5.92512 16.18 6.11423 16.18 6.31261V13.8504C16.5261 14.3183 16.7308 14.8978 16.7308 15.5254C16.7308 17.0782 15.4776 18.337 13.9317 18.337C13.2801 18.337 12.6805 18.1133 12.2049 17.7383H5.67421ZM14.68 6.68928H11.93C11.7175 6.68928 11.5394 6.61708 11.3957 6.47269C11.2519 6.3283 11.18 6.14938 11.18 5.93594V3.17368H5.68004L5.68 7.46159H12.3132C12.8655 7.46159 13.3132 7.9113 13.3132 8.46604V11.1144C13.3132 11.6691 12.8655 12.1188 12.3132 12.1188H5.68L5.68004 16.2316H11.2217C11.1635 16.006 11.1326 15.7693 11.1326 15.5254C11.1326 13.9727 12.3858 12.7139 13.9317 12.7139C14.1909 12.7139 14.4418 12.7493 14.68 12.8155V6.68928ZM5.79518 11.2651C6.10518 11.2651 6.44518 11.1596 6.71018 10.9236L6.42018 10.4364C6.26518 10.567 6.07518 10.6624 5.87518 10.6624C5.47018 10.6624 5.18018 10.3209 5.18018 9.79358C5.18018 9.26121 5.47018 8.91468 5.89518 8.91468C6.05518 8.91468 6.18518 8.97997 6.32518 9.1005L6.67518 8.62338C6.47018 8.4476 6.20518 8.312 5.86018 8.312C5.10018 8.312 4.43018 8.85441 4.43018 9.79358C4.43018 10.7227 5.02018 11.2651 5.79518 11.2651ZM7.9169 11.2651C8.6469 11.2651 9.0319 10.8683 9.0319 10.3762C9.0319 9.85384 8.6219 9.66802 8.2519 9.5274C8.22011 9.51549 8.18856 9.50399 8.15756 9.4927C7.90083 9.39916 7.6819 9.31939 7.6819 9.13566C7.6819 8.97495 7.8019 8.86445 8.0519 8.86445C8.2619 8.86445 8.4569 8.9649 8.6569 9.10552L8.9869 8.65854C8.7519 8.48276 8.4419 8.312 8.0319 8.312C7.4019 8.312 6.9919 8.66858 6.9919 9.17584C6.9919 9.64291 7.4019 9.85887 7.7569 9.99447L7.82204 10.0198C8.09314 10.1247 8.3419 10.221 8.3419 10.4163C8.3419 10.5921 8.2169 10.7127 7.9369 10.7127C7.6769 10.7127 7.4369 10.6022 7.1869 10.4063L6.8519 10.8683C7.1269 11.0994 7.5419 11.2651 7.9169 11.2651ZM10.0975 11.1948H10.9475L11.8825 8.38231H11.1775L10.7675 9.78353L10.746 9.8625L10.746 9.86252L10.746 9.86253C10.6774 10.115 10.6058 10.3782 10.5425 10.6373H10.5175C10.489 10.5286 10.4598 10.4191 10.4307 10.31C10.3832 10.1319 10.3359 9.95484 10.2925 9.78353L9.88248 8.38231H9.14248L10.0975 11.1948ZM13.6138 15.9307L12.9869 15.3038C12.8621 15.179 12.6598 15.179 12.535 15.3038C12.4102 15.4286 12.4102 15.631 12.535 15.7558L13.705 16.9258C13.7676 16.9884 13.8496 17.0196 13.9316 17.0194C14.0142 17.0201 14.097 16.9889 14.1601 16.9258L15.3284 15.7575C15.4532 15.6327 15.4532 15.4304 15.3284 15.3056C15.2036 15.1808 15.0013 15.1808 14.8765 15.3056L14.253 15.9291L14.253 14.228C14.253 14.0515 14.1099 13.9084 13.9334 13.9084C13.7569 13.9084 13.6138 14.0515 13.6138 14.228V15.9307Z"
                      fill="white"/>
            </g>
        </g>
    </g>
</svg>
