<svg width="27" height="16" viewBox="0 0 27 16" fill="none" xmlns="http://www.w3.org/2000/svg">
    <g id="Group 26086504">
        <path id="Vector"
              d="M14.4871 6.87746C15.1531 6.87746 15.8042 6.67996 16.358 6.30993C16.9118 5.93989 17.3434 5.41395 17.5983 4.79861C17.8532 4.18327 17.9199 3.50616 17.7899 2.85292C17.66 2.19968 17.3393 1.59963 16.8683 1.12867C16.3973 0.65771 15.7973 0.336981 15.1441 0.207042C14.4908 0.0771041 13.8137 0.143793 13.1984 0.398676C12.583 0.653559 12.0571 1.08519 11.6871 1.63898C11.317 2.19277 11.1195 2.84386 11.1195 3.5099C11.1195 4.40303 11.4743 5.25959 12.1059 5.89113C12.7374 6.52267 13.5939 6.87746 14.4871 6.87746ZM14.4871 2.38738C14.7091 2.38738 14.9261 2.45321 15.1107 2.57656C15.2953 2.6999 15.4392 2.87522 15.5242 3.08033C15.6091 3.28544 15.6313 3.51115 15.588 3.72889C15.5447 3.94664 15.4378 4.14665 15.2808 4.30364C15.1238 4.46063 14.9238 4.56754 14.7061 4.61085C14.4883 4.65416 14.2626 4.63194 14.0575 4.54697C13.8524 4.46201 13.6771 4.31814 13.5537 4.13354C13.4304 3.94894 13.3646 3.73191 13.3646 3.5099C13.3646 3.21219 13.4828 2.92667 13.6933 2.71616C13.9039 2.50564 14.1894 2.38738 14.4871 2.38738ZM19.1006 6.72031C19.7574 5.77855 20.1095 4.65803 20.1095 3.5099C20.1095 2.36177 19.7574 1.24125 19.1006 0.299488C19.4234 0.195379 19.7605 0.142355 20.0997 0.142335C20.9928 0.142335 21.8494 0.497131 22.4809 1.12867C23.1125 1.76021 23.4673 2.61677 23.4673 3.5099C23.4673 4.40303 23.1125 5.25959 22.4809 5.89113C21.8494 6.52267 20.9928 6.87746 20.0997 6.87746C19.7605 6.87744 19.4234 6.82442 19.1006 6.72031ZM14.4871 9.12251C7.75195 9.12251 7.75195 13.6126 7.75195 13.6126V15.8576H21.2222V13.6126C21.2222 13.6126 21.2222 9.12251 14.4871 9.12251ZM9.997 13.6126C9.997 13.2871 10.3562 11.3675 14.4871 11.3675C18.4159 11.3675 18.9098 13.1187 18.9772 13.6126M26.8348 13.6126V15.8576H23.4673V13.6126C23.441 12.7782 23.2488 11.9573 22.9019 11.1979C22.555 10.4386 22.0603 9.75595 21.4467 9.18986C26.8348 9.73989 26.8348 13.6126 26.8348 13.6126Z"
              fill="white"/>
        <rect id="Rectangle 12482" x="0.164795" y="5.16272" width="9.41152" height="1.75916" fill="white"/>
        <rect id="Rectangle 12484" x="0.164795" y="1.64441" width="9.41152" height="1.75916" fill="white"/>
        <path id="Rectangle 12483" d="M0.164795 8.72498H7.09725V10.4841H0.164795V8.72498Z" fill="white"/>
    </g>
</svg>
