<svg width="18" height="18" viewBox="0 0 18 18" fill="none" xmlns="http://www.w3.org/2000/svg">
    <mask id="mask0_1_13876" style="mask-type:alpha" maskUnits="userSpaceOnUse" x="0" y="0" width="18" height="18">
        <rect width="18" height="18" fill="#D9D9D9"/>
    </mask>
    <g mask="url(#mask0_1_13876)">
        <path d="M6.29961 14.4L3.59961 11.7L6.29961 8.99998L7.25586 9.95623L6.18711 11.025H8.99961V12.375H6.18711L7.25586 13.4437L6.29961 14.4ZM11.0285 12.375C10.8384 12.375 10.6777 12.3107 10.5465 12.182C10.4152 12.0534 10.3496 11.894 10.3496 11.7039C10.3496 11.5138 10.4139 11.3531 10.5425 11.2219C10.6712 11.0906 10.8305 11.025 11.0207 11.025C11.2108 11.025 11.3715 11.0893 11.5027 11.2179C11.634 11.3465 11.6996 11.5059 11.6996 11.696C11.6996 11.8862 11.6353 12.0469 11.5067 12.1781C11.378 12.3094 11.2187 12.375 11.0285 12.375ZM13.7285 12.375C13.5384 12.375 13.3777 12.3107 13.2465 12.182C13.1152 12.0534 13.0496 11.894 13.0496 11.7039C13.0496 11.5138 13.1139 11.3531 13.2425 11.2219C13.3712 11.0906 13.5305 11.025 13.7207 11.025C13.9108 11.025 14.0715 11.0893 14.2027 11.2179C14.334 11.3465 14.3996 11.5059 14.3996 11.696C14.3996 11.8862 14.3353 12.0469 14.2067 12.1781C14.078 12.3094 13.9187 12.375 13.7285 12.375ZM12.5996 8.99998L11.6434 8.04373L12.7121 6.97498H9.89961V5.62498H12.7121L11.6434 4.55623L12.5996 3.59998L15.2996 6.29998L12.5996 8.99998ZM5.17855 6.97498C4.98842 6.97498 4.82773 6.91066 4.69648 6.78204C4.56523 6.65341 4.49961 6.49404 4.49961 6.30391C4.49961 6.11379 4.56392 5.9531 4.69255 5.82185C4.82117 5.6906 4.98055 5.62498 5.17067 5.62498C5.3608 5.62498 5.52148 5.68929 5.65273 5.81791C5.78398 5.94654 5.84961 6.10591 5.84961 6.29604C5.84961 6.48616 5.7853 6.64685 5.65667 6.7781C5.52805 6.90935 5.36867 6.97498 5.17855 6.97498ZM7.87855 6.97498C7.68842 6.97498 7.52773 6.91066 7.39648 6.78204C7.26523 6.65341 7.19961 6.49404 7.19961 6.30391C7.19961 6.11379 7.26392 5.9531 7.39255 5.82185C7.52117 5.6906 7.68055 5.62498 7.87067 5.62498C8.0608 5.62498 8.22148 5.68929 8.35273 5.81791C8.48398 5.94654 8.54961 6.10591 8.54961 6.29604C8.54961 6.48616 8.4853 6.64685 8.35667 6.7781C8.22805 6.90935 8.06867 6.97498 7.87855 6.97498Z"
              fill="#6750A4"/>
    </g>
</svg>
