<svg width="20" height="20" viewBox="0 0 20 20" fill="none" xmlns="http://www.w3.org/2000/svg">
    <g id="Icon/20/Icon/20/icon22">
        <mask id="mask0_352_22656" style="mask-type:alpha" maskUnits="userSpaceOnUse" x="0" y="0" width="20" height="20">
            <rect id="Bounding box" width="20" height="20" fill="#D9D9D9"/>
        </mask>
        <g mask="url(#mask0_352_22656)">
            <g id="android">
                <mask id="mask1_352_22656" style="mask-type:alpha" maskUnits="userSpaceOnUse" x="0" y="0" width="20" height="20">
                    <rect id="Bounding box_2" width="20" height="20" fill="#D9D9D9"/>
                </mask>
                <g mask="url(#mask1_352_22656)">
                    <path id="android_2"
                          d="M1.00049 15.1659C1.12321 13.7069 1.56979 12.3637 2.34023 11.1365C3.11066 9.90923 4.13677 8.93425 5.41855 8.21154L3.90496 5.59343C3.82314 5.47071 3.80269 5.34116 3.8436 5.2048C3.8845 5.06844 3.97314 4.96617 4.1095 4.89799C4.21859 4.82981 4.34131 4.81618 4.47767 4.85709C4.61403 4.89799 4.72312 4.97981 4.80493 5.10253L6.31853 7.72065C7.49123 7.22975 8.71847 6.9843 10.0003 6.9843C11.282 6.9843 12.5093 7.22975 13.682 7.72065L15.1956 5.10253C15.2774 4.97981 15.3865 4.89799 15.5228 4.85709C15.6592 4.81618 15.7819 4.82981 15.891 4.89799C16.0274 4.96617 16.116 5.06844 16.1569 5.2048C16.1978 5.34116 16.1774 5.47071 16.0955 5.59343L14.582 8.21154C15.8637 8.93425 16.8898 9.90923 17.6603 11.1365C18.4307 12.3637 18.8773 13.7069 19 15.1659H1.00049ZM5.90945 12.916C6.19581 12.916 6.43785 12.8171 6.63557 12.6194C6.83329 12.4217 6.93215 12.1796 6.93215 11.8933C6.93215 11.6069 6.83329 11.3649 6.63557 11.1671C6.43785 10.9694 6.19581 10.8706 5.90945 10.8706C5.62309 10.8706 5.38106 10.9694 5.18333 11.1671C4.98561 11.3649 4.88675 11.6069 4.88675 11.8933C4.88675 12.1796 4.98561 12.4217 5.18333 12.6194C5.38106 12.8171 5.62309 12.916 5.90945 12.916ZM14.0911 12.916C14.3774 12.916 14.6195 12.8171 14.8172 12.6194C15.0149 12.4217 15.1138 12.1796 15.1138 11.8933C15.1138 11.6069 15.0149 11.3649 14.8172 11.1671C14.6195 10.9694 14.3774 10.8706 14.0911 10.8706C13.8047 10.8706 13.5627 10.9694 13.3649 11.1671C13.1672 11.3649 13.0684 11.6069 13.0684 11.8933C13.0684 12.1796 13.1672 12.4217 13.3649 12.6194C13.5627 12.8171 13.8047 12.916 14.0911 12.916Z"
                          fill="#222222"/>
                </g>
            </g>
        </g>
    </g>
</svg>
