<svg width="18" height="18" viewBox="0 0 18 18" fill="none" xmlns="http://www.w3.org/2000/svg">
    <mask id="mask0_1_13833" style="mask-type:alpha" maskUnits="userSpaceOnUse" x="0" y="0" width="18" height="18">
        <rect width="18" height="18" fill="#D9D9D9"/>
    </mask>
    <g mask="url(#mask0_1_13833)">
        <path d="M8.19414 10.4625L12.3379 6.31876L11.3066 5.30626L8.19414 8.41876L6.67539 6.90001L5.64414 7.91251L8.19414 10.4625ZM0.900391 15.3V13.95H17.1004V15.3H0.900391ZM3.15039 13.05C2.77914 13.05 2.46133 12.9178 2.19695 12.6535C1.93258 12.3891 1.80039 12.0713 1.80039 11.7V4.05001C1.80039 3.67876 1.93258 3.36095 2.19695 3.09658C2.46133 2.8322 2.77914 2.70001 3.15039 2.70001H14.8504C15.2216 2.70001 15.5395 2.8322 15.8038 3.09658C16.0682 3.36095 16.2004 3.67876 16.2004 4.05001V11.7C16.2004 12.0713 16.0682 12.3891 15.8038 12.6535C15.5395 12.9178 15.2216 13.05 14.8504 13.05H3.15039ZM3.15039 11.7H14.8504V4.05001H3.15039V11.7Z"
              fill="white"/>
    </g>
</svg>
