<svg width="20" height="20" viewBox="0 0 20 20" fill="none" xmlns="http://www.w3.org/2000/svg">
    <g id="Icon/20">
        <mask id="mask0_697_364536" style="mask-type:alpha" maskUnits="userSpaceOnUse" x="0" y="0" width="21" height="20">
            <rect id="Bounding box" x="0.25" width="20" height="20" fill="#D9D9D9"/>
        </mask>
        <g mask="url(#mask0_697_364536)">
            <g id="Subtract">
                <path d="M6.03965 17.7364C5.62503 17.7364 5.27123 17.5888 4.97827 17.2938C4.6853 16.9987 4.53882 16.644 4.53882 16.2297L4.53877 12.1169H4.35797C3.80323 12.1169 3.35352 11.6672 3.35352 11.1124V8.46409C3.35352 7.90934 3.80323 7.45963 4.35797 7.45963H4.53877L4.53882 3.17173C4.53882 2.75739 4.68635 2.40269 4.98141 2.10763C5.27647 1.81257 5.63117 1.66504 6.0455 1.66504H11.9467C12.1451 1.66504 12.3342 1.69992 12.514 1.76967C12.6938 1.83942 12.8605 1.95103 13.0139 2.10449L16.1529 5.24342C16.3063 5.39688 16.4179 5.56352 16.4877 5.74335C16.5574 5.92317 16.5923 6.11227 16.5923 6.31065V13.8485C16.9399 14.3163 17.1455 14.8959 17.1455 15.5235C17.1455 17.0763 15.8867 18.335 14.3339 18.335C13.6794 18.335 13.0772 18.1114 12.5994 17.7364H6.03965ZM15.0856 6.68733H12.3234C12.1099 6.68733 11.931 6.61513 11.7866 6.47074C11.6422 6.32635 11.57 6.14743 11.57 5.93398V3.17173H6.0455L6.04546 7.45963H12.7082C13.263 7.45963 13.7127 7.90934 13.7127 8.46409V11.1124C13.7127 11.6672 13.263 12.1169 12.7082 12.1169H6.04546L6.0455 16.2297H11.6118C11.5535 16.004 11.5224 15.7674 11.5224 15.5235C11.5224 13.9707 12.7812 12.7119 14.3339 12.7119C14.5943 12.7119 14.8464 12.7473 15.0856 12.8135V6.68733ZM6.16115 11.2632C6.47254 11.2632 6.81405 11.1577 7.08023 10.9216L6.78894 10.4345C6.63325 10.5651 6.4424 10.6605 6.24151 10.6605C5.83471 10.6605 5.54341 10.319 5.54341 9.79162C5.54341 9.25926 5.83471 8.91272 6.2616 8.91272C6.42231 8.91272 6.55289 8.97801 6.69352 9.09855L7.04508 8.62143C6.83916 8.44565 6.57298 8.31005 6.22644 8.31005C5.46306 8.31005 4.79007 8.85246 4.79007 9.79162C4.79007 10.7207 5.3827 11.2632 6.16115 11.2632ZM8.29233 11.2632C9.02558 11.2632 9.4123 10.8664 9.4123 10.3742C9.4123 9.85189 9.00047 9.66607 8.62882 9.52544C8.5969 9.51354 8.5652 9.50204 8.53406 9.49075C8.27619 9.3972 8.05628 9.31743 8.05628 9.1337C8.05628 8.97299 8.17682 8.8625 8.42793 8.8625C8.63887 8.8625 8.83474 8.96295 9.03563 9.10357L9.3671 8.65659C9.13105 8.48081 8.81967 8.31005 8.40784 8.31005C7.77503 8.31005 7.36321 8.66663 7.36321 9.17388C7.36321 9.64096 7.77503 9.85691 8.13162 9.99252L8.19705 10.0178C8.46935 10.1227 8.71922 10.219 8.71922 10.4144C8.71922 10.5902 8.59367 10.7107 8.31242 10.7107C8.05126 10.7107 7.81019 10.6002 7.55908 10.4043L7.22258 10.8664C7.49881 11.0974 7.91566 11.2632 8.29233 11.2632ZM10.4826 11.1928H11.3364L12.2756 8.38036H11.5675L11.1556 9.78158L11.1341 9.86055C11.0651 10.113 10.9933 10.3762 10.9296 10.6354H10.9045C10.8759 10.5267 10.8465 10.4171 10.8173 10.3081C10.7696 10.13 10.7221 9.95288 10.6785 9.78158L10.2667 8.38036H9.52338L10.4826 11.1928ZM13.9673 14.9952V16.6979C13.9673 16.8744 14.1104 17.0175 14.2869 17.0175C14.4634 17.0175 14.6065 16.8744 14.6065 16.6979L14.6065 14.9969L15.23 15.6204C15.3548 15.7452 15.5571 15.7452 15.6819 15.6204C15.8067 15.4956 15.8067 15.2932 15.6819 15.1684L14.5136 14.0001C14.4505 13.9371 14.3677 13.9059 14.2851 13.9065C14.2031 13.9064 14.1211 13.9376 14.0586 14.0001L12.8885 15.1701C12.7637 15.2949 12.7637 15.4973 12.8885 15.6221C13.0133 15.7469 13.2157 15.7469 13.3405 15.6221L13.9673 14.9952Z"
                      fill="white"/>
            </g>
        </g>
    </g>
</svg>
