<svg width="18" height="6" viewBox="0 0 18 6" fill="none" xmlns="http://www.w3.org/2000/svg">
    <g id="Group 26086586">
        <g id="LIVE">
            <path id="Vector" d="M14.0693 5.515V0.485107H17.2603V1.48568H15.2795V2.41864H16.9629V3.43273H15.2795V4.50091H17.3347V5.515H14.0693Z" fill="#454545"/>
            <path id="Vector_2"
                  d="M10.7596 5.515L9.25195 0.485107H10.5297L11.1044 2.77695C11.2531 3.3178 11.3477 3.83837 11.4965 4.38598H11.5303C11.6723 3.83837 11.7804 3.3178 11.9224 2.77695L12.4903 0.485107H13.7207L12.2063 5.515H10.7596Z"
                  fill="#454545"/>
            <path id="Vector_3" d="M7.7002 5.515V0.485107H8.91034V5.515H7.7002Z" fill="#454545"/>
            <path id="Vector_4" d="M3.83496 5.515V0.485107H5.04511V4.50091H6.99893V5.515H3.83496Z" fill="#454545"/>
        </g>
        <ellipse id="Ellipse 94" cx="1.62489" cy="3.00013" rx="0.959849" ry="0.959849" fill="#454545"/>
    </g>
</svg>
