<svg width="20" height="20" viewBox="0 0 20 20" fill="none" xmlns="http://www.w3.org/2000/svg">
    <g id="Icon/20">
        <mask id="mask0_706_8954" style="mask-type:alpha" maskUnits="userSpaceOnUse" x="0" y="0" width="20" height="20">
            <rect id="Bounding box" width="20" height="20" fill="#D9D9D9"/>
        </mask>
        <g mask="url(#mask0_706_8954)">
            <g id="Subtract">
                <path d="M5.67421 17.7379C5.26143 17.7379 4.90921 17.5904 4.61754 17.2954C4.32588 17.0003 4.18004 16.6456 4.18004 16.2313L4.18 12.1185H4C3.44771 12.1185 3 11.6687 3 11.114V8.46568C3 7.91093 3.44772 7.46122 4 7.46122H4.18L4.18004 3.17331C4.18004 2.75897 4.32692 2.40428 4.62067 2.10922C4.91442 1.81416 5.26754 1.66663 5.68004 1.66663H11.555C11.7525 1.66663 11.9408 1.7015 12.1198 1.77126C12.2989 1.84101 12.4648 1.95262 12.6175 2.10608L15.7425 5.24501C15.8953 5.39846 16.0064 5.56511 16.0759 5.74493C16.1453 5.92476 16.18 6.11386 16.18 6.31224V13.8501C16.5261 14.3179 16.7308 14.8975 16.7308 15.5251C16.7308 17.0778 15.4776 18.3366 13.9317 18.3366C13.2801 18.3366 12.6805 18.113 12.2049 17.7379H5.67421ZM14.68 6.68891H11.93C11.7175 6.68891 11.5394 6.61672 11.3957 6.47233C11.2519 6.32794 11.18 6.14902 11.18 5.93557V3.17331H5.68004L5.68 7.46122H12.3132C12.8655 7.46122 13.3132 7.91093 13.3132 8.46568V11.114C13.3132 11.6687 12.8655 12.1185 12.3132 12.1185H5.68L5.68004 16.2313H11.2217C11.1635 16.0056 11.1326 15.769 11.1326 15.5251C11.1326 13.9723 12.3858 12.7135 13.9317 12.7135C14.1909 12.7135 14.4418 12.7489 14.68 12.8151V6.68891ZM5.79518 11.2647C6.10518 11.2647 6.44518 11.1593 6.71018 10.9232L6.42018 10.4361C6.26518 10.5666 6.07518 10.6621 5.87518 10.6621C5.47018 10.6621 5.18018 10.3206 5.18018 9.79321C5.18018 9.26085 5.47018 8.91431 5.89518 8.91431C6.05518 8.91431 6.18518 8.9796 6.32518 9.10014L6.67518 8.62302C6.47018 8.44724 6.20518 8.31164 5.86018 8.31164C5.10018 8.31164 4.43018 8.85404 4.43018 9.79321C4.43018 10.7223 5.02018 11.2647 5.79518 11.2647ZM7.9169 11.2647C8.6469 11.2647 9.0319 10.868 9.0319 10.3758C9.0319 9.85348 8.6219 9.66765 8.2519 9.52703C8.22011 9.51513 8.18856 9.50363 8.15756 9.49233C7.90083 9.39879 7.6819 9.31902 7.6819 9.13529C7.6819 8.97458 7.8019 8.86409 8.0519 8.86409C8.2619 8.86409 8.4569 8.96453 8.6569 9.10516L8.9869 8.65817C8.7519 8.48239 8.4419 8.31164 8.0319 8.31164C7.4019 8.31164 6.9919 8.66822 6.9919 9.17547C6.9919 9.64254 7.4019 9.8585 7.7569 9.9941L7.82204 10.0194C8.09314 10.1243 8.3419 10.2206 8.3419 10.416C8.3419 10.5918 8.2169 10.7123 7.9369 10.7123C7.6769 10.7123 7.4369 10.6018 7.1869 10.4059L6.8519 10.868C7.1269 11.099 7.5419 11.2647 7.9169 11.2647ZM10.0975 11.1944H10.9475L11.8825 8.38195H11.1775L10.7675 9.78316L10.746 9.86213L10.746 9.86215L10.746 9.86217C10.6774 10.1146 10.6058 10.3778 10.5425 10.637H10.5175C10.489 10.5283 10.4598 10.4187 10.4307 10.3097C10.3832 10.1316 10.3359 9.95447 10.2925 9.78316L9.88248 8.38195H9.14248L10.0975 11.1944ZM13.6138 15.9303L12.9869 15.3035C12.8621 15.1787 12.6598 15.1787 12.535 15.3035C12.4102 15.4283 12.4102 15.6306 12.535 15.7554L13.705 16.9255C13.7676 16.988 13.8496 17.0192 13.9316 17.0191C14.0142 17.0197 14.097 16.9885 14.1601 16.9255L15.3284 15.7571C15.4532 15.6323 15.4532 15.43 15.3284 15.3052C15.2036 15.1804 15.0013 15.1804 14.8765 15.3052L14.253 15.9287L14.253 14.2277C14.253 14.0512 14.1099 13.9081 13.9334 13.9081C13.7569 13.9081 13.6138 14.0512 13.6138 14.2277V15.9303Z"
                      fill="white"/>
            </g>
        </g>
    </g>
</svg>
