<svg width="16" height="12" viewBox="0 0 16 12" fill="none" xmlns="http://www.w3.org/2000/svg">
<path fill-rule="evenodd" clip-rule="evenodd" d="M8.00049 9.40149C7.30986 9.48822 6.6092 9.36259 5.99173 9.04133C5.37426 8.72006 4.86923 8.2184 4.54389 7.60306C4.21854 6.98773 4.08829 6.2879 4.17044 5.59671C4.2526 4.90553 4.54326 4.25576 5.00379 3.73383C5.46431 3.21191 6.07284 2.8426 6.74842 2.67502C7.42399 2.50745 8.13459 2.54955 8.78565 2.79575C9.4367 3.04195 9.99736 3.48056 10.393 4.05323C10.7887 4.62589 11.0006 5.30545 11.0005 6.0015C11.0501 6.84937 10.7626 7.68249 10.2007 8.31934C9.63879 8.95619 8.84794 9.34516 8.00049 9.40149ZM8.00049 7.1345C8.23063 7.16334 8.4641 7.12142 8.66983 7.01432C8.87556 6.90722 9.04379 6.74001 9.15216 6.53495C9.26053 6.32988 9.30391 6.09668 9.27649 5.86637C9.24908 5.63606 9.15217 5.41956 8.99869 5.24567C8.84521 5.07178 8.64242 4.94873 8.4173 4.89292C8.19218 4.83711 7.9554 4.85117 7.73847 4.93323C7.52153 5.01529 7.33471 5.16147 7.20288 5.3523C7.07106 5.54313 7.00046 5.76956 7.00049 6.0015C6.98404 6.28407 7.07991 6.56169 7.26721 6.7739C7.45451 6.98611 7.71807 7.11572 8.00049 7.1345Z" fill="#22214B"/>
<path fill-rule="evenodd" clip-rule="evenodd" d="M8 12.001C5.348 12.001 2.744 10.141 0.164001 6.521C0.057258 6.36842 0 6.18673 0 6.00052C0 5.81431 0.057258 5.63259 0.164001 5.48001C2.744 1.86001 5.348 0 8 0C10.652 0 13.256 1.86001 15.836 5.48001C15.9427 5.63259 16 5.81431 16 6.00052C16 6.18673 15.9427 6.36842 15.836 6.521C13.256 10.141 10.652 12.001 8 12.001ZM8 10.287C9.947 10.287 12.015 8.88701 14.184 6.00101C12.015 3.11601 9.947 1.715 8 1.715C6.053 1.715 3.98501 3.11501 1.81601 6.00101C3.98501 8.88601 6.053 10.287 8 10.287Z" fill="#22214B"/>
</svg>
