<svg width="18" height="18" viewBox="0 0 18 18" fill="none" xmlns="http://www.w3.org/2000/svg">
    <path d="M16.5 15.9375H15.75V11.25C15.75 7.5225 12.7275 4.5 9 4.5C5.2725 4.5 2.25 7.5225 2.25 11.25V15.9375H1.5C1.1925 15.9375 0.9375 16.1925 0.9375 16.5C0.9375 16.8075 1.1925 17.0625 1.5 17.0625H16.5C16.8075 17.0625 17.0625 16.8075 17.0625 16.5C17.0625 16.1925 16.8075 15.9375 16.5 15.9375Z"
          fill="white"/>
    <path d="M9 2.8125C8.6925 2.8125 8.4375 2.5575 8.4375 2.25V1.5C8.4375 1.1925 8.6925 0.9375 9 0.9375C9.3075 0.9375 9.5625 1.1925 9.5625 1.5V2.25C9.5625 2.5575 9.3075 2.8125 9 2.8125Z"
          fill="white"/>
    <path d="M3.75008 4.31258C3.60758 4.31258 3.46508 4.26008 3.35258 4.14758L2.60258 3.39758C2.38508 3.18008 2.38508 2.82008 2.60258 2.60258C2.82008 2.38508 3.18008 2.38508 3.39758 2.60258L4.14758 3.35258C4.36508 3.57008 4.36508 3.93008 4.14758 4.14758C4.03508 4.26008 3.89258 4.31258 3.75008 4.31258Z"
          fill="white"/>
    <path d="M14.2501 4.31258C14.1076 4.31258 13.9651 4.26008 13.8526 4.14758C13.6351 3.93008 13.6351 3.57008 13.8526 3.35258L14.6026 2.60258C14.8201 2.38508 15.1801 2.38508 15.3976 2.60258C15.6151 2.82008 15.6151 3.18008 15.3976 3.39758L14.6476 4.14758C14.5351 4.26008 14.3926 4.31258 14.2501 4.31258Z"
          fill="white"/>
</svg>
