<svg width="28" height="28" viewBox="0 0 28 28" fill="none" xmlns="http://www.w3.org/2000/svg">
    <g id="Group 26086504">
        <path id="Vector"
              d="M11.8725 12.3233C12.4367 12.3233 12.9883 12.156 13.4574 11.8426C13.9265 11.5291 14.2921 11.0836 14.508 10.5624C14.7239 10.0411 14.7804 9.46753 14.6704 8.91417C14.5603 8.36081 14.2886 7.85251 13.8897 7.45356C13.4907 7.05461 12.9824 6.78293 12.4291 6.67286C11.8757 6.56279 11.3021 6.61928 10.7809 6.83519C10.2596 7.0511 9.81409 7.41673 9.50064 7.88584C9.18719 8.35496 9.01988 8.90649 9.01988 9.47069C9.01988 10.2273 9.32043 10.9528 9.8554 11.4878C10.3904 12.0228 11.116 12.3233 11.8725 12.3233ZM11.8725 8.51981C12.0606 8.51981 12.2444 8.57558 12.4008 8.68006C12.5572 8.78454 12.6791 8.93305 12.751 9.1068C12.823 9.28055 12.8418 9.47175 12.8051 9.6562C12.7685 9.84065 12.6779 10.0101 12.5449 10.1431C12.4119 10.276 12.2425 10.3666 12.058 10.4033C11.8736 10.44 11.6824 10.4212 11.5086 10.3492C11.3349 10.2772 11.1864 10.1553 11.0819 9.99897C10.9774 9.8426 10.9216 9.65876 10.9216 9.47069C10.9216 9.2185 11.0218 8.97664 11.2002 8.79831C11.3785 8.61999 11.6203 8.51981 11.8725 8.51981ZM15.7807 12.1902C16.337 11.3925 16.6352 10.4433 16.6352 9.47069C16.6352 8.49811 16.337 7.54893 15.7807 6.75117C16.0541 6.66298 16.3396 6.61806 16.6269 6.61804C17.3835 6.61804 18.1091 6.91859 18.6441 7.45356C19.179 7.98854 19.4796 8.71412 19.4796 9.47069C19.4796 10.2273 19.179 10.9528 18.6441 11.4878C18.1091 12.0228 17.3835 12.3233 16.6269 12.3233C16.3396 12.3233 16.0541 12.2784 15.7807 12.1902ZM11.8725 14.2251C6.16724 14.2251 6.16724 18.0286 6.16724 18.0286V19.9304H17.5778V18.0286C17.5778 18.0286 17.5778 14.2251 11.8725 14.2251ZM8.069 18.0286C8.069 17.7529 8.37328 16.1269 11.8725 16.1269C15.2006 16.1269 15.619 17.6102 15.6761 18.0286M22.3322 18.0286V19.9304H19.4796V18.0286C19.4574 17.3218 19.2946 16.6264 19.0007 15.9832C18.7068 15.34 18.2878 14.7617 17.768 14.2822C22.3322 14.7481 22.3322 18.0286 22.3322 18.0286Z"
              fill="white"/>
        <circle id="Ellipse 83" cx="14.25" cy="14" r="12.285" stroke="white" stroke-width="2.1"/>
    </g>
</svg>
