<svg width="24" height="24" viewBox="0 0 24 24" fill="none" xmlns="http://www.w3.org/2000/svg">
    <g id="icon/24">
        <mask id="mask0_519_4003" style="mask-type:alpha" maskUnits="userSpaceOnUse" x="0" y="0" width="24" height="24">
            <rect id="Bounding box" width="24" height="24" fill="#D9D9D9"/>
        </mask>
        <g mask="url(#mask0_519_4003)">
            <path id="delete"
                  d="M7.73787 19.6683C7.28628 19.6683 6.89971 19.5075 6.57816 19.186C6.25661 18.8644 6.09583 18.4779 6.09583 18.0263V6.49746H5.86875C5.67573 6.49746 5.51397 6.43214 5.38347 6.30149C5.25282 6.17084 5.1875 6.00901 5.1875 5.81599C5.1875 5.62281 5.25282 5.46106 5.38347 5.33071C5.51397 5.20021 5.67573 5.13496 5.86875 5.13496H9.275C9.275 4.91257 9.35334 4.72304 9.51003 4.56635C9.66657 4.40981 9.85603 4.33154 10.0784 4.33154H13.9216C14.144 4.33154 14.3334 4.40981 14.49 4.56635C14.6467 4.72304 14.725 4.91257 14.725 5.13496H18.1313C18.3243 5.13496 18.486 5.20029 18.6165 5.33094C18.7472 5.46159 18.8125 5.62342 18.8125 5.81644C18.8125 6.00961 18.7472 6.17137 18.6165 6.30172C18.486 6.43222 18.3243 6.49746 18.1313 6.49746H17.9042V18.0263C17.9042 18.4779 17.7434 18.8644 17.4218 19.186C17.1003 19.5075 16.7137 19.6683 16.2621 19.6683H7.73787ZM16.5417 6.49746H7.45833V18.0263C7.45833 18.1079 7.48452 18.1748 7.5369 18.2272C7.58928 18.2796 7.65627 18.3058 7.73787 18.3058H16.2621C16.3437 18.3058 16.4107 18.2796 16.4631 18.2272C16.5155 18.1748 16.5417 18.1079 16.5417 18.0263V6.49746ZM10.3234 16.4891C10.5165 16.4891 10.6782 16.4239 10.8087 16.2934C10.9391 16.1627 11.0042 16.0009 11.0042 15.8079V8.99538C11.0042 8.80236 10.9389 8.64052 10.8083 8.50988C10.6778 8.37938 10.5159 8.31413 10.3228 8.31413C10.1297 8.31413 9.96798 8.37938 9.83749 8.50988C9.70714 8.64052 9.64197 8.80236 9.64197 8.99538V15.8079C9.64197 16.0009 9.70722 16.1627 9.83771 16.2934C9.96836 16.4239 10.1303 16.4891 10.3234 16.4891ZM13.6772 16.4891C13.8703 16.4891 14.032 16.4239 14.1625 16.2934C14.2929 16.1627 14.358 16.0009 14.358 15.8079V8.99538C14.358 8.80236 14.2928 8.64052 14.1623 8.50988C14.0316 8.37938 13.8697 8.31413 13.6766 8.31413C13.4835 8.31413 13.3218 8.37938 13.1913 8.50988C13.0609 8.64052 12.9958 8.80236 12.9958 8.99538V15.8079C12.9958 16.0009 13.0611 16.1627 13.1917 16.2934C13.3222 16.4239 13.4841 16.4891 13.6772 16.4891Z"
                  fill="#222222"/>
        </g>
    </g>
</svg>