<svg width="24" height="24" viewBox="0 0 24 24" fill="none" xmlns="http://www.w3.org/2000/svg">
    <mask id="mask0_76_3434" style="mask-type:alpha" maskUnits="userSpaceOnUse" x="0" y="0" width="24" height="24">
        <rect width="24" height="24" fill="#D9D9D9"/>
    </mask>
    <g mask="url(#mask0_76_3434)">
        <path d="M13 13V11C13 10.45 13.1958 9.97917 13.5875 9.5875C13.9792 9.19583 14.45 9 15 9H15.5V7H15C14.45 7 13.9792 6.80417 13.5875 6.4125C13.1958 6.02083 13 5.55 13 5V3C13 2.45 13.1958 1.97917 13.5875 1.5875C13.9792 1.19583 14.45 1 15 1H18C18.55 1 19.0208 1.19583 19.4125 1.5875C19.8042 1.97917 20 2.45 20 3V5C20 5.55 19.8042 6.02083 19.4125 6.4125C19.0208 6.80417 18.55 7 18 7H17.5V9H18C18.55 9 19.0208 9.19583 19.4125 9.5875C19.8042 9.97917 20 10.45 20 11V13C20 13.55 19.8042 14.0208 19.4125 14.4125C19.0208 14.8042 18.55 15 18 15H15C14.45 15 13.9792 14.8042 13.5875 14.4125C13.1958 14.0208 13 13.55 13 13ZM15 13H18V11H15V13ZM15 5H18V3H15V5ZM4 21V19C4 18.45 4.19583 17.9792 4.5875 17.5875C4.97917 17.1958 5.45 17 6 17H6.5V15H6C5.45 15 4.97917 14.8042 4.5875 14.4125C4.19583 14.0208 4 13.55 4 13V11C4 10.45 4.19583 9.97917 4.5875 9.5875C4.97917 9.19583 5.45 9 6 9H6.5V7H6C5.45 7 4.97917 6.80417 4.5875 6.4125C4.19583 6.02083 4 5.55 4 5V3C4 2.45 4.19583 1.97917 4.5875 1.5875C4.97917 1.19583 5.45 1 6 1H9C9.55 1 10.0208 1.19583 10.4125 1.5875C10.8042 1.97917 11 2.45 11 3V5C11 5.55 10.8042 6.02083 10.4125 6.4125C10.0208 6.80417 9.55 7 9 7H8.5V9H9C9.55 9 10.0208 9.19583 10.4125 9.5875C10.8042 9.97917 11 10.45 11 11V13C11 13.55 10.8042 14.0208 10.4125 14.4125C10.0208 14.8042 9.55 15 9 15H8.5V17H9C9.55 17 10.0208 17.1958 10.4125 17.5875C10.8042 17.9792 11 18.45 11 19V21C11 21.55 10.8042 22.0208 10.4125 22.4125C10.0208 22.8042 9.55 23 9 23H6C5.45 23 4.97917 22.8042 4.5875 22.4125C4.19583 22.0208 4 21.55 4 21ZM6 21H9V19H6V21ZM6 13H9V11H6V13ZM6 5H9V3H6V5Z"
              fill="#1C1B1F"/>
    </g>
</svg>
