<svg width="20" height="20" viewBox="0 0 20 20" fill="none" xmlns="http://www.w3.org/2000/svg">
    <g id="Icon/20">
        <mask id="mask0_716_23047" style="mask-type:alpha" maskUnits="userSpaceOnUse" x="0" y="0" width="20" height="20">
            <rect id="Bounding box" width="20" height="20" fill="#D9D9D9"/>
        </mask>
        <g mask="url(#mask0_716_23047)">
            <path id="Union"
                  d="M3.06504 14.8513V5.14878H16.935V14.8513H3.06504ZM1.66504 4.94878V15.0513C1.66504 15.714 2.2023 16.2513 2.86504 16.2513H17.135C17.7978 16.2513 18.335 15.714 18.335 15.0513V4.94878C18.335 4.28604 17.7978 3.74878 17.135 3.74878H2.86504C2.2023 3.74878 1.66504 4.28604 1.66504 4.94878ZM8.33619 6.74252H4.53375V7.45326H8.33619V6.74252ZM10.4776 9.62941C10.7467 9.62941 11.0098 9.54962 11.2335 9.40012C11.4572 9.25062 11.6316 9.03813 11.7346 8.78952C11.8376 8.54091 11.8645 8.26735 11.812 8.00342C11.7595 7.7395 11.63 7.49707 11.4397 7.30679C11.2494 7.11652 11.007 6.98694 10.7431 6.93444C10.4791 6.88194 10.2056 6.90888 9.95696 7.01186C9.70835 7.11484 9.49586 7.28923 9.34636 7.51297C9.19686 7.73671 9.11706 7.99976 9.11706 8.26885C9.11706 8.6297 9.2604 8.97576 9.51556 9.23092C9.77071 9.48607 10.1168 9.62941 10.4776 9.62941ZM10.4776 7.81533C10.5673 7.81533 10.655 7.84193 10.7296 7.89177C10.8042 7.9416 10.8623 8.01243 10.8966 8.0953C10.9309 8.17817 10.9399 8.26936 10.9224 8.35733C10.9049 8.44531 10.8617 8.52612 10.7983 8.58954C10.7349 8.65297 10.6541 8.69616 10.5661 8.71366C10.4781 8.73116 10.3869 8.72218 10.3041 8.68785C10.2212 8.65353 10.1504 8.5954 10.1005 8.52082C10.0507 8.44624 10.0241 8.35855 10.0241 8.26885C10.0241 8.14857 10.0719 8.03322 10.1569 7.94817C10.242 7.86312 10.3573 7.81533 10.4776 7.81533ZM12.3416 9.56592C12.6069 9.18543 12.7492 8.73272 12.7492 8.26885C12.7492 7.80499 12.6069 7.35228 12.3416 6.97179C12.472 6.92973 12.6082 6.9083 12.7452 6.90829C13.1061 6.90829 13.4521 7.05164 13.7073 7.30679C13.9624 7.56195 14.1058 7.90801 14.1058 8.26885C14.1058 8.6297 13.9624 8.97576 13.7073 9.23092C13.4521 9.48607 13.1061 9.62941 12.7452 9.62941C12.6082 9.62941 12.472 9.60798 12.3416 9.56592ZM10.4776 10.5365C7.7565 10.5365 7.7565 12.3505 7.7565 12.3505V13.2576H13.1987V12.3505C13.1987 12.3505 13.1987 10.5365 10.4776 10.5365ZM8.66354 12.3505C8.66354 12.219 8.80867 11.4435 10.4776 11.4435C12.0649 11.4435 12.2645 12.151 12.2917 12.3505H8.66354ZM15.4663 12.3505V13.2576H14.1058V12.3505C14.0952 12.0134 14.0175 11.6818 13.8774 11.375C13.7372 11.0682 13.5374 10.7924 13.2894 10.5637C15.4663 10.7859 15.4663 12.3505 15.4663 12.3505ZM4.53375 8.16403H8.33619V8.87477H4.53375V8.16403ZM4.53375 9.60327H8.33619V10.314H4.53375V9.60327Z"
                  fill="white"/>
        </g>
    </g>
</svg>