<svg width="41" height="40" viewBox="0 0 41 40" fill="none" xmlns="http://www.w3.org/2000/svg">
    <g id="Group 26086504">
        <path id="Vector"
              d="M16.8581 17.4553C17.7224 17.4553 18.5672 17.199 19.2858 16.7188C20.0044 16.2387 20.5645 15.5562 20.8952 14.7578C21.2259 13.9593 21.3125 13.0807 21.1439 12.2331C20.9753 11.3854 20.5591 10.6068 19.948 9.99569C19.3369 9.38457 18.5582 8.96839 17.7106 8.79979C16.863 8.63118 15.9843 8.71771 15.1859 9.04845C14.3874 9.37918 13.705 9.93926 13.2248 10.6579C12.7447 11.3765 12.4884 12.2213 12.4884 13.0856C12.4884 14.2445 12.9488 15.3559 13.7682 16.1754C14.5877 16.9949 15.6992 17.4553 16.8581 17.4553ZM16.8581 11.629C17.1462 11.629 17.4278 11.7144 17.6673 11.8745C17.9069 12.0345 18.0936 12.262 18.2038 12.5281C18.3141 12.7943 18.3429 13.0872 18.2867 13.3697C18.2305 13.6523 18.0918 13.9118 17.8881 14.1155C17.6844 14.3192 17.4248 14.4579 17.1423 14.5141C16.8597 14.5703 16.5669 14.5415 16.3007 14.4313C16.0345 14.321 15.8071 14.1343 15.647 13.8948C15.487 13.6552 15.4015 13.3736 15.4015 13.0856C15.4015 12.6992 15.555 12.3288 15.8282 12.0556C16.1013 11.7824 16.4718 11.629 16.8581 11.629ZM22.8446 17.2514C23.6968 16.0293 24.1537 14.5754 24.1537 13.0856C24.1537 11.5957 23.6968 10.1418 22.8446 8.91974C23.2635 8.78465 23.7009 8.71585 24.141 8.71582C25.2999 8.71582 26.4114 9.1762 27.2309 9.99569C28.0503 10.8152 28.5107 11.9266 28.5107 13.0856C28.5107 14.2445 28.0503 15.3559 27.2309 16.1754C26.4114 16.9949 25.2999 17.4553 24.141 17.4553C23.7009 17.4553 23.2635 17.3864 22.8446 17.2514ZM16.8581 20.3684C8.11865 20.3684 8.11865 26.1947 8.11865 26.1947V29.1079H25.5976V26.1947C25.5976 26.1947 25.5976 20.3684 16.8581 20.3684ZM11.0318 26.1947C11.0318 25.7723 11.4979 23.2816 16.8581 23.2816C21.9561 23.2816 22.597 25.5538 22.6844 26.1947M32.8804 26.1947V29.1079H28.5107V26.1947C28.4767 25.112 28.2273 24.0468 27.7772 23.0615C27.327 22.0762 26.6851 21.1904 25.8889 20.4558C32.8804 21.1695 32.8804 26.1947 32.8804 26.1947Z"
              fill="#454545"/>
        <circle id="Ellipse 83" cx="20.5" cy="20" r="18.5" stroke="#454545" stroke-width="3"/>
    </g>
</svg>
    