<svg width="20" height="20" viewBox="0 0 20 20" fill="none" xmlns="http://www.w3.org/2000/svg">
    <g id="Group 26086446">
        <circle id="Ellipse 78" cx="10" cy="10" r="10" fill="#AAAAAA"/>
        <path id="Union" fill-rule="evenodd" clip-rule="evenodd"
              d="M13.5404 13.5405C13.8197 13.2611 13.8197 12.8082 13.5404 12.5289L11.0117 10.0002L13.5407 7.47123C13.8201 7.19189 13.8201 6.739 13.5407 6.45967C13.2614 6.18033 12.8085 6.18033 12.5292 6.45967L10.0002 8.98867L7.47106 6.45956C7.19172 6.18023 6.73883 6.18023 6.4595 6.45956C6.18017 6.7389 6.18017 7.19179 6.4595 7.47112L8.98861 10.0002L6.45983 12.529C6.1805 12.8083 6.1805 13.2612 6.45983 13.5406C6.73916 13.8199 7.19205 13.8199 7.47139 13.5406L10.0002 11.0118L12.5288 13.5405C12.8082 13.8198 13.2611 13.8198 13.5404 13.5405Z"
              fill="#F9F9FB"/>
    </g>
</svg>
