<svg width="25" height="20" viewBox="0 0 25 20" fill="none" xmlns="http://www.w3.org/2000/svg">
    <g id="Group 26086538">
        <path id="Vector"
              d="M21.8821 0.399925H5.0817C3.75807 0.399925 2.68164 1.47635 2.68164 2.79999V8.80014H5.0817V5.20005L12.7619 10.9602C12.9696 11.116 13.2223 11.2002 13.4819 11.2002C13.7416 11.2002 13.9942 11.116 14.2019 10.9602L21.8821 5.20005V16.0003H12.2819V18.4004H21.8821C23.2058 18.4004 24.2822 17.324 24.2822 16.0003V2.79999C24.2822 1.47635 23.2058 0.399925 21.8821 0.399925ZM13.4819 8.50013L5.88092 2.79999H21.0829L13.4819 8.50013Z"
              fill="#AAAAAA"/>
        <path id="Vector_2" d="M0.25 9.99989H8.65022V12.4H0.25V9.99989ZM2.65006 13.6H9.85025V16H2.65006V13.6ZM6.25016 17.2001H11.0503V19.6001H6.25016V17.2001Z" fill="#AAAAAA"/>
    </g>
</svg>
