<svg width="14" height="16" viewBox="0 0 14 16" fill="none" xmlns="http://www.w3.org/2000/svg">
    <path d="M2.69877 15.7917C2.24303 15.7917 1.85292 15.6294 1.52842 15.3049C1.20392 14.9804 1.04167 14.5903 1.04167 14.1346V2.5H0.8125C0.617708 2.5 0.454465 2.43408 0.322771 2.30223C0.190924 2.17038 0.125 2.00706 0.125 1.81227C0.125 1.61733 0.190924 1.45408 0.322771 1.32254C0.454465 1.19085 0.617708 1.125 0.8125 1.125H4.25C4.25 0.90057 4.32906 0.709293 4.48719 0.551168C4.64516 0.393196 4.83636 0.314209 5.06079 0.314209H8.93921C9.16364 0.314209 9.35484 0.393196 9.51281 0.551168C9.67094 0.709293 9.75 0.90057 9.75 1.125H13.1875C13.3823 1.125 13.5455 1.19092 13.6772 1.32277C13.8091 1.45462 13.875 1.61794 13.875 1.81273C13.875 2.00767 13.8091 2.17092 13.6772 2.30246C13.5455 2.43415 13.3823 2.5 13.1875 2.5H12.9583V14.1346C12.9583 14.5903 12.7961 14.9804 12.4716 15.3049C12.1471 15.6294 11.757 15.7917 11.3012 15.7917H2.69877ZM11.5833 2.5H2.41667V14.1346C2.41667 14.2169 2.4431 14.2845 2.49596 14.3374C2.54882 14.3902 2.61642 14.4167 2.69877 14.4167H11.3012C11.3836 14.4167 11.4512 14.3902 11.504 14.3374C11.5569 14.2845 11.5833 14.2169 11.5833 14.1346V2.5ZM5.30806 12.5833C5.50285 12.5833 5.6661 12.5175 5.79779 12.3858C5.92933 12.2539 5.9951 12.0906 5.9951 11.8958V5.02083C5.9951 4.82604 5.92918 4.66272 5.79733 4.53088C5.66564 4.39918 5.50232 4.33333 5.30738 4.33333C5.11258 4.33333 4.94934 4.39918 4.81765 4.53088C4.6861 4.66272 4.62033 4.82604 4.62033 5.02083V11.8958C4.62033 12.0906 4.68618 12.2539 4.81788 12.3858C4.94972 12.5175 5.11312 12.5833 5.30806 12.5833ZM8.69263 12.5833C8.88742 12.5833 9.05066 12.5175 9.18235 12.3858C9.3139 12.2539 9.37967 12.0906 9.37967 11.8958V5.02083C9.37967 4.82604 9.31382 4.66272 9.18213 4.53088C9.05028 4.39918 8.88688 4.33333 8.69194 4.33333C8.49715 4.33333 8.3339 4.39918 8.20221 4.53088C8.07067 4.66272 8.0049 4.82604 8.0049 5.02083V11.8958C8.0049 12.0906 8.07082 12.2539 8.20267 12.3858C8.33436 12.5175 8.49768 12.5833 8.69263 12.5833Z"
          fill="#1C1B1F"/>
</svg>
