<svg width="28" height="18" viewBox="0 0 28 18" fill="none" xmlns="http://www.w3.org/2000/svg">
    <g id="Group 26086505">
        <path id="Vector"
              d="M14.6126 7.84345C15.2989 7.84345 15.9697 7.63995 16.5403 7.25869C17.1109 6.87743 17.5556 6.33552 17.8182 5.70151C18.0809 5.06749 18.1496 4.36984 18.0157 3.69677C17.8818 3.02371 17.5514 2.40545 17.0661 1.9202C16.5808 1.43495 15.9626 1.10448 15.2895 0.970603C14.6165 0.836721 13.9188 0.905434 13.2848 1.16805C12.6508 1.43067 12.1089 1.8754 11.7276 2.446C11.3464 3.01659 11.1429 3.68744 11.1429 4.37369C11.1429 5.29393 11.5084 6.17647 12.1591 6.82718C12.8098 7.47788 13.6924 7.84345 14.6126 7.84345ZM14.6126 3.2171C14.8414 3.2171 15.065 3.28494 15.2552 3.41202C15.4454 3.53911 15.5936 3.71975 15.6812 3.93108C15.7687 4.14242 15.7916 4.37497 15.747 4.59933C15.7023 4.82368 15.5922 5.02977 15.4304 5.19152C15.2687 5.35327 15.0626 5.46342 14.8382 5.50805C14.6139 5.55268 14.3813 5.52977 14.17 5.44224C13.9587 5.3547 13.778 5.20645 13.6509 5.01625C13.5239 4.82606 13.456 4.60244 13.456 4.37369C13.456 4.06694 13.5779 3.77276 13.7948 3.55586C14.0117 3.33896 14.3059 3.2171 14.6126 3.2171ZM19.3662 7.68152C20.0428 6.71118 20.4056 5.55667 20.4056 4.37369C20.4056 3.19071 20.0428 2.03619 19.3662 1.06585C19.6988 0.958585 20.0461 0.903952 20.3955 0.903932C21.3158 0.903932 22.1983 1.26949 22.849 1.9202C23.4997 2.57091 23.8653 3.45345 23.8653 4.37369C23.8653 5.29393 23.4997 6.17647 22.849 6.82718C22.1983 7.47788 21.3158 7.84345 20.3955 7.84345C20.0461 7.84343 19.6988 7.78879 19.3662 7.68152ZM14.6126 10.1566C7.6731 10.1566 7.6731 14.783 7.6731 14.783V17.0961H21.5521V14.783C21.5521 14.783 21.5521 10.1566 14.6126 10.1566ZM9.98627 14.783C9.98627 14.4476 10.3564 12.4698 14.6126 12.4698C18.6607 12.4698 19.1696 14.2741 19.239 14.783M27.3351 14.783V17.0961H23.8653V14.783C23.8383 13.9232 23.6403 13.0774 23.2828 12.295C22.9254 11.5126 22.4157 10.8093 21.7834 10.226C27.3351 10.7927 27.3351 14.783 27.3351 14.783Z"
              fill="white"/>
        <path id="Vector_2" d="M5.71415 8.44743H8.74362V6.42778H5.71415V3.39832H3.69451V6.42778H0.665039V8.44743H3.69451V11.4769H5.71415V8.44743Z" fill="white"/>
    </g>
</svg>
