<svg width="20" height="20" viewBox="0 0 20 20" fill="none" xmlns="http://www.w3.org/2000/svg">
    <g id="Icon/20/Icon/20/icon21">
        <mask id="mask0_352_22660" style="mask-type:alpha" maskUnits="userSpaceOnUse" x="0" y="0" width="20" height="20">
            <rect id="Bounding box" width="20" height="20" fill="#D9D9D9"/>
        </mask>
        <g mask="url(#mask0_352_22660)">
            <path id="ios"
                  d="M2 7V5H4V7H2ZM2 15V9H4V15H2ZM9 15H7C6.45 15 5.97917 14.8042 5.5875 14.4125C5.19583 14.0208 5 13.55 5 13V7C5 6.45 5.19583 5.97917 5.5875 5.5875C5.97917 5.19583 6.45 5 7 5H9C9.55 5 10.0208 5.19583 10.4125 5.5875C10.8042 5.97917 11 6.45 11 7V13C11 13.55 10.8042 14.0208 10.4125 14.4125C10.0208 14.8042 9.55 15 9 15ZM7 13H9V7H7V13ZM12 15V13H16V11H14C13.45 11 12.9792 10.8042 12.5875 10.4125C12.1958 10.0208 12 9.55 12 9V7C12 6.45 12.1958 5.97917 12.5875 5.5875C12.9792 5.19583 13.45 5 14 5H18V7H14V9H16C16.55 9 17.0208 9.19583 17.4125 9.5875C17.8042 9.97917 18 10.45 18 11V13C18 13.55 17.8042 14.0208 17.4125 14.4125C17.0208 14.8042 16.55 15 16 15H12Z"
                  fill="#222222"/>
        </g>
    </g>
</svg>
