<svg width="20" height="20" viewBox="0 0 20 20" fill="none" xmlns="http://www.w3.org/2000/svg">
    <g id="Icon/20">
        <mask id="mask0_879_7218" style="mask-type:alpha" maskUnits="userSpaceOnUse" x="0" y="0" width="20" height="20">
            <rect id="Bounding box" width="20" height="20" fill="#D9D9D9"/>
        </mask>
        <g mask="url(#mask0_879_7218)">
            <path id="Union"
                  d="M3.06406 14.8512V5.14875H16.9341V14.8512H3.06406ZM1.66406 4.94875V15.0512C1.66406 15.714 2.20132 16.2512 2.86406 16.2512H17.1341C17.7968 16.2512 18.3341 15.714 18.3341 15.0512V4.94875C18.3341 4.28601 17.7968 3.74875 17.1341 3.74875H2.86406C2.20132 3.74875 1.66406 4.28601 1.66406 4.94875ZM8.33521 6.74249H4.53278V7.45323H8.33521V6.74249ZM10.4766 9.62938C10.7457 9.62938 11.0088 9.54959 11.2325 9.40009C11.4563 9.25059 11.6307 9.0381 11.7336 8.78949C11.8366 8.54088 11.8636 8.26731 11.8111 8.00339C11.7586 7.73947 11.629 7.49704 11.4387 7.30676C11.2484 7.11649 11.006 6.9869 10.7421 6.93441C10.4782 6.88191 10.2046 6.90885 9.95598 7.01183C9.70737 7.11481 9.49488 7.28919 9.34538 7.51294C9.19588 7.73668 9.11608 7.99973 9.11608 8.26882C9.11608 8.62967 9.25943 8.97573 9.51458 9.23089C9.76974 9.48604 10.1158 9.62938 10.4766 9.62938ZM10.4766 7.8153C10.5663 7.8153 10.654 7.8419 10.7286 7.89174C10.8032 7.94157 10.8613 8.0124 10.8956 8.09527C10.93 8.17814 10.9389 8.26933 10.9214 8.3573C10.904 8.44528 10.8608 8.52609 10.7973 8.58951C10.7339 8.65294 10.6531 8.69613 10.5651 8.71363C10.4771 8.73113 10.386 8.72215 10.3031 8.68782C10.2202 8.6535 10.1494 8.59537 10.0996 8.52079C10.0497 8.44621 10.0231 8.35852 10.0231 8.26882C10.0231 8.14854 10.0709 8.03319 10.156 7.94814C10.241 7.86309 10.3564 7.8153 10.4766 7.8153ZM12.3406 9.56589C12.6059 9.1854 12.7482 8.73269 12.7482 8.26882C12.7482 7.80496 12.6059 7.35225 12.3406 6.97176C12.471 6.9297 12.6072 6.90827 12.7442 6.90826C13.1051 6.90826 13.4511 7.05161 13.7063 7.30676C13.9615 7.56192 14.1048 7.90798 14.1048 8.26882C14.1048 8.62967 13.9615 8.97573 13.7063 9.23089C13.4511 9.48604 13.1051 9.62938 12.7442 9.62938C12.6072 9.62938 12.471 9.60795 12.3406 9.56589ZM10.4766 10.5364C7.75552 10.5364 7.75552 12.3505 7.75552 12.3505V13.2575H13.1978V12.3505C13.1978 12.3505 13.1978 10.5364 10.4766 10.5364ZM8.66256 12.3505C8.66256 12.219 8.80769 11.4435 10.4766 11.4435C12.064 11.4435 12.2635 12.151 12.2907 12.3505H8.66256ZM15.4654 12.3505V13.2575H14.1048V12.3505C14.0942 12.0134 14.0166 11.6817 13.8764 11.3749C13.7362 11.0681 13.5364 10.7923 13.2885 10.5636C15.4654 10.7859 15.4654 12.3505 15.4654 12.3505ZM4.53278 8.164H8.33521V8.87474H4.53278V8.164ZM4.53278 9.60324H8.33521V10.314H4.53278V9.60324Z"
                  fill="white"/>
        </g>
    </g>
</svg>
