<svg width="20" height="18" viewBox="0 0 20 18" fill="none" xmlns="http://www.w3.org/2000/svg">
    <g id="Group 26086549">
        <g id="Group 26086539">
            <path id="Vector"
                  d="M2.01301 0.388519H16.1033C17.2134 0.388519 18.1162 1.2913 18.1162 2.40142V7.43367H16.1033V4.41432L9.66203 9.24528C9.48782 9.37594 9.27593 9.44657 9.05816 9.44657C8.8404 9.44657 8.6285 9.37594 8.45429 9.24528L2.01301 4.41432V13.4724H10.0646V15.4853H2.01301C0.902897 15.4853 0.000112534 14.5825 0.000112534 13.4724V2.40142C0.000112534 1.2913 0.902897 0.388519 2.01301 0.388519ZM9.05816 7.18206L15.433 2.40142H2.68331L9.05816 7.18206Z"
                  fill="#454545"/>
        </g>
        <path id="Vector_2"
              d="M13.4798 17.6115C13.3693 17.6115 13.2798 17.522 13.2798 17.4115V15.1015C13.2798 14.991 13.1902 14.9015 13.0798 14.9015H10.9598C10.8493 14.9015 10.7598 14.8119 10.7598 14.7015V10.0614C10.7598 9.95098 10.8493 9.86144 10.9598 9.86144H15.7444C15.7806 9.86144 15.8162 9.85159 15.8473 9.83294L19.6969 7.52317C19.8302 7.44319 19.9998 7.53921 19.9998 7.69467V17.0682C19.9998 17.2237 19.8302 17.3197 19.6969 17.2397L15.8473 14.93C15.8162 14.9113 15.7806 14.9015 15.7444 14.9015H15.1598C15.0493 14.9015 14.9598 14.991 14.9598 15.1015V17.4115C14.9598 17.522 14.8702 17.6115 14.7598 17.6115H13.4798ZM18.0179 14.2608C18.1512 14.3397 18.3198 14.2436 18.3198 14.0887V10.6742C18.3198 10.5193 18.1512 10.4232 18.0179 10.5021L16.3089 11.5136C16.2781 11.5318 16.2429 11.5414 16.207 11.5414H12.6398C12.5293 11.5414 12.4398 11.631 12.4398 11.7414V13.0215C12.4398 13.1319 12.5293 13.2215 12.6398 13.2215H16.207C16.2429 13.2215 16.2781 13.2311 16.3089 13.2493L18.0179 14.2608Z"
              fill="#454545"/>
    </g>
</svg>
