<svg xmlns="http://www.w3.org/2000/svg" width="20" height="20" viewBox="0 0 20 20" fill="none">
    <mask id="mask0_1545_74539" style="mask-type:alpha" maskUnits="userSpaceOnUse" x="0" y="0" width="20" height="20">
        <rect width="20" height="20" fill="#D9D9D9"/>
    </mask>
    <g mask="url(#mask0_1545_74539)">
        <path d="M7.03301 17.0849C7.95856 17.4843 8.9475 17.684 9.99984 17.684C11.0522 17.684 12.0411 17.4843 12.9667 17.0849C13.8922 16.6856 14.6973 16.1435 15.382 15.4589C16.0666 14.7742 16.6086 13.9691 17.008 13.0436C17.4074 12.118 17.6071 11.1291 17.6071 10.0767C17.6071 9.02441 17.4074 8.03546 17.008 7.10991C16.6086 6.18436 16.0666 5.37926 15.382 4.69461C14.6973 4.00995 13.8922 3.46794 12.9667 3.06855C12.0411 2.66917 11.0522 2.46948 9.99984 2.46948C8.9475 2.46948 7.95856 2.66917 7.03301 3.06855C6.10746 3.46794 5.30236 4.00995 4.6177 4.69461C3.93305 5.37926 3.39103 6.18436 2.99165 7.10991C2.59227 8.03546 2.39258 9.02441 2.39258 10.0767C2.39258 11.1291 2.59227 12.118 2.99165 13.0436C3.39103 13.9691 3.93305 14.7742 4.6177 15.4589C5.30236 16.1435 6.10746 16.6856 7.03301 17.0849ZM14.317 14.3939C13.1378 15.573 11.6988 16.1626 9.99984 16.1626C8.30088 16.1626 6.86184 15.573 5.68272 14.3939C4.50359 13.2147 3.91403 11.7757 3.91403 10.0767C3.91403 8.37779 4.50359 6.93875 5.68272 5.75962C6.86184 4.5805 8.30088 3.99093 9.99984 3.99093C11.6988 3.99093 13.1378 4.5805 14.317 5.75962C15.4961 6.93875 16.0856 8.37779 16.0856 10.0767C16.0856 11.7757 15.4961 13.2147 14.317 14.3939ZM9.23911 7.03384C9.23911 6.6137 9.5797 6.27311 9.99984 6.27311C10.42 6.27311 10.7606 6.6137 10.7606 7.03384V9.31602H13.0427C13.4629 9.31602 13.8035 9.65661 13.8035 10.0767C13.8035 10.4969 13.4629 10.8375 13.0427 10.8375H10.7606V13.1196C10.7606 13.5398 10.42 13.8804 9.99984 13.8804C9.5797 13.8804 9.23911 13.5398 9.23911 13.1196V10.8375H6.95693C6.5368 10.8375 6.19621 10.4969 6.19621 10.0767C6.19621 9.65661 6.5368 9.31602 6.95693 9.31602H9.23911V7.03384Z"
              fill="white"/>
    </g>
</svg>