<svg width="40" height="24" viewBox="0 0 40 24" fill="none" xmlns="http://www.w3.org/2000/svg">
    <g id="Group 26086504">
        <path id="Vector"
              d="M21.4808 10.1014C22.4798 10.1014 23.4563 9.80521 24.2869 9.25023C25.1174 8.69525 25.7648 7.90644 26.1471 6.98354C26.5294 6.06064 26.6294 5.04511 26.4345 4.06537C26.2396 3.08563 25.7586 2.18568 25.0522 1.47932C24.3459 0.772967 23.4459 0.291933 22.4662 0.0970503C21.4864 -0.0978326 20.4709 0.00218839 19.548 0.384465C18.6251 0.766742 17.8363 1.4141 17.2813 2.24469C16.7263 3.07528 16.4301 4.05178 16.4301 5.05072C16.4301 6.39025 16.9622 7.67492 17.9094 8.62211C18.8566 9.56931 20.1413 10.1014 21.4808 10.1014ZM21.4808 3.36715C21.8138 3.36715 22.1393 3.46588 22.4162 3.65088C22.693 3.83587 22.9088 4.09881 23.0362 4.40644C23.1637 4.71407 23.197 5.05258 23.132 5.37917C23.0671 5.70575 22.9067 6.00573 22.6713 6.24118C22.4358 6.47663 22.1359 6.63698 21.8093 6.70194C21.4827 6.7669 21.1442 6.73356 20.8366 6.60613C20.5289 6.47871 20.266 6.26292 20.081 5.98606C19.896 5.7092 19.7973 5.3837 19.7973 5.05072C19.7973 4.60421 19.9746 4.17598 20.2904 3.86025C20.6061 3.54452 21.0343 3.36715 21.4808 3.36715ZM28.4003 9.86573C29.3853 8.45327 29.9134 6.7727 29.9134 5.05072C29.9134 3.32873 29.3853 1.64817 28.4003 0.235702C28.8844 0.0795574 29.39 3.14907e-05 29.8987 1.92737e-06C31.2382 1.92737e-06 32.5229 0.53213 33.4701 1.47932C34.4173 2.42652 34.9494 3.71118 34.9494 5.05072C34.9494 6.39025 34.4173 7.67492 33.4701 8.62211C32.5229 9.56931 31.2382 10.1014 29.8987 10.1014C29.39 10.1014 28.8844 10.0219 28.4003 9.86573ZM21.4808 13.4686C11.3794 13.4686 11.3794 20.2029 11.3794 20.2029V23.57H31.5823V20.2029C31.5823 20.2029 31.5823 13.4686 21.4808 13.4686ZM14.7465 20.2029C14.7465 19.7146 15.2853 16.8357 21.4808 16.8357C27.3733 16.8357 28.1141 19.4621 28.2151 20.2029M40.0001 20.2029V23.57H34.9494V20.2029C34.9101 18.9514 34.6218 17.7202 34.1015 16.5814C33.5812 15.4425 32.8393 14.4186 31.919 13.5696C40.0001 14.3945 40.0001 20.2029 40.0001 20.2029Z"
              fill="#4A7CF7"/>
        <rect id="Rectangle 12482" y="7.5293" width="14.1155" height="2.63841" fill="#4A7CF7"/>
        <rect id="Rectangle 12484" y="2.25293" width="14.1155" height="2.63841" fill="#4A7CF7"/>
        <path id="Rectangle 12483" d="M0 12.8721H10.3974V15.5105H0V12.8721Z" fill="#4A7CF7"/>
    </g>
</svg>
    