<svg width="20" height="21" viewBox="0 0 20 21" fill="none" xmlns="http://www.w3.org/2000/svg">
    <g id="Group 26086446">
        <circle id="Ellipse 78" cx="10" cy="10.1523" r="10" fill="#AAAAAA"/>
        <path id="Union" fill-rule="evenodd" clip-rule="evenodd"
              d="M13.5404 13.6927C13.8197 13.4134 13.8197 12.9605 13.5404 12.6812L11.0117 10.1525L13.5407 7.62351C13.8201 7.34417 13.8201 6.89128 13.5407 6.61195C13.2614 6.33262 12.8085 6.33262 12.5292 6.61195L10.0002 9.14096L7.47106 6.61184C7.19172 6.33251 6.73883 6.33251 6.4595 6.61184C6.18017 6.89118 6.18017 7.34407 6.4595 7.6234L8.98861 10.1525L6.45983 12.6813C6.1805 12.9606 6.1805 13.4135 6.45983 13.6929C6.73916 13.9722 7.19205 13.9722 7.47139 13.6929L10.0002 11.1641L12.5288 13.6927C12.8082 13.9721 13.2611 13.9721 13.5404 13.6927Z"
              fill="#F9F9FB"/>
    </g>
</svg>
