<svg width="24" height="24" viewBox="0 0 24 24" fill="none" xmlns="http://www.w3.org/2000/svg">
    <g id="Group 26086462">
        <mask id="mask0_1127_31411" style="mask-type:alpha" maskUnits="userSpaceOnUse" x="0" y="0" width="24" height="24">
            <rect id="Bounding box" width="24" height="24" fill="#D9D9D9"/>
        </mask>
        <g mask="url(#mask0_1127_31411)">
            <path id="icon" fill-rule="evenodd" clip-rule="evenodd"
                  d="M15.2292 20.8092C15.1316 21.4729 14.5264 22 13.8041 22H10.1926C9.47031 22 8.86513 21.4729 8.77729 20.7604L8.51374 18.9156C8.2502 18.7789 7.99642 18.6325 7.74263 18.4666L5.98568 19.1694C5.30242 19.4231 4.55083 19.1401 4.21896 18.5349L2.43273 15.4407C2.0911 14.7965 2.23751 14.0351 2.78412 13.6057L4.27753 12.4441C4.26777 12.2977 4.25801 12.1513 4.25801 11.9951C4.25801 11.8487 4.26777 11.6925 4.27753 11.5461L2.79388 10.3846C2.21799 9.94534 2.07158 9.15471 2.43273 8.54954L4.23849 5.43582C4.57036 4.83065 5.32194 4.55735 5.98568 4.82089L7.7524 5.53343C8.00618 5.3675 8.25996 5.22108 8.51374 5.08443L8.77729 3.22011C8.86513 2.53685 9.47031 2 10.1828 2H13.7944C14.5167 2 15.1218 2.52709 15.2097 3.23963L15.4732 5.08443C15.7368 5.22108 15.9906 5.3675 16.2443 5.53343L18.0013 4.83065C18.6943 4.57687 19.4459 4.85993 19.7778 5.4651L21.5738 8.56906C21.9252 9.21327 21.769 9.97462 21.2224 10.4041L19.7387 11.5656C19.7485 11.7121 19.7582 11.8585 19.7582 12.0146C19.7582 12.1708 19.7485 12.3172 19.7387 12.4636L21.2224 13.6252C21.769 14.0644 21.9252 14.8258 21.5835 15.4407L19.768 18.5837C19.4361 19.1889 18.6846 19.4622 18.0111 19.1986L16.2541 18.4959C16.0003 18.6618 15.7465 18.8082 15.4928 18.9449L15.2292 20.8092ZM10.6514 20.0478H13.3454L13.7065 17.5588L14.2238 17.3441C14.6533 17.1684 15.0828 16.9146 15.5318 16.5827L15.971 16.2509L18.2941 17.1879L19.6411 14.8453L17.6597 13.3031L17.728 12.7565L17.731 12.7302C17.7593 12.4858 17.7866 12.2495 17.7866 11.9951C17.7866 11.7316 17.7573 11.4778 17.728 11.2338L17.6597 10.6872L19.6411 9.14495L18.2844 6.80234L15.9515 7.73939L15.5123 7.39775C15.1023 7.08541 14.6631 6.83162 14.2141 6.64617L13.7065 6.43143L13.3454 3.94241H10.6514L10.2902 6.43143L9.77289 6.63641C9.34341 6.82186 8.91394 7.06589 8.46494 7.40752L8.0257 7.72962L5.70261 6.80234L4.34586 9.13519L6.32731 10.6774L6.25898 11.224C6.2297 11.4778 6.20042 11.7413 6.20042 11.9951C6.20042 12.2489 6.21994 12.5124 6.25898 12.7565L6.32731 13.3031L4.34586 14.8453L5.69285 17.1879L8.0257 16.2509L8.46494 16.5925C8.88465 16.9146 9.30437 17.1586 9.76313 17.3441L10.2805 17.5588L10.6514 20.0478ZM15.4147 11.9951C15.4147 13.8819 13.8851 15.4114 11.9984 15.4114C10.1116 15.4114 8.58207 13.8819 8.58207 11.9951C8.58207 10.1083 10.1116 8.57882 11.9984 8.57882C13.8851 8.57882 15.4147 10.1083 15.4147 11.9951Z"
                  fill="#454545"/>
        </g>
    </g>
</svg>
