<svg width="16" height="18" viewBox="0 0 16 18" fill="none" xmlns="http://www.w3.org/2000/svg">
    <g id="Group 26086437">
        <path id="Vector"
              d="M10.4465 3.93038L12.382 5.86586M11.6908 2.22529L6.45483 7.46123C6.18429 7.73139 5.99978 8.0756 5.92456 8.45046L5.44092 10.8714L7.86187 10.3869C8.23671 10.3119 8.58047 10.1281 8.85109 9.8575L14.087 4.62155C14.2444 4.46421 14.3692 4.27742 14.4543 4.07184C14.5395 3.86627 14.5833 3.64593 14.5833 3.42342C14.5833 3.20091 14.5395 2.98057 14.4543 2.77499C14.3692 2.56942 14.2444 2.38263 14.087 2.22529C13.9297 2.06795 13.7429 1.94314 13.5373 1.85798C13.3318 1.77283 13.1114 1.729 12.8889 1.729C12.6664 1.729 12.4461 1.77283 12.2405 1.85798C12.0349 1.94314 11.8481 2.06795 11.6908 2.22529Z"
              stroke="#222222" stroke-width="1.5" stroke-linecap="round" stroke-linejoin="round"/>
        <path id="Vector_2"
              d="M12.5 11.6999V14.4427C12.5 14.9277 12.3443 15.3927 12.0672 15.7357C11.79 16.0786 11.4141 16.2712 11.0222 16.2712H2.8943C2.50237 16.2712 2.12648 16.0786 1.84934 15.7357C1.5722 15.3927 1.4165 14.9277 1.4165 14.4427V4.38589C1.4165 3.90093 1.5722 3.43584 1.84934 3.09293C2.12648 2.75002 2.50237 2.55737 2.8943 2.55737H5.111"
              stroke="#222222" stroke-width="1.5" stroke-linecap="round" stroke-linejoin="round"/>
    </g>
</svg>
