<svg width="20" height="20" viewBox="0 0 20 20" fill="none" xmlns="http://www.w3.org/2000/svg">
<path d="M14.184 2.25967L17.739 5.81467C17.8216 5.89715 17.8872 5.99512 17.9319 6.10297C17.9766 6.21081 17.9996 6.32642 17.9996 6.44318C17.9996 6.55993 17.9766 6.67554 17.9319 6.78339C17.8872 6.89123 17.8216 6.98918 17.739 7.07166L7.96198 16.8487C7.8382 16.9732 7.68017 17.0582 7.50798 17.0927L3.06398 17.9817C2.92048 18.0103 2.77212 18.0032 2.63206 17.9608C2.49201 17.9183 2.36458 17.842 2.26111 17.7385C2.15763 17.635 2.08131 17.5076 2.03889 17.3676C1.99648 17.2275 1.98929 17.0792 2.01797 16.9357L2.90698 12.4917C2.94147 12.3195 3.02639 12.1614 3.15097 12.0377L12.928 2.26065C13.0104 2.1781 13.1082 2.1126 13.2159 2.06787C13.3237 2.02314 13.4391 2.00009 13.5558 2C13.6724 1.99991 13.7879 2.02277 13.8957 2.06732C14.0035 2.11188 14.1014 2.17725 14.184 2.25967ZM11.333 6.36667L4.60098 13.0997L4.02698 15.9727L6.89998 15.3987L13.636 8.66266L11.333 6.36667ZM13.556 4.14465L12.591 5.10965L14.891 7.40967L15.857 6.44568L13.556 4.14465Z" fill="#22214B"/>
</svg>
