<svg width="24" height="24" viewBox="0 0 24 24" fill="none" xmlns="http://www.w3.org/2000/svg">
    <mask id="mask0_82_7182" style="mask-type:alpha" maskUnits="userSpaceOnUse" x="0" y="0" width="24" height="24">
        <rect width="24" height="24" fill="#D9D9D9"/>
    </mask>
    <g mask="url(#mask0_82_7182)">
        <path d="M17 16.9999C17.4167 16.9999 17.7708 16.8541 18.0625 16.5624C18.3542 16.2707 18.5 15.9166 18.5 15.4999C18.5 15.0832 18.3542 14.7291 18.0625 14.4374C17.7708 14.1457 17.4167 13.9999 17 13.9999C16.5833 13.9999 16.2292 14.1457 15.9375 14.4374C15.6458 14.7291 15.5 15.0832 15.5 15.4999C15.5 15.9166 15.6458 16.2707 15.9375 16.5624C16.2292 16.8541 16.5833 16.9999 17 16.9999ZM17 19.9999C17.5167 19.9999 17.9917 19.8791 18.425 19.6374C18.8583 19.3957 19.2083 19.0749 19.475 18.6749C19.1083 18.4582 18.7167 18.2916 18.3 18.1749C17.8833 18.0582 17.45 17.9999 17 17.9999C16.55 17.9999 16.1167 18.0582 15.7 18.1749C15.2833 18.2916 14.8917 18.4582 14.525 18.6749C14.7917 19.0749 15.1417 19.3957 15.575 19.6374C16.0083 19.8791 16.4833 19.9999 17 19.9999ZM12 2.1499C12.1333 2.1499 12.2542 2.15824 12.3625 2.1749C12.4708 2.19157 12.5833 2.2249 12.7 2.2749L18.7 4.5249C19.0833 4.6749 19.3958 4.91657 19.6375 5.2499C19.8792 5.58324 20 5.95824 20 6.3749V9.4999C20 9.78324 19.9042 10.0207 19.7125 10.2124C19.5208 10.4041 19.2833 10.4999 19 10.4999C18.7167 10.4999 18.4792 10.4041 18.2875 10.2124C18.0958 10.0207 18 9.78324 18 9.4999V6.3999L12 4.1499L6 6.3999V11.0999C6 11.9332 6.12083 12.7666 6.3625 13.5999C6.60417 14.4332 6.9375 15.2249 7.3625 15.9749C7.7875 16.7249 8.30417 17.3999 8.9125 17.9999C9.52083 18.5999 10.1833 19.0916 10.9 19.4749C11.15 19.6082 11.3292 19.7999 11.4375 20.0499C11.5458 20.2999 11.55 20.5499 11.45 20.7999C11.3333 21.0666 11.1458 21.2499 10.8875 21.3499C10.6292 21.4499 10.375 21.4332 10.125 21.2999C8.24167 20.3666 6.75 18.9582 5.65 17.0749C4.55 15.1916 4 13.1999 4 11.0999V6.3749C4 5.95824 4.12083 5.58324 4.3625 5.2499C4.60417 4.91657 4.91667 4.6749 5.3 4.5249L11.3 2.2749C11.4167 2.2249 11.5333 2.19157 11.65 2.1749C11.7667 2.15824 11.8833 2.1499 12 2.1499ZM17 21.9999C15.6167 21.9999 14.4375 21.5124 13.4625 20.5374C12.4875 19.5624 12 18.3832 12 16.9999C12 15.6166 12.4875 14.4374 13.4625 13.4624C14.4375 12.4874 15.6167 11.9999 17 11.9999C18.3833 11.9999 19.5625 12.4874 20.5375 13.4624C21.5125 14.4374 22 15.6166 22 16.9999C22 18.3832 21.5125 19.5624 20.5375 20.5374C19.5625 21.5124 18.3833 21.9999 17 21.9999Z"
              fill="#1C1B1F"/>
    </g>
</svg>
