<svg width="20" height="20" viewBox="0 0 20 20" fill="none" xmlns="http://www.w3.org/2000/svg">
    <mask id="mask0_1188_48582" style="mask-type:alpha" maskUnits="userSpaceOnUse" x="0" y="0" width="20" height="20">
        <rect width="20" height="20" fill="#D9D9D9"/>
    </mask>
    <g mask="url(#mask0_1188_48582)">
        <path d="M3.73781 8.11674C3.51604 8.11674 3.33014 8.04173 3.18011 7.89171C3.03009 7.74168 2.95508 7.55578 2.95508 7.33401C2.95508 7.11223 3.03009 6.92633 3.18011 6.77631C3.33014 6.62628 3.51604 6.55127 3.73781 6.55127H16.2616C16.4834 6.55127 16.6693 6.62628 16.8193 6.77631C16.9693 6.92633 17.0443 7.11223 17.0443 7.33401C17.0443 7.55578 16.9693 7.74168 16.8193 7.89171C16.6693 8.04173 16.4834 8.11674 16.2616 8.11674H3.73781Z"
              fill="#222222"/>
        <path d="M3.73781 13.4488C3.51604 13.4488 3.33014 13.3738 3.18011 13.2237C3.03009 13.0737 2.95508 12.8878 2.95508 12.666C2.95508 12.4443 3.03009 12.2584 3.18011 12.1083C3.33014 11.9583 3.51604 11.8833 3.73781 11.8833H16.2616C16.4834 11.8833 16.6693 11.9583 16.8193 12.1083C16.9693 12.2584 17.0443 12.4443 17.0443 12.666C17.0443 12.8878 16.9693 13.0737 16.8193 13.2237C16.6693 13.3738 16.4834 13.4488 16.2616 13.4488H3.73781Z"
              fill="#222222"/>
    </g>
</svg>
