<svg width="25" height="24" viewBox="0 0 25 24" fill="none" xmlns="http://www.w3.org/2000/svg">
    <g id="Group 26086538">
        <path id="Subtract" fill-rule="evenodd" clip-rule="evenodd"
              d="M5.00219 5.26995C6.53927 3.73287 8.62399 2.86935 10.7978 2.86935C12.9715 2.86935 15.0562 3.73287 16.5933 5.26995C18.1304 6.80703 18.9939 8.89176 18.9939 11.0655C18.9939 11.7829 18.8999 12.4905 18.7186 13.1719H20.8778C21.0215 12.4843 21.0955 11.7787 21.0955 11.0655C21.0955 8.33439 20.0106 5.71512 18.0794 3.78391C16.1482 1.85271 13.5289 0.767769 10.7978 0.767769C8.06662 0.767769 5.44735 1.85271 3.51614 3.78391C1.58494 5.71511 0.5 8.33439 0.5 11.0655C0.5 13.7967 1.58494 16.4159 3.51614 18.3471C5.44735 20.2783 8.06662 21.3633 10.7978 21.3633C11.2138 21.3633 11.6272 21.3381 12.036 21.2886V19.1677C11.6287 19.2299 11.2149 19.2617 10.7978 19.2617C8.62399 19.2617 6.53927 18.3982 5.00219 16.8611C3.46511 15.324 2.60158 13.2393 2.60158 11.0655C2.60158 8.89176 3.46511 6.80703 5.00219 5.26995ZM11.8485 7.36674C11.8485 6.7864 11.3781 6.31595 10.7978 6.31595C10.2174 6.31595 9.74696 6.7864 9.74696 7.36674V10.6303L7.28064 13.0966C6.87028 13.507 6.87028 14.1723 7.28064 14.5826C7.691 14.993 8.35633 14.993 8.76669 14.5826L11.5408 11.8085C11.7378 11.6115 11.8485 11.3442 11.8485 11.0655V7.36674Z"
              fill="#4A7CF7"/>
        <path id="Union" fill-rule="evenodd" clip-rule="evenodd"
              d="M15.0656 17.8388V21.4322H22.6995V17.7433L19.3292 19.8199L18.8645 20.1062L18.3958 19.8265L15.0656 17.8388ZM21.7712 16.2011H15.8338L18.8497 18.0011L21.7712 16.2011ZM13.2656 15.6011C13.2656 14.9384 13.8029 14.4011 14.4656 14.4011H23.2995C23.9623 14.4011 24.4995 14.9384 24.4995 15.6011V22.0322C24.4995 22.695 23.9623 23.2322 23.2995 23.2322H14.4656C13.8029 23.2322 13.2656 22.695 13.2656 22.0322V15.6011Z"
              fill="#4A7CF7"/>
    </g>
</svg>
