<svg width="24" height="24" viewBox="0 0 24 24" fill="none" xmlns="http://www.w3.org/2000/svg">
    <g id="icon/24">
        <mask id="mask0_519_4000" style="mask-type:alpha" maskUnits="userSpaceOnUse" x="0" y="0" width="24" height="24">
            <rect id="Bounding box" width="24" height="24" fill="#D9D9D9"/>
        </mask>
        <g mask="url(#mask0_519_4000)">
            <path id="content_copy"
                  d="M9.5 7C9.0875 7 8.73438 7.14688 8.44062 7.44063C8.14687 7.73438 8 8.0875 8 8.5L8 18.5C8 18.9125 8.14687 19.2656 8.44062 19.5594C8.73438 19.8531 9.0875 20 9.5 20H17.5C17.9125 20 18.2656 19.8531 18.5594 19.5594C18.8531 19.2656 19 18.9125 19 18.5V8.5C19 8.0875 18.8531 7.73438 18.5594 7.44063C18.2656 7.14688 17.9125 7 17.5 7L9.5 7ZM9.5 8.5L17.5 8.5V18.5H9.5V8.5ZM6.5 4C6.0875 4 5.73437 4.14688 5.44062 4.44063C5.14687 4.73438 5 5.0875 5 5.5L5 16.25C5 16.4625 5.07146 16.6406 5.21437 16.7844C5.35729 16.9281 5.53437 17 5.74562 17C5.95687 17 6.13542 16.9281 6.28125 16.7844C6.42708 16.6406 6.5 16.4625 6.5 16.25L6.5 5.5L15.25 5.5C15.4625 5.5 15.6406 5.42854 15.7844 5.28563C15.9281 5.14271 16 4.96563 16 4.75438C16 4.54313 15.9281 4.36458 15.7844 4.21875C15.6406 4.07292 15.4625 4 15.25 4L6.5 4Z"
                  fill="#222222"/>
        </g>
    </g>
</svg>
