<svg width="14" height="19" viewBox="0 0 14 19" fill="none" xmlns="http://www.w3.org/2000/svg">
    <g id="Group 26086450">
        <path id="Vector" d="M3.30469 10.7316H8.23157V11.9634H3.30469V10.7316ZM3.30469 7.65234H10.695V8.88406H3.30469V7.65234ZM3.30469 13.8109H6.38399V15.0427H3.30469V13.8109Z" fill="#222222"/>
        <path id="Vector_2"
              d="M12.5428 2.72551H10.6952V2.10965C10.6952 1.78298 10.5654 1.46968 10.3344 1.23869C10.1035 1.0077 9.79016 0.87793 9.46349 0.87793H4.53661C4.20993 0.87793 3.89664 1.0077 3.66565 1.23869C3.43466 1.46968 3.30489 1.78298 3.30489 2.10965V2.72551H1.45731C1.13063 2.72551 0.817341 2.85528 0.586348 3.08627C0.355356 3.31726 0.225586 3.63056 0.225586 3.95723V16.8903C0.225586 17.217 0.355356 17.5303 0.586348 17.7612C0.817341 17.9922 1.13063 18.122 1.45731 18.122H12.5428C12.8695 18.122 13.1828 17.9922 13.4137 17.7612C13.6447 17.5303 13.7745 17.217 13.7745 16.8903V3.95723C13.7745 3.63056 13.6447 3.31726 13.4137 3.08627C13.1828 2.85528 12.8695 2.72551 12.5428 2.72551ZM4.53661 2.10965H9.46349V4.57309H4.53661V2.10965ZM12.5428 16.8903H1.45731V3.95723H3.30489V5.80481H10.6952V3.95723H12.5428V16.8903Z"
              fill="#222222"/>
    </g>
</svg>
