<svg width="24" height="24" viewBox="0 0 24 24" fill="none" xmlns="http://www.w3.org/2000/svg">
    <mask id="mask0_76_3447" style="mask-type:alpha" maskUnits="userSpaceOnUse" x="0" y="0" width="24" height="24">
        <rect width="24" height="24" fill="#D9D9D9"/>
    </mask>
    <g mask="url(#mask0_76_3447)">
        <path d="M5 21C4.45 21 3.97917 20.8042 3.5875 20.4125C3.19583 20.0208 3 19.55 3 19V5C3 4.45 3.19583 3.97917 3.5875 3.5875C3.97917 3.19583 4.45 3 5 3H19C19.55 3 20.0208 3.19583 20.4125 3.5875C20.8042 3.97917 21 4.45 21 5V19C21 19.55 20.8042 20.0208 20.4125 20.4125C20.0208 20.8042 19.55 21 19 21H5ZM5 19H19V7H5V19ZM8 12C7.71667 12 7.47917 11.9042 7.2875 11.7125C7.09583 11.5208 7 11.2833 7 11C7 10.7167 7.09583 10.4792 7.2875 10.2875C7.47917 10.0958 7.71667 10 8 10H16C16.2833 10 16.5208 10.0958 16.7125 10.2875C16.9042 10.4792 17 10.7167 17 11C17 11.2833 16.9042 11.5208 16.7125 11.7125C16.5208 11.9042 16.2833 12 16 12H8ZM8 16C7.71667 16 7.47917 15.9042 7.2875 15.7125C7.09583 15.5208 7 15.2833 7 15C7 14.7167 7.09583 14.4792 7.2875 14.2875C7.47917 14.0958 7.71667 14 8 14H12C12.2833 14 12.5208 14.0958 12.7125 14.2875C12.9042 14.4792 13 14.7167 13 15C13 15.2833 12.9042 15.5208 12.7125 15.7125C12.5208 15.9042 12.2833 16 12 16H8Z"
              fill="#1C1B1F"/>
    </g>
</svg>
