<svg width="20" height="20" viewBox="0 0 20 20" fill="none" xmlns="http://www.w3.org/2000/svg">
    <mask id="mask0_1188_48849" style="mask-type:alpha" maskUnits="userSpaceOnUse" x="0" y="0" width="20" height="20">
        <rect width="20" height="20" fill="#AAAAAA"/>
    </mask>
    <g mask="url(#mask0_1188_48849)">
        <path d="M3.73781 6.83525C3.51604 6.83525 3.33014 6.76024 3.18011 6.61021C3.03009 6.46019 2.95508 6.27429 2.95508 6.05251C2.95508 5.83074 3.03009 5.64484 3.18011 5.49481C3.33014 5.34479 3.51604 5.26978 3.73781 5.26978H16.2616C16.4834 5.26978 16.6693 5.34479 16.8193 5.49481C16.9693 5.64484 17.0443 5.83074 17.0443 6.05251C17.0443 6.27429 16.9693 6.46019 16.8193 6.61021C16.6693 6.76024 16.4834 6.83525 16.2616 6.83525H3.73781Z"
              fill="#454545"/>
        <rect x="3.72852" y="9.73047" width="12.5429" height="5" stroke="#454545" stroke-width="1.5" stroke-linejoin="round"/>
    </g>
</svg>
