<svg width="16" height="14" viewBox="0 0 16 14" fill="none" xmlns="http://www.w3.org/2000/svg">
    <g id="Group 26086434">
        <path id="Vector"
              d="M2.58001 13.0505H13.4203C13.5964 13.0505 13.7694 13.0048 13.9225 12.9179C14.0756 12.831 14.2036 12.7058 14.2938 12.5546C14.3841 12.4035 14.4336 12.2315 14.4375 12.0555C14.4415 11.8794 14.3996 11.7054 14.3162 11.5504L8.89635 1.48483C8.51186 0.771171 7.48844 0.771171 7.10395 1.48483L1.68412 11.5504C1.60066 11.7054 1.55884 11.8794 1.56275 12.0555C1.56667 12.2315 1.61618 12.4035 1.70645 12.5546C1.79672 12.7058 1.92467 12.831 2.07778 12.9179C2.2309 13.0048 2.40394 13.0505 2.58001 13.0505Z"
              stroke="#D7322D" stroke-width="1.15" stroke-linecap="round" stroke-linejoin="round"/>
        <path id="Vector_2"
              d="M7.81751 5.07241L8.00005 8.95235L8.18228 5.074C8.18341 5.04921 8.17947 5.02445 8.1707 5.00123C8.16193 4.97801 8.14852 4.95682 8.13128 4.93896C8.11405 4.92111 8.09335 4.90695 8.07046 4.89736C8.04757 4.88777 8.02296 4.88295 7.99815 4.88319C7.97376 4.88343 7.94967 4.88855 7.9273 4.89825C7.90493 4.90795 7.88473 4.92204 7.86789 4.93968C7.85105 4.95731 7.83792 4.97815 7.82926 5.00095C7.82061 5.02374 7.81661 5.04804 7.81751 5.07241Z"
              fill="#D7322D" stroke="#D7322D" stroke-linecap="round" stroke-linejoin="round"/>
        <path id="Vector_3"
              d="M8.00031 11.4921C7.87451 11.4921 7.75154 11.4548 7.64694 11.3849C7.54234 11.315 7.46082 11.2157 7.41268 11.0994C7.36453 10.9832 7.35194 10.8553 7.37648 10.7319C7.40102 10.6086 7.4616 10.4952 7.55055 10.4063C7.63951 10.3173 7.75284 10.2567 7.87622 10.2322C7.99961 10.2077 8.1275 10.2202 8.24372 10.2684C8.35994 10.3165 8.45928 10.3981 8.52917 10.5027C8.59906 10.6073 8.63637 10.7302 8.63637 10.856C8.63637 11.0247 8.56936 11.1865 8.45007 11.3058C8.33079 11.4251 8.16901 11.4921 8.00031 11.4921Z"
              fill="#D7322D"/>
    </g>
</svg>
    