<svg width="16" height="16" viewBox="0 0 16 16" fill="none" xmlns="http://www.w3.org/2000/svg">
    <g id="Icon/16">
        <mask id="mask0_403_563" style="mask-type:alpha" maskUnits="userSpaceOnUse" x="0" y="0" width="16" height="16">
            <rect id="Bounding box" width="16" height="16" fill="#D9D9D9"/>
        </mask>
        <g mask="url(#mask0_403_563)">
            <path id="multiple_stop"
                  d="M4.70887 13.6424L1.8877 10.8212L4.70887 8.00002L5.70804 8.99919L4.59132 10.1159H7.53005V11.5265H4.59132L5.70804 12.6432L4.70887 13.6424ZM9.65004 11.5265C9.45139 11.5265 9.28349 11.4593 9.14635 11.3249C9.00921 11.1905 8.94064 11.024 8.94064 10.8253C8.94064 10.6267 9.00783 10.4588 9.14223 10.3216C9.27663 10.1845 9.44316 10.1159 9.64182 10.1159C9.84047 10.1159 10.0084 10.1831 10.1455 10.3175C10.2827 10.4519 10.3512 10.6184 10.3512 10.8171C10.3512 11.0157 10.284 11.1836 10.1496 11.3208C10.0152 11.4579 9.8487 11.5265 9.65004 11.5265ZM12.4712 11.5265C12.2726 11.5265 12.1047 11.4593 11.9675 11.3249C11.8304 11.1905 11.7618 11.024 11.7618 10.8253C11.7618 10.6267 11.829 10.4588 11.9634 10.3216C12.0978 10.1845 12.2643 10.1159 12.463 10.1159C12.6616 10.1159 12.8295 10.1831 12.9667 10.3175C13.1038 10.4519 13.1724 10.6184 13.1724 10.8171C13.1724 11.0157 13.1052 11.1836 12.9708 11.3208C12.8364 11.4579 12.6699 11.5265 12.4712 11.5265ZM11.2916 8.00002L10.2924 7.00085L11.4092 5.88414H8.47044V4.47355H11.4092L10.2924 3.35683L11.2916 2.35767L14.1128 5.17884L11.2916 8.00002ZM3.5375 5.88414C3.33884 5.88414 3.17094 5.81694 3.0338 5.68254C2.89666 5.54814 2.82809 5.38162 2.82809 5.18296C2.82809 4.9843 2.89529 4.8164 3.02968 4.67926C3.16408 4.54212 3.33061 4.47355 3.52927 4.47355C3.72793 4.47355 3.89582 4.54075 4.03296 4.67514C4.17011 4.80954 4.23868 4.97607 4.23868 5.17473C4.23868 5.37339 4.17148 5.54129 4.03708 5.67843C3.90268 5.81557 3.73615 5.88414 3.5375 5.88414ZM6.35867 5.88414C6.16001 5.88414 5.99212 5.81694 5.85497 5.68254C5.71783 5.54814 5.64926 5.38162 5.64926 5.18296C5.64926 4.9843 5.71646 4.8164 5.85086 4.67926C5.98526 4.54212 6.15179 4.47355 6.35044 4.47355C6.5491 4.47355 6.717 4.54075 6.85414 4.67514C6.99128 4.80954 7.05985 4.97607 7.05985 5.17473C7.05985 5.37339 6.99265 5.54129 6.85826 5.67843C6.72386 5.81557 6.55733 5.88414 6.35867 5.88414Z"
                  fill="#6848EB"/>
        </g>
    </g>
</svg>
